<svg width="364" height="403" viewBox="0 0 364 403" fill="none" xmlns="http://www.w3.org/2000/svg">
<path d="M255.679 157.437L257.882 155.234C271.089 142.027 271.089 120.618 257.882 107.411C244.675 94.2031 223.266 94.2031 210.058 107.411L209.526 107.488C187.434 85.3966 151.623 85.3966 129.531 107.488L109.004 128.016C109.004 128.016 93.9032 142.167 109.004 157.263L109.062 157.321L106.859 159.524C93.6514 172.731 93.6514 194.14 106.859 207.347C120.066 220.554 141.475 220.554 154.682 207.347L155.215 207.27C177.306 229.361 213.118 229.361 235.21 207.27L255.742 186.737C255.742 186.737 270.842 172.586 255.742 157.49" fill="url(#paint0_linear_2078_8934)"/>
<path fill-rule="evenodd" clip-rule="evenodd" d="M207.333 108.974C186.25 87.89 152.072 87.89 130.988 108.974L110.455 129.506C110.437 129.524 110.419 129.542 110.4 129.56C110.398 129.562 110.397 129.563 110.395 129.565L108.631 127.681C110.395 129.565 110.396 129.564 110.397 129.563L110.383 129.576C110.366 129.593 110.335 129.623 110.293 129.665C110.208 129.75 110.077 129.885 109.91 130.067C109.574 130.431 109.099 130.978 108.567 131.683C107.494 133.103 106.235 135.106 105.405 137.49C104.58 139.861 104.193 142.567 104.788 145.469C105.381 148.359 106.987 151.635 110.455 155.104C111.463 156.112 111.463 157.745 110.455 158.753C109.448 159.761 107.814 159.761 106.806 158.753C102.724 154.671 100.555 150.517 99.7325 146.507C98.9124 142.51 99.4684 138.848 100.531 135.794C101.589 132.755 103.161 130.277 104.448 128.573C105.095 127.715 105.682 127.039 106.113 126.571C106.329 126.336 106.508 126.152 106.637 126.023C106.701 125.958 106.754 125.906 106.793 125.869C106.806 125.855 106.819 125.844 106.829 125.834L127.339 105.324C149.917 82.7457 186.203 82.2369 209.4 103.798C223.693 91.0494 245.624 91.5323 259.339 105.247C273.554 119.462 273.554 142.505 259.339 156.72L223.091 192.967C208.876 207.183 185.833 207.183 171.618 192.967C157.403 178.752 157.403 155.71 171.618 141.495C172.626 140.487 174.26 140.487 175.267 141.495C176.275 142.502 176.275 144.136 175.267 145.144C163.068 157.344 163.068 177.118 175.267 189.318C187.467 201.518 207.242 201.518 219.442 189.318L255.689 153.07C267.889 140.871 267.889 121.096 255.689 108.896C243.49 96.6966 223.715 96.6966 211.515 108.896C211.122 109.289 210.612 109.545 210.062 109.625L209.529 109.703C208.723 109.82 207.909 109.55 207.333 108.974Z" fill="white"/>
<path fill-rule="evenodd" clip-rule="evenodd" d="M188.733 124.771C176.533 112.571 156.758 112.571 144.558 124.771L108.311 161.014C108.311 161.014 108.311 161.014 108.311 161.014C96.1112 173.214 96.1111 192.989 108.311 205.188C120.51 217.388 140.285 217.388 152.485 205.188C152.878 204.795 153.388 204.539 153.938 204.459L154.471 204.382C155.277 204.265 156.091 204.535 156.667 205.111C177.75 226.194 211.928 226.194 233.012 205.111L253.545 184.578C253.559 184.564 253.573 184.55 253.588 184.536C253.593 184.531 253.598 184.526 253.603 184.521L253.605 184.52L255.369 186.403L257.194 188.228L257.171 188.25L236.661 208.76C214.083 231.339 177.797 231.847 154.6 210.286C140.307 223.035 118.376 222.552 104.661 208.837C90.4462 194.622 90.4462 171.58 104.661 157.365L140.909 121.122C155.124 106.907 178.167 106.907 192.382 121.122C206.597 135.337 206.597 158.38 192.382 172.595C191.374 173.602 189.74 173.602 188.733 172.595C187.725 171.587 187.725 169.953 188.733 168.945C200.932 156.746 200.932 136.971 188.733 124.771ZM257.171 188.25C257.176 188.246 257.181 188.241 257.187 188.236L257.207 188.215C257.246 188.178 257.299 188.127 257.363 188.062C257.492 187.932 257.671 187.748 257.887 187.514C258.318 187.045 258.905 186.369 259.552 185.512C260.839 183.807 262.411 181.33 263.469 178.29C264.532 175.237 265.088 171.574 264.268 167.578C263.445 163.568 261.276 159.413 257.194 155.331C256.186 154.324 254.552 154.324 253.545 155.331C252.537 156.339 252.537 157.973 253.545 158.981C257.013 162.449 258.619 165.725 259.212 168.615C259.807 171.517 259.42 174.223 258.595 176.594C257.765 178.979 256.506 180.981 255.433 182.401C254.901 183.106 254.426 183.654 254.09 184.017C253.923 184.199 253.792 184.334 253.707 184.419C253.665 184.461 253.634 184.491 253.617 184.508L253.605 184.52" fill="white"/>
<path d="M145.876 262.489C145.876 260.346 146.28 258.331 147.089 256.45C147.898 254.57 149.01 252.925 150.418 251.51C151.827 250.102 153.471 248.99 155.358 248.181C157.239 247.372 159.254 246.968 161.397 246.968C163.54 246.968 165.555 247.372 167.436 248.181C169.316 248.99 170.96 250.102 172.376 251.51C173.784 252.919 174.896 254.57 175.705 256.45C176.514 258.331 176.918 260.346 176.918 262.489C176.918 264.632 176.514 266.647 175.705 268.527C174.896 270.408 173.784 272.052 172.376 273.467C170.967 274.876 169.316 275.988 167.436 276.797C165.555 277.605 163.54 278.01 161.397 278.01C159.254 278.01 157.05 277.437 154.792 276.291C154.118 275.948 153.498 275.584 152.925 275.186C151.611 274.276 149.825 275.199 149.825 276.803V285.855C149.825 286.946 148.942 287.829 147.851 287.829C146.759 287.829 145.876 286.946 145.876 285.855V262.489V262.489ZM149.825 262.489C149.825 264.066 150.129 265.562 150.728 266.977C151.328 268.386 152.157 269.619 153.209 270.67C154.26 271.722 155.493 272.551 156.902 273.151C158.31 273.75 159.806 274.054 161.39 274.054C162.974 274.054 164.463 273.75 165.879 273.151C167.287 272.551 168.521 271.722 169.572 270.67C170.623 269.619 171.452 268.386 172.052 266.977C172.652 265.569 172.955 264.073 172.955 262.489C172.955 260.905 172.652 259.416 172.052 258C171.452 256.592 170.623 255.358 169.572 254.307C168.521 253.256 167.287 252.427 165.879 251.827C164.47 251.227 162.974 250.924 161.39 250.924C159.806 250.924 158.317 251.227 156.902 251.827C155.493 252.427 154.26 253.256 153.209 254.307C152.157 255.358 151.328 256.592 150.728 258C150.129 259.409 149.825 260.905 149.825 262.489Z" fill="#62B3B9"/>
<path fill-rule="evenodd" clip-rule="evenodd" d="M161.397 248.875C159.5 248.875 157.743 249.232 156.112 249.933L156.11 249.934C154.442 250.649 153.002 251.624 151.769 252.857C150.532 254.1 149.556 255.542 148.841 257.204C148.14 258.835 147.783 260.592 147.783 262.489V285.855C147.783 285.893 147.812 285.922 147.851 285.922C147.889 285.922 147.918 285.893 147.918 285.855V276.803C147.918 273.975 150.745 272.235 153.177 273.175C152.715 272.82 152.275 272.435 151.86 272.019C150.631 270.791 149.666 269.352 148.974 267.725L148.972 267.722C148.271 266.067 147.918 264.318 147.918 262.489C147.918 260.654 148.271 258.904 148.974 257.253C149.666 255.626 150.631 254.187 151.86 252.958C153.088 251.73 154.527 250.765 156.154 250.072L156.158 250.071C157.811 249.37 159.554 249.017 161.39 249.017C163.225 249.017 164.976 249.369 166.626 250.072C168.253 250.765 169.692 251.73 170.921 252.958C172.149 254.187 173.114 255.626 173.807 257.253L173.808 257.256C174.509 258.91 174.862 260.653 174.862 262.489C174.862 264.323 174.51 266.074 173.807 267.725C173.114 269.352 172.149 270.791 170.921 272.019C169.692 273.248 168.253 274.213 166.626 274.905L166.623 274.907C164.969 275.608 163.226 275.961 161.39 275.961C160.08 275.961 158.812 275.781 157.592 275.422C158.916 275.884 160.183 276.103 161.397 276.103C163.294 276.103 165.051 275.746 166.682 275.045C168.346 274.329 169.794 273.352 171.026 272.12C172.262 270.878 173.238 269.435 173.953 267.774C174.654 266.143 175.011 264.386 175.011 262.489C175.011 260.592 174.654 258.835 173.953 257.204C173.237 255.539 172.26 254.092 171.028 252.86C169.786 251.624 168.344 250.648 166.682 249.933C165.051 249.232 163.294 248.875 161.397 248.875ZM154.606 246.428C156.736 245.513 159.008 245.061 161.397 245.061C163.786 245.061 166.059 245.513 168.189 246.429C170.287 247.331 172.133 248.578 173.721 250.158L173.724 250.162C175.309 251.746 176.556 253.601 177.457 255.697C178.373 257.827 178.825 260.099 178.825 262.489C178.825 264.878 178.373 267.151 177.457 269.281C176.555 271.379 175.308 273.225 173.727 274.813L173.724 274.816C172.14 276.401 170.285 277.647 168.189 278.549C166.059 279.465 163.786 279.917 161.397 279.917C158.905 279.917 156.407 279.249 153.929 277.992L153.926 277.99C153.189 277.615 152.494 277.208 151.84 276.754C151.822 276.742 151.811 276.738 151.807 276.736C151.803 276.735 151.801 276.735 151.798 276.735C151.793 276.734 151.779 276.736 151.762 276.744C151.746 276.753 151.739 276.762 151.738 276.764L151.738 276.764C151.738 276.764 151.737 276.765 151.736 276.768C151.735 276.771 151.733 276.781 151.733 276.803V285.855C151.733 288 149.996 289.737 147.851 289.737C145.705 289.737 143.969 288 143.969 285.855V262.489C143.969 260.099 144.421 257.827 145.337 255.697C146.239 253.598 147.486 251.753 149.067 250.165L149.07 250.162C150.653 248.579 152.501 247.331 154.606 246.428ZM157.648 253.582C156.458 254.089 155.431 254.782 154.557 255.656C153.683 256.53 152.99 257.558 152.483 258.748C151.986 259.914 151.733 261.156 151.733 262.489C151.733 263.814 151.986 265.056 152.484 266.231C152.99 267.421 153.683 268.448 154.557 269.322C155.431 270.196 156.459 270.889 157.649 271.396C158.816 271.893 160.057 272.146 161.39 272.146C162.721 272.146 163.956 271.894 165.133 271.395C166.322 270.889 167.349 270.196 168.223 269.322C169.097 268.448 169.791 267.42 170.297 266.23C170.794 265.063 171.048 263.822 171.048 262.489C171.048 261.158 170.795 259.923 170.297 258.746C169.79 257.557 169.097 256.53 168.223 255.656C167.349 254.782 166.321 254.089 165.131 253.582C163.965 253.085 162.723 252.831 161.39 252.831C160.059 252.831 158.824 253.084 157.648 253.582Z" fill="#62B3B9"/>
<path d="M183.644 262.435C183.644 260.291 184.048 258.276 184.857 256.396C185.666 254.516 186.778 252.871 188.186 251.456C189.595 250.047 191.239 248.935 193.126 248.127C195.007 247.318 197.022 246.914 199.165 246.914C201.308 246.914 203.323 247.318 205.204 248.127C207.084 248.935 208.728 250.047 210.144 251.456C211.552 252.865 212.664 254.516 213.473 256.396C214.282 258.276 214.686 260.291 214.686 262.435C214.686 264.578 214.282 266.593 213.473 268.473C212.664 270.353 211.552 271.998 210.144 273.413C208.735 274.822 207.084 275.934 205.204 276.742C203.323 277.551 201.308 277.956 199.165 277.956C197.022 277.956 195.007 277.551 193.126 276.742C191.246 275.934 189.602 274.822 188.186 273.413C186.778 272.005 185.666 270.36 184.857 268.473C184.048 266.593 183.644 264.578 183.644 262.435ZM187.593 262.435C187.593 264.012 187.897 265.508 188.496 266.923C189.096 268.332 189.925 269.565 190.977 270.616C192.028 271.668 193.261 272.497 194.67 273.096C196.078 273.696 197.574 274 199.158 274C200.742 274 202.231 273.696 203.647 273.096C205.055 272.497 206.289 271.668 207.34 270.616C208.391 269.565 209.22 268.332 209.82 266.923C210.42 265.515 210.723 264.018 210.723 262.435C210.723 260.851 210.42 259.361 209.82 257.946C209.22 256.538 208.391 255.304 207.34 254.253C206.289 253.202 205.055 252.373 203.647 251.773C202.238 251.173 200.742 250.87 199.158 250.87C197.574 250.87 196.085 251.173 194.67 251.773C193.261 252.373 192.028 253.202 190.977 254.253C189.925 255.304 189.096 256.538 188.496 257.946C187.897 259.355 187.593 260.851 187.593 262.435Z" fill="#62B3B9"/>
<path fill-rule="evenodd" clip-rule="evenodd" d="M199.165 248.821C197.268 248.821 195.511 249.177 193.88 249.879L193.878 249.88C192.21 250.594 190.77 251.57 189.537 252.803C188.3 254.046 187.324 255.488 186.609 257.15C185.908 258.78 185.551 260.538 185.551 262.435C185.551 264.332 185.908 266.089 186.609 267.72L186.61 267.722C187.325 269.389 188.3 270.83 189.534 272.063C190.776 273.299 192.218 274.276 193.88 274.99C195.511 275.692 197.268 276.048 199.165 276.048C201.062 276.048 202.819 275.692 204.45 274.99C206.114 274.275 207.562 273.298 208.794 272.066C210.03 270.823 211.006 269.381 211.721 267.72C212.422 266.089 212.779 264.332 212.779 262.435C212.779 260.538 212.422 258.78 211.721 257.15C211.005 255.485 210.028 254.038 208.796 252.806C207.554 251.57 206.112 250.593 204.45 249.879C202.819 249.177 201.062 248.821 199.165 248.821ZM192.374 246.374C194.504 245.458 196.776 245.006 199.165 245.006C201.554 245.006 203.827 245.459 205.957 246.375C208.055 247.277 209.901 248.524 211.489 250.104L211.492 250.107C213.077 251.692 214.324 253.547 215.225 255.642C216.141 257.772 216.593 260.045 216.593 262.435C216.593 264.824 216.141 267.097 215.225 269.227C214.323 271.325 213.076 273.171 211.495 274.759L211.492 274.762C209.908 276.347 208.053 277.593 205.957 278.495C203.827 279.411 201.554 279.863 199.165 279.863C196.776 279.863 194.503 279.411 192.373 278.495C190.275 277.592 188.429 276.345 186.841 274.765L186.838 274.762C185.255 273.179 184.007 271.331 183.105 269.226C182.189 267.096 181.737 264.824 181.737 262.435C181.737 260.045 182.189 257.772 183.105 255.642C184.007 253.544 185.254 251.698 186.835 250.111L186.838 250.107C188.421 248.524 190.268 247.277 192.374 246.374ZM193.926 250.017C195.579 249.316 197.322 248.962 199.158 248.962C200.993 248.962 202.744 249.315 204.394 250.018C206.021 250.711 207.46 251.676 208.689 252.904C209.917 254.133 210.882 255.572 211.575 257.199L211.576 257.202C212.277 258.856 212.63 260.599 212.63 262.435C212.63 264.269 212.278 266.02 211.575 267.67C210.882 269.297 209.917 270.736 208.689 271.965C207.46 273.194 206.021 274.158 204.394 274.851L204.391 274.853C202.737 275.553 200.994 275.907 199.158 275.907C197.324 275.907 195.573 275.554 193.922 274.851C192.295 274.158 190.856 273.194 189.628 271.965C188.399 270.736 187.434 269.297 186.742 267.67L186.74 267.667C186.039 266.013 185.686 264.263 185.686 262.435C185.686 260.6 186.039 258.849 186.742 257.199C187.434 255.572 188.399 254.133 189.628 252.904C190.856 251.676 192.295 250.711 193.922 250.018L193.926 250.017ZM195.416 253.528C194.226 254.035 193.199 254.728 192.325 255.602C191.451 256.476 190.758 257.503 190.251 258.693C189.754 259.86 189.501 261.101 189.501 262.435C189.501 263.759 189.754 265.002 190.252 266.177C190.758 267.367 191.451 268.394 192.325 269.268C193.199 270.142 194.227 270.835 195.417 271.342C196.584 271.838 197.825 272.092 199.158 272.092C200.489 272.092 201.724 271.839 202.901 271.341C204.09 270.834 205.117 270.142 205.991 269.268C206.865 268.394 207.559 267.366 208.065 266.176C208.562 265.009 208.816 263.768 208.816 262.435C208.816 261.104 208.563 259.868 208.065 258.692C207.558 257.503 206.865 256.475 205.991 255.602C205.117 254.727 204.089 254.034 202.899 253.528C201.733 253.031 200.491 252.777 199.158 252.777C197.827 252.777 196.592 253.03 195.416 253.528Z" fill="#62B3B9"/>
<path d="M221.257 262.489C221.257 260.346 221.661 258.331 222.47 256.45C223.279 254.57 224.391 252.925 225.799 251.51C227.208 250.102 228.852 248.99 230.739 248.181C232.62 247.372 234.635 246.968 236.778 246.968C238.921 246.968 240.936 247.372 242.817 248.181C244.697 248.99 246.341 250.102 247.757 251.51C249.165 252.919 250.277 254.57 251.086 256.45C251.895 258.331 252.299 260.346 252.299 262.489C252.299 264.632 251.895 266.647 251.086 268.527C250.277 270.408 249.165 272.052 247.757 273.467C246.348 274.876 244.697 275.988 242.817 276.797C240.936 277.605 238.921 278.01 236.778 278.01C234.635 278.01 232.431 277.437 230.173 276.291C229.499 275.948 228.879 275.584 228.306 275.186C226.992 274.276 225.206 275.199 225.206 276.803V285.855C225.206 286.946 224.323 287.829 223.232 287.829C222.14 287.829 221.257 286.946 221.257 285.855V262.489V262.489ZM225.206 262.489C225.206 264.066 225.51 265.562 226.109 266.977C226.709 268.386 227.538 269.619 228.59 270.67C229.641 271.722 230.874 272.551 232.283 273.151C233.691 273.75 235.187 274.054 236.771 274.054C238.355 274.054 239.844 273.75 241.26 273.151C242.668 272.551 243.902 271.722 244.953 270.67C246.004 269.619 246.833 268.386 247.433 266.977C248.033 265.569 248.336 264.073 248.336 262.489C248.336 260.905 248.033 259.416 247.433 258C246.833 256.592 246.004 255.358 244.953 254.307C243.902 253.256 242.668 252.427 241.26 251.827C239.851 251.227 238.355 250.924 236.771 250.924C235.187 250.924 233.698 251.227 232.283 251.827C230.874 252.427 229.641 253.256 228.59 254.307C227.538 255.358 226.709 256.592 226.109 258C225.51 259.409 225.206 260.905 225.206 262.489Z" fill="#62B3B9"/>
<path fill-rule="evenodd" clip-rule="evenodd" d="M236.778 248.875C234.881 248.875 233.124 249.232 231.493 249.933L231.491 249.934C229.823 250.649 228.383 251.624 227.15 252.857C225.913 254.1 224.937 255.542 224.222 257.204C223.521 258.835 223.164 260.592 223.164 262.489V285.855C223.164 285.893 223.193 285.922 223.232 285.922C223.27 285.922 223.299 285.893 223.299 285.855V276.803C223.299 273.975 226.126 272.235 228.558 273.175C228.096 272.82 227.656 272.435 227.241 272.019C226.012 270.791 225.047 269.352 224.355 267.725L224.353 267.722C223.652 266.067 223.299 264.318 223.299 262.489C223.299 260.654 223.652 258.904 224.355 257.253C225.047 255.626 226.012 254.187 227.241 252.958C228.469 251.73 229.908 250.765 231.536 250.072L231.539 250.071C233.192 249.37 234.935 249.017 236.771 249.017C238.606 249.017 240.357 249.369 242.007 250.072C243.634 250.765 245.073 251.73 246.302 252.958C247.53 254.187 248.495 255.626 249.188 257.253L249.189 257.256C249.89 258.91 250.243 260.653 250.243 262.489C250.243 264.323 249.891 266.074 249.188 267.725C248.495 269.352 247.53 270.791 246.302 272.019C245.073 273.248 243.634 274.213 242.007 274.905L242.004 274.907C240.35 275.608 238.607 275.961 236.771 275.961C235.461 275.961 234.193 275.781 232.973 275.422C234.297 275.884 235.564 276.103 236.778 276.103C238.675 276.103 240.432 275.746 242.063 275.045C243.727 274.329 245.175 273.352 246.407 272.12C247.643 270.878 248.619 269.435 249.334 267.774C250.035 266.143 250.392 264.386 250.392 262.489C250.392 260.592 250.035 258.835 249.334 257.204C248.618 255.539 247.641 254.092 246.409 252.86C245.167 251.624 243.725 250.648 242.063 249.933C240.432 249.232 238.675 248.875 236.778 248.875ZM229.987 246.428C232.117 245.513 234.389 245.061 236.778 245.061C239.167 245.061 241.44 245.513 243.57 246.429C245.668 247.331 247.514 248.578 249.102 250.158L249.105 250.162C250.69 251.746 251.937 253.601 252.838 255.697C253.754 257.827 254.206 260.099 254.206 262.489C254.206 264.878 253.754 267.151 252.838 269.281C251.936 271.379 250.689 273.225 249.108 274.813L249.105 274.816C247.521 276.401 245.666 277.647 243.57 278.549C241.44 279.465 239.167 279.917 236.778 279.917C234.286 279.917 231.788 279.249 229.31 277.992L229.307 277.99C228.57 277.615 227.875 277.208 227.221 276.754C227.203 276.742 227.192 276.738 227.188 276.736C227.184 276.735 227.182 276.735 227.179 276.735C227.174 276.734 227.16 276.736 227.143 276.744C227.127 276.753 227.12 276.762 227.119 276.764C227.119 276.764 227.118 276.765 227.117 276.768C227.116 276.771 227.114 276.781 227.114 276.803V285.855C227.114 288 225.377 289.737 223.232 289.737C221.086 289.737 219.35 288 219.35 285.855V262.489C219.35 260.099 219.802 257.827 220.718 255.697C221.62 253.598 222.867 251.753 224.448 250.165L224.451 250.162C226.034 248.579 227.881 247.331 229.987 246.428ZM233.029 253.582C231.839 254.089 230.812 254.782 229.938 255.656C229.064 256.53 228.371 257.558 227.864 258.748C227.367 259.914 227.114 261.156 227.114 262.489C227.114 263.814 227.367 265.056 227.865 266.231C228.371 267.421 229.064 268.448 229.938 269.322C230.812 270.196 231.84 270.889 233.03 271.396C234.197 271.893 235.438 272.146 236.771 272.146C238.102 272.146 239.337 271.894 240.514 271.395C241.703 270.889 242.73 270.196 243.604 269.322C244.478 268.448 245.172 267.42 245.678 266.23C246.175 265.063 246.429 263.822 246.429 262.489C246.429 261.158 246.176 259.923 245.678 258.746C245.171 257.557 244.478 256.53 243.604 255.656C242.73 254.782 241.702 254.089 240.512 253.582C239.346 253.085 238.104 252.831 236.771 252.831C235.44 252.831 234.205 253.084 233.029 253.582Z" fill="#62B3B9"/>
<path fill-rule="evenodd" clip-rule="evenodd" d="M106.801 249.407C106.801 247.301 108.508 245.593 110.615 245.593H137.223C138.778 245.593 140.177 246.537 140.76 247.979C141.342 249.421 140.99 251.073 139.871 252.152L120.063 271.263H137.088C139.194 271.263 140.902 272.971 140.902 275.078C140.902 277.185 139.194 278.893 137.088 278.893H110.615C109.06 278.893 107.66 277.948 107.078 276.506C106.496 275.064 106.847 273.413 107.967 272.333L127.775 253.222H110.615C108.508 253.222 106.801 251.514 106.801 249.407Z" fill="#62B3B9"/>
<path d="M130.314 311.971H125.051V316.29H123.189V311.971H118V310.464H130.314V311.971ZM119.242 306.522C119.242 305.918 119.446 305.391 119.855 304.942C120.264 304.488 120.836 304.138 121.57 303.891C122.309 303.645 123.159 303.522 124.12 303.522C125.081 303.522 125.931 303.645 126.67 303.891C127.414 304.138 127.993 304.488 128.407 304.942C128.821 305.391 129.028 305.918 129.028 306.522C129.028 307.111 128.821 307.628 128.407 308.072C127.993 308.517 127.414 308.86 126.67 309.101C125.926 309.343 125.076 309.464 124.12 309.464C123.164 309.464 122.316 309.343 121.577 309.101C120.838 308.86 120.264 308.517 119.855 308.072C119.446 307.628 119.242 307.111 119.242 306.522ZM121.178 306.522C121.178 306.831 121.296 307.097 121.533 307.319C121.769 307.541 122.109 307.71 122.553 307.826C122.996 307.937 123.519 307.995 124.12 308C125.041 307.995 125.763 307.865 126.285 307.609C126.813 307.348 127.076 306.986 127.076 306.522C127.076 306.039 126.813 305.667 126.285 305.406C125.763 305.14 125.041 305.005 124.12 305C123.203 305.005 122.482 305.14 121.954 305.406C121.432 305.667 121.173 306.039 121.178 306.522Z" fill="#62B3B9"/>
<path d="M142.376 316.304H140.499V303.087H142.376V316.304ZM131.807 304.188H138.207V309.275H133.773V311.696C134.857 311.686 135.852 311.65 136.759 311.587C137.665 311.524 138.592 311.415 139.538 311.261L139.7 312.754C138.666 312.932 137.633 313.056 136.604 313.123C135.574 313.186 134.384 313.217 133.034 313.217H131.821V307.812H136.286V305.681H131.807V304.188Z" fill="#62B3B9"/>
<path d="M148.54 303.971C149.245 303.971 149.881 304.109 150.447 304.384C151.014 304.659 151.457 305.043 151.778 305.536C152.103 306.024 152.265 306.58 152.265 307.203C152.265 307.826 152.103 308.384 151.778 308.877C151.457 309.37 151.014 309.756 150.447 310.036C149.881 310.312 149.245 310.449 148.54 310.449C147.841 310.449 147.205 310.312 146.633 310.036C146.062 309.756 145.613 309.37 145.288 308.877C144.963 308.384 144.8 307.826 144.8 307.203C144.8 306.585 144.963 306.029 145.288 305.536C145.613 305.043 146.062 304.659 146.633 304.384C147.205 304.109 147.841 303.971 148.54 303.971ZM144.793 312.101C146.271 312.101 147.683 312.072 149.028 312.014C150.378 311.957 151.649 311.845 152.842 311.681L152.99 313.014C151.669 313.266 150.326 313.428 148.962 313.5C147.602 313.572 146.101 313.609 144.46 313.609L144.239 312.101H144.793ZM146.678 307.203C146.678 307.541 146.757 307.836 146.914 308.087C147.077 308.333 147.299 308.522 147.579 308.652C147.865 308.783 148.185 308.845 148.54 308.841C148.9 308.845 149.223 308.783 149.508 308.652C149.794 308.522 150.018 308.333 150.181 308.087C150.349 307.836 150.432 307.541 150.432 307.203C150.432 306.87 150.349 306.58 150.181 306.333C150.018 306.082 149.794 305.891 149.508 305.761C149.223 305.63 148.9 305.565 148.54 305.565C148.185 305.565 147.865 305.63 147.579 305.761C147.299 305.891 147.077 306.082 146.914 306.333C146.757 306.58 146.678 306.87 146.678 307.203ZM153.611 303.087H155.488V316.304H153.611V303.087Z" fill="#62B3B9"/>
<path d="M172.088 312.739H170.211V309.609H167.136C166.806 309.952 166.415 310.22 165.961 310.413C165.508 310.601 165.023 310.696 164.505 310.696C163.835 310.696 163.226 310.548 162.68 310.254C162.133 309.959 161.701 309.553 161.386 309.036C161.076 308.514 160.923 307.932 160.928 307.29C160.923 306.638 161.076 306.051 161.386 305.529C161.697 305.007 162.125 304.599 162.672 304.304C163.219 304.005 163.83 303.855 164.505 303.855C165.023 303.86 165.505 303.957 165.954 304.145C166.407 304.333 166.799 304.599 167.129 304.942H170.211V303.101H172.088V312.739ZM162.716 307.29C162.716 307.652 162.79 307.966 162.938 308.232C163.091 308.498 163.303 308.703 163.574 308.848C163.845 308.988 164.155 309.058 164.505 309.058C164.835 309.058 165.133 308.988 165.399 308.848C165.666 308.703 165.875 308.498 166.028 308.232C166.185 307.961 166.264 307.647 166.264 307.29C166.264 306.928 166.185 306.611 166.028 306.341C165.875 306.07 165.666 305.865 165.399 305.725C165.133 305.58 164.835 305.507 164.505 305.507C164.155 305.507 163.845 305.58 163.574 305.725C163.303 305.865 163.091 306.07 162.938 306.341C162.79 306.606 162.716 306.923 162.716 307.29ZM163.16 311.768H165.052V314.565H172.414V316.043H163.16V311.768ZM167.942 306.42C168.016 306.696 168.053 306.986 168.053 307.29C168.053 307.57 168.018 307.85 167.949 308.13H170.211V306.42H167.942Z" fill="#62B3B9"/>
<path d="M185.171 309.725H183.293V308.71H180.219V307.304H183.293V306.145H180.367C179.953 307.13 179.268 307.944 178.312 308.587C177.356 309.229 176.129 309.71 174.631 310.029L173.995 308.522C175.483 308.237 176.614 307.8 177.388 307.21C178.162 306.621 178.615 305.913 178.748 305.087H174.749V303.594H180.84C180.84 303.995 180.81 304.377 180.751 304.739H183.293V303.087H185.171V309.725ZM176.228 310.203H185.171V313.812H178.134V314.681H185.466V316.145H176.242V312.449H183.279V311.652H176.228V310.203Z" fill="#62B3B9"/>
<path d="M198.002 305.478C197.997 306.246 197.985 306.906 197.965 307.457C197.95 308.002 197.903 308.645 197.824 309.384C197.746 310.118 197.622 310.918 197.455 311.783L195.563 311.594C195.794 310.488 195.942 309.493 196.006 308.609C196.07 307.72 196.105 306.749 196.11 305.696H188.186V304.232H198.002V305.478ZM186.915 313.159H191.305V308.623H193.183V313.159H199.184V314.667H186.915V313.159Z" fill="#62B3B9"/>
<path d="M211.276 316.304H209.399V303.087H211.276V316.304ZM200.707 304.188H207.108V309.275H202.673V311.696C203.757 311.686 204.752 311.65 205.659 311.587C206.566 311.524 207.492 311.415 208.438 311.261L208.601 312.754C207.566 312.932 206.534 313.056 205.504 313.123C204.474 313.186 203.284 313.217 201.934 313.217H200.722V307.812H205.186V305.681H200.707V304.188Z" fill="#62B3B9"/>
<path d="M214.647 318H213.08L213.819 313.87H215.918L214.647 318Z" fill="#62B3B9"/>
<path d="M228.379 305.29H225.682C225.711 305.773 225.849 306.234 226.096 306.674C226.342 307.114 226.702 307.505 227.175 307.848C227.648 308.191 228.222 308.454 228.897 308.638L227.951 310.072C227.202 309.86 226.556 309.541 226.014 309.116C225.472 308.686 225.044 308.176 224.728 307.587C224.418 308.229 223.982 308.785 223.42 309.254C222.863 309.722 222.196 310.072 221.417 310.304L220.471 308.855C221.161 308.662 221.745 308.382 222.223 308.014C222.706 307.647 223.073 307.229 223.324 306.761C223.575 306.292 223.716 305.802 223.745 305.29H220.988V303.812H228.379V305.29ZM222.688 310.797H224.551V312.029H229.813V310.797H231.691V316.13H222.688V310.797ZM229.813 314.652V313.464H224.551V314.652H229.813ZM229.799 303.087H231.691V310.246H229.799V303.087Z" fill="#62B3B9"/>
<path d="M244.182 306.261H246V307.797H244.182V310.812H242.29V303.087H244.182V306.261ZM233.509 304.246H236.569V303H238.446V304.246H241.491V305.696H233.509V304.246ZM234.159 308.406C234.159 307.942 234.3 307.534 234.581 307.181C234.862 306.829 235.253 306.556 235.756 306.362C236.263 306.169 236.845 306.072 237.5 306.072C238.146 306.072 238.72 306.169 239.222 306.362C239.725 306.556 240.114 306.829 240.39 307.181C240.671 307.534 240.811 307.942 240.811 308.406C240.811 308.87 240.671 309.278 240.39 309.63C240.114 309.983 239.725 310.256 239.222 310.449C238.72 310.643 238.146 310.739 237.5 310.739C236.845 310.739 236.263 310.643 235.756 310.449C235.253 310.256 234.862 309.983 234.581 309.63C234.3 309.278 234.159 308.87 234.159 308.406ZM235.372 311.319H237.249V312.319H242.29V311.319H244.182V316.13H235.372V311.319ZM236.007 308.406C236.002 308.72 236.133 308.961 236.399 309.13C236.67 309.3 237.037 309.386 237.5 309.391C237.963 309.386 238.333 309.3 238.609 309.13C238.885 308.961 239.023 308.72 239.023 308.406C239.023 308.101 238.882 307.862 238.601 307.688C238.326 307.51 237.958 307.425 237.5 307.435C237.047 307.425 236.682 307.51 236.406 307.688C236.135 307.862 236.002 308.101 236.007 308.406ZM242.29 314.681V313.739H237.249V314.681H242.29Z" fill="#62B3B9"/>
<defs>
<linearGradient id="paint0_linear_2078_8934" x1="119.626" y1="220.124" x2="245.115" y2="94.634" gradientUnits="userSpaceOnUse">
<stop stop-color="#177DD7"/>
<stop offset="0.18" stop-color="#2D8CCE"/>
<stop offset="0.54" stop-color="#54A9BE"/>
<stop offset="0.82" stop-color="#6DBAB4"/>
<stop offset="1" stop-color="#76C1B1"/>
</linearGradient>
</defs>
</svg>
