<svg width="44" height="34" viewBox="0 0 44 34" fill="none" xmlns="http://www.w3.org/2000/svg">
<path d="M39.647 17.0533L40.1774 16.5229C43.3474 13.3529 43.3474 8.20997 40.1774 5.03996C37.0073 1.86995 31.8644 1.86995 28.6944 5.03996L28.5656 5.05979C23.2615 -0.244214 14.6611 -0.244214 9.35713 5.05979L4.4249 9.98954C4.4249 9.98954 0.798842 13.3876 4.4249 17.0136L4.43977 17.0285L3.90937 17.5589C0.739358 20.7289 0.739358 25.8718 3.90937 29.0418C7.07938 32.2118 12.2223 32.2118 15.3923 29.0418L15.5212 29.022C20.8252 34.326 29.4256 34.326 34.7296 29.022L39.6594 24.0922C39.6594 24.0922 43.2854 20.6942 39.6594 17.0682" fill="url(#paint0_linear_1567_11289)"/>
<path d="M4.33814 16.9318C0.712087 13.3058 4.33814 9.90775 4.33814 9.90775L9.26789 4.978C14.5719 -0.326001 23.1723 -0.326001 28.4763 4.978L28.6052 4.95818C31.7752 1.78816 36.9181 1.78816 40.0881 4.95818C43.2581 8.12819 43.2581 13.2711 40.0881 16.4411L31.3836 25.1456C28.2136 28.3156 23.0707 28.3156 19.9007 25.1456C16.7307 21.9756 16.7307 16.8327 19.9007 13.6627" stroke="white" stroke-width="2" stroke-linecap="round" stroke-linejoin="round"/>
<path d="M39.5726 16.9863C43.1986 20.6124 39.5726 24.0104 39.5726 24.0104L34.6428 28.9402C29.3388 34.2442 20.7384 34.2442 15.4344 28.9402L15.3055 28.96C12.1355 32.13 6.99259 32.13 3.82258 28.96C0.652566 25.79 0.652566 20.6471 3.82258 17.4771L12.5246 8.77009C15.6946 5.60008 20.8375 5.60008 24.0075 8.77009C27.1775 11.9401 27.1775 17.083 24.0075 20.253" stroke="white" stroke-width="2" stroke-linecap="round" stroke-linejoin="round"/>
<path d="M4.33814 16.9318C0.712087 13.3058 4.33814 9.90775 4.33814 9.90775L9.26789 4.978C14.5719 -0.326001 23.1723 -0.326001 28.4763 4.978L28.6052 4.95818C31.7752 1.78816 36.9181 1.78816 40.0881 4.95818C43.2581 8.12819 43.2581 13.2711 40.0881 16.4411L31.3836 25.1456C28.2136 28.3156 23.0707 28.3156 19.9007 25.1456C16.7307 21.9756 16.7307 16.8327 19.9007 13.6627" stroke="white" stroke-width="2" stroke-linecap="round" stroke-linejoin="round"/>
<path d="M39.5726 16.9863C43.1986 20.6124 39.5726 24.0104 39.5726 24.0104L34.6428 28.9402C29.3388 34.2442 20.7384 34.2442 15.4344 28.9402L15.3055 28.96C12.1355 32.13 6.99259 32.13 3.82258 28.96C0.652566 25.79 0.652566 20.6471 3.82258 17.4771L12.5246 8.77009C15.6946 5.60008 20.8375 5.60008 24.0075 8.77009C27.1775 11.9401 27.1775 17.083 24.0075 20.253" stroke="white" stroke-width="2" stroke-linecap="round" stroke-linejoin="round"/>
<defs>
<linearGradient id="paint0_linear_1567_11289" x1="6.97776" y1="32.1077" x2="37.1114" y2="1.97405" gradientUnits="userSpaceOnUse">
<stop stop-color="#177DD7"/>
<stop offset="0.18" stop-color="#2D8CCE"/>
<stop offset="0.54" stop-color="#54A9BE"/>
<stop offset="0.82" stop-color="#6DBAB4"/>
<stop offset="1" stop-color="#76C1B1"/>
</linearGradient>
</defs>
</svg>
