<svg width="89" height="88" viewBox="0 0 89 88" fill="none" xmlns="http://www.w3.org/2000/svg">
<path d="M11.125 44C11.125 25.7746 25.8996 11 44.125 11H44.875C63.1004 11 77.875 25.7746 77.875 44C77.875 62.2254 63.1004 77 44.875 77H44.125C25.8996 77 11.125 62.2254 11.125 44Z" fill="#2A4157" fill-opacity="0.24"/>
<ellipse cx="44.5001" cy="36.6667" rx="14.8333" ry="14.6667" fill="#222222"/>
<path fill-rule="evenodd" clip-rule="evenodd" d="M69.9731 72.743C69.9951 72.8379 69.959 72.9371 69.8811 72.9956C69.1722 73.5276 68.4263 74.0138 67.6476 74.4499C63.0941 77 57.0211 77 44.8752 77H44.1252C31.9792 77 25.9062 77 21.3527 74.4499C20.5741 74.0139 19.8284 73.5278 19.1196 72.9959C19.0417 72.9374 19.0056 72.8382 19.0276 72.7433C21.367 62.6301 31.8823 55 44.5004 55C57.1184 55 67.6336 62.63 69.9731 72.743Z" fill="#222222"/>
</svg>
