<svg width="46" height="46" viewBox="0 0 46 46" fill="none" xmlns="http://www.w3.org/2000/svg">
<rect width="46" height="46" rx="23" fill="#62B3B9"/>
<path fill-rule="evenodd" clip-rule="evenodd" d="M22.569 8.78906C23.0456 8.78906 23.5026 8.97838 23.8396 9.31536C24.1766 9.65233 24.3659 10.1094 24.3659 10.5859V20.7682H34.5482C35.0247 20.7682 35.4818 20.9575 35.8187 21.2945C36.1558 21.6315 36.3451 22.0886 36.3451 22.5651C36.3451 23.0417 36.1558 23.4987 35.8187 23.8357C35.4818 24.1727 35.0247 24.362 34.5482 24.362H24.3659V34.5443C24.3659 35.0208 24.1766 35.4779 23.8396 35.8148C23.5026 36.1519 23.0456 36.3411 22.569 36.3411C22.0925 36.3411 21.6354 36.1519 21.2984 35.8148C20.9615 35.4779 20.7721 35.0208 20.7721 34.5443V24.362H10.5898C10.1133 24.362 9.65624 24.1727 9.31926 23.8357C8.98229 23.4987 8.79297 23.0417 8.79297 22.5651C8.79297 22.0886 8.98229 21.6315 9.31926 21.2945C9.65624 20.9575 10.1133 20.7682 10.5898 20.7682H20.7721V10.5859C20.7721 10.1094 20.9615 9.65233 21.2984 9.31536C21.6354 8.97838 22.0925 8.78906 22.569 8.78906Z" fill="white"/>
</svg>
