<svg width="16" height="14" viewBox="0 0 16 14" fill="none" xmlns="http://www.w3.org/2000/svg">
<path fill-rule="evenodd" clip-rule="evenodd" d="M10.8182 1.16663C11.1696 1.16663 11.4545 1.42779 11.4545 1.74996V2.33329H12.0909C13.1452 2.33329 14 3.11679 14 4.08329V11.0833C14 12.0498 13.1452 12.8333 12.0909 12.8333H3.1818C2.12743 12.8333 1.27271 12.0498 1.27271 11.0833V4.08329C1.27271 3.11679 2.12743 2.33329 3.1818 2.33329H3.81816V1.74996C3.81816 1.42779 4.10307 1.16663 4.45452 1.16663C4.80598 1.16663 5.09089 1.42779 5.09089 1.74996V2.33329H10.1818V1.74996C10.1818 1.42779 10.4667 1.16663 10.8182 1.16663ZM2.54543 6.99996V11.0833C2.54543 11.4055 2.83034 11.6666 3.1818 11.6666H12.0909C12.4423 11.6666 12.7273 11.4055 12.7273 11.0833V6.99996H2.54543ZM2.54543 5.83329H12.7273V4.08329C12.7273 3.76113 12.4423 3.49996 12.0909 3.49996H11.4545V4.08329C11.4545 4.40546 11.1696 4.66663 10.8182 4.66663C10.4667 4.66663 10.1818 4.40546 10.1818 4.08329V3.49996H5.09089V4.08329C5.09089 4.40546 4.80598 4.66663 4.45452 4.66663C4.10307 4.66663 3.81816 4.40546 3.81816 4.08329V3.49996H3.1818C2.83034 3.49996 2.54543 3.76113 2.54543 4.08329V5.83329Z" fill="#4F4C4C"/>
</svg>
