<svg width="36" height="36" viewBox="0 0 36 36" fill="none" xmlns="http://www.w3.org/2000/svg">
<circle cx="18" cy="18" r="18" fill="white" fill-opacity="0.8"/>
<path d="M17.8941 22.335C20.2281 22.335 22.1201 20.4429 22.1201 18.1089C22.1201 15.7749 20.2281 13.8828 17.8941 13.8828C15.5601 13.8828 13.668 15.7749 13.668 18.1089C13.668 20.4429 15.5601 22.335 17.8941 22.335Z" fill="#4F4C4C"/>
<path d="M14.0896 5.42969L11.7695 7.93404H7.7505C6.35589 7.93404 5.21484 9.06099 5.21484 10.4384V25.4645C5.21484 26.8419 6.35589 27.9688 7.7505 27.9688H28.0357C29.4303 27.9688 30.5714 26.8419 30.5714 25.4645V10.4384C30.5714 9.06099 29.4303 7.93404 28.0357 7.93404H24.0167L21.6966 5.42969H14.0896ZM17.8931 24.2123C14.3939 24.2123 11.554 21.4074 11.554 17.9514C11.554 14.4954 14.3939 11.6906 17.8931 11.6906C21.3923 11.6906 24.2322 14.4954 24.2322 17.9514C24.2322 21.4074 21.3923 24.2123 17.8931 24.2123Z" fill="#4F4C4C"/>
</svg>
