<svg width="24" height="24" viewBox="0 0 24 24" fill="none" xmlns="http://www.w3.org/2000/svg">
<path d="M6.16667 2C5.0616 2 4.00179 2.43899 3.22039 3.22039C2.43899 4.00179 2 5.0616 2 6.16667V17.8333C2 18.9384 2.43899 19.9982 3.22039 20.7796C4.00179 21.561 5.0616 22 6.16667 22H17.8333C18.9384 22 19.9982 21.561 20.7796 20.7796C21.561 19.9982 22 18.9384 22 17.8333V6.16667C22 5.0616 21.561 4.00179 20.7796 3.22039C19.9982 2.43899 18.9384 2 17.8333 2H6.16667ZM3.66667 6.16667C3.66667 5.50363 3.93006 4.86774 4.3989 4.3989C4.86774 3.93006 5.50363 3.66667 6.16667 3.66667H17.8333C18.4964 3.66667 19.1323 3.93006 19.6011 4.3989C20.0699 4.86774 20.3333 5.50363 20.3333 6.16667V17.8333C20.3333 18.4964 20.0699 19.1323 19.6011 19.6011C19.1323 20.0699 18.4964 20.3333 17.8333 20.3333H6.16667C5.50363 20.3333 4.86774 20.0699 4.3989 19.6011C3.93006 19.1323 3.66667 18.4964 3.66667 17.8333V6.16667ZM16.7567 10.09C16.9131 9.93352 17.0011 9.72129 17.0011 9.5C17.0011 9.27871 16.9131 9.06648 16.7567 8.91C16.6002 8.75352 16.388 8.66561 16.1667 8.66561C15.9454 8.66561 15.7331 8.75352 15.5767 8.91L10.3333 14.155L8.42333 12.2433C8.26686 12.0869 8.05463 11.9989 7.83333 11.9989C7.61204 11.9989 7.39981 12.0869 7.24333 12.2433C7.08686 12.3998 6.99895 12.612 6.99895 12.8333C6.99895 13.0546 7.08686 13.2669 7.24333 13.4233L9.74333 15.9233C9.82074 16.0009 9.9127 16.0625 10.0139 16.1045C10.1152 16.1465 10.2237 16.1682 10.3333 16.1682C10.4429 16.1682 10.5515 16.1465 10.6527 16.1045C10.754 16.0625 10.8459 16.0009 10.9233 15.9233L16.7567 10.09Z" fill="#4F4C4C"/>
</svg>
