<svg width="20" height="20" viewBox="0 0 20 20" fill="none" xmlns="http://www.w3.org/2000/svg">
<path d="M18.9608 1.03849C18.2695 0.34717 17.3608 0 16.4521 0C15.5435 0 14.6378 0.34717 13.9435 1.03849L1.52108 13.4611C1.0109 13.9713 0.678832 14.6325 0.579211 15.3479L0.00563626 19.357C-0.0426648 19.7011 0.22601 20 0.561099 20C0.588268 20 0.615437 19.997 0.642606 19.994L4.65159 19.4204C5.36705 19.3177 6.02817 18.9887 6.53835 18.4785L18.9608 6.05585C20.3464 4.67019 20.3464 2.42415 18.9608 1.03849ZM3.03049 13.7751L13.545 3.26038L16.7359 6.45434L6.22439 16.9691L3.03049 13.7751ZM4.47046 18.1434L1.41844 18.5781L1.85315 15.526C1.89541 15.2392 1.99805 14.9615 2.15201 14.72L5.27347 17.8415C5.03196 17.9985 4.75725 18.1042 4.47046 18.1434ZM18.0491 5.14113L17.6476 5.54264L14.4567 2.34868L14.8582 1.94717C15.2839 1.52151 15.8514 1.28604 16.4552 1.28604C17.0589 1.28604 17.6265 1.52151 18.0521 1.94717C18.9306 2.82868 18.9306 4.26264 18.0491 5.14113Z" fill="#4F4C4C"/>
</svg>
