<svg width="31" height="28" viewBox="0 0 31 28" fill="none" xmlns="http://www.w3.org/2000/svg">
<path d="M15.5 0C18.3033 0 20.8947 0.516797 23.2742 1.54512C25.6537 2.57344 27.5367 3.9709 28.9232 5.74277C30.3098 7.50937 31 9.43945 31 11.533C31 13.6213 30.3098 15.5566 28.9232 17.3285C27.5367 19.1004 25.6598 20.5031 23.2863 21.5314C20.9129 22.5598 18.3154 23.0766 15.5 23.0766C14.61 23.0766 13.6957 23.0186 12.7512 22.8973C8.64609 25.5867 6.46035 26.9473 6.19395 26.9789C6.0668 27.0211 5.9457 27.0158 5.83066 26.9631C5.78223 26.9314 5.75195 26.8893 5.72773 26.8312C5.70352 26.7785 5.69141 26.7258 5.69141 26.6836V26.6203C5.75801 26.1932 6.28477 24.4266 7.26562 21.3152C5.0375 20.2711 3.26953 18.8842 1.96172 17.1598C0.653906 15.4248 0 13.5527 0 11.5277C0 9.43945 0.690234 7.50937 2.07676 5.7375C3.46328 3.9709 5.34629 2.56816 7.72578 1.53984C10.1053 0.516797 12.6967 0 15.5 0Z" fill="black"/>
</svg>
