<svg width="20" height="20" viewBox="0 0 20 20" fill="none" xmlns="http://www.w3.org/2000/svg">
<rect width="20" height="20" fill="white"/>
<path d="M15 7.23023C15 8.6175 14.4732 9.94795 13.5355 10.9289C12.5979 11.9098 11.3261 12.4609 10 12.4609C8.67392 12.4609 7.40215 11.9098 6.46447 10.9289C5.52678 9.94795 5 8.6175 5 7.23023L7.5 7.23023C7.5 7.92387 7.76339 8.58909 8.23223 9.07956C8.70107 9.57004 9.33696 9.84558 10 9.84558C10.663 9.84558 11.2989 9.57004 11.7678 9.07956C12.2366 8.58909 12.5 7.92386 12.5 7.23023H15Z" fill="#4F4C4C"/>
<path d="M15 7.23071C15 5.84344 14.4732 4.51299 13.5355 3.53204C12.5979 2.55109 11.3261 2 10 2C8.67392 2 7.40215 2.55109 6.46447 3.53204C5.52678 4.51299 5 5.84344 5 7.23071L7.5 7.23071C7.5 6.53707 7.76339 5.87185 8.23223 5.38137C8.70107 4.8909 9.33696 4.61535 10 4.61535C10.663 4.61535 11.2989 4.8909 11.7678 5.38137C12.2366 5.87185 12.5 6.53707 12.5 7.23071H15Z" fill="#4F4C4C"/>
<path d="M10 18.9975L5.625 9.84375H14.375L10 18.9975Z" fill="#4F4C4C"/>
</svg>
