<svg width="24" height="24" viewBox="0 0 24 24" fill="none" xmlns="http://www.w3.org/2000/svg">
<path d="M16.1385 2.0742C15.3231 2.22028 14.5023 2.58592 13.8445 3.0862C13.3607 3.45734 9.16094 7.6798 9.01464 7.94402L8.90771 8.1352L9.0989 8.10154C9.86362 7.96668 10.7687 8.01156 11.6458 8.2364L12.09 8.34882L13.7825 6.6678C15.278 5.17774 15.5143 4.96412 15.8404 4.81232C16.9705 4.28938 18.1288 4.47506 19.0451 5.34076C19.7704 6.02672 20.0177 6.57782 20.0177 7.49984C20.0177 8.15765 19.9165 8.54 19.6072 9.01234C19.5172 9.15292 18.4771 10.2325 17.2906 11.4132C15.2666 13.4205 15.1146 13.5611 14.7437 13.7296C14.0632 14.0332 13.4787 14.0726 12.7476 13.8702C12.3259 13.7577 12.0841 13.6227 11.6962 13.2966C11.1451 12.8412 10.8585 12.7455 10.3749 12.8467C9.95887 12.9367 9.52592 13.3697 9.43594 13.7857C9.32902 14.3029 9.4696 14.674 9.95316 15.1294C11.027 16.1472 12.6352 16.6756 14.1307 16.4956C15.1203 16.3775 16.0256 16.0121 16.7958 15.433C17.3416 15.0172 21.345 10.969 21.6316 10.5418C21.9746 10.0301 22.2839 9.33288 22.43 8.75934C22.6043 8.06216 22.6043 6.83654 22.4243 6.17852C21.9465 4.39608 20.5182 2.86686 18.7754 2.26516C18.0107 2.00116 16.9536 1.9279 16.1385 2.0742Z" fill="#4F4C4C"/>
<path d="M9.31817 9.07439C8.54795 9.18109 7.68753 9.51857 6.98485 9.99091C6.57433 10.2663 2.52061 14.2864 2.09315 14.8375C0.845094 16.4679 0.648194 18.6552 1.59287 20.5161C2.28455 21.8768 3.67319 23.0013 5.14631 23.3948C5.89981 23.5972 7.02423 23.6085 7.76651 23.423C8.34005 23.2767 9.03723 22.9676 9.54895 22.6246C10.2013 22.1862 14.7555 17.5868 14.6431 17.4744C14.6318 17.4632 14.3901 17.4801 14.1032 17.5138C13.4848 17.5868 12.6246 17.5138 11.9441 17.3338L11.4999 17.2102L9.83561 18.8688C8.87421 19.8247 8.05889 20.5892 7.91259 20.6737C7.44025 20.9379 7.08605 21.0224 6.47885 21.0166C5.57927 21.0054 5.02267 20.7524 4.34793 20.0383C3.48773 19.1218 3.29655 17.9692 3.81949 16.8336C3.97701 16.5018 4.20735 16.2488 6.15853 14.2921C8.04195 12.4028 8.37921 12.0879 8.71097 11.9137C9.41937 11.5371 10.201 11.4695 10.9149 11.717C11.3422 11.8631 11.5221 11.9643 11.8876 12.2736C12.4384 12.729 12.7253 12.8247 13.2089 12.7235C13.6249 12.6335 14.0579 12.2006 14.1478 11.7846C14.2548 11.2673 14.1142 10.8962 13.6306 10.4408C13.2707 10.0978 12.6523 9.68731 12.1969 9.48491C11.4042 9.13621 10.1672 8.95625 9.31817 9.07439Z" fill="#4F4C4C"/>
</svg>
