<svg width="20" height="21" viewBox="0 0 20 21" fill="none" xmlns="http://www.w3.org/2000/svg">
<path fill-rule="evenodd" clip-rule="evenodd" d="M14.1667 1.74603C14.627 1.74603 15.0001 2.1369 15.0001 2.61905V3.49206H15.8334C17.2141 3.49206 18.3334 4.66465 18.3334 6.11111V16.5873C18.3334 18.0338 17.2141 19.2064 15.8334 19.2064H4.16675C2.78604 19.2064 1.66675 18.0338 1.66675 16.5873V6.11111C1.66675 4.66465 2.78604 3.49206 4.16675 3.49206H5.00008V2.61905C5.00008 2.1369 5.37318 1.74603 5.83341 1.74603C6.29365 1.74603 6.66675 2.1369 6.66675 2.61905V3.49206H13.3334V2.61905C13.3334 2.1369 13.7065 1.74603 14.1667 1.74603ZM3.33341 10.4762V16.5873C3.33341 17.0695 3.70651 17.4603 4.16675 17.4603H15.8334C16.2937 17.4603 16.6667 17.0695 16.6667 16.5873V10.4762H3.33341ZM3.33341 8.73016H16.6667V6.11111C16.6667 5.62896 16.2937 5.2381 15.8334 5.2381H15.0001V6.11111C15.0001 6.59327 14.627 6.98413 14.1667 6.98413C13.7065 6.98413 13.3334 6.59327 13.3334 6.11111V5.2381H6.66675V6.11111C6.66675 6.59327 6.29365 6.98413 5.83341 6.98413C5.37318 6.98413 5.00008 6.59327 5.00008 6.11111V5.2381H4.16675C3.70651 5.2381 3.33341 5.62896 3.33341 6.11111V8.73016Z" fill="#4F4C4C"/>
</svg>
