<svg width="20" height="20" viewBox="0 0 20 20" fill="none" xmlns="http://www.w3.org/2000/svg">
<path fill-rule="evenodd" clip-rule="evenodd" d="M14.168 1.66406C14.6282 1.66406 15.0013 2.03716 15.0013 2.4974V3.33073H15.8346C17.2153 3.33073 18.3346 4.45002 18.3346 5.83073V15.8307C18.3346 17.2114 17.2153 18.3307 15.8346 18.3307H4.16797C2.78726 18.3307 1.66797 17.2114 1.66797 15.8307V5.83073C1.66797 4.45002 2.78726 3.33073 4.16797 3.33073H5.0013V2.4974C5.0013 2.03716 5.3744 1.66406 5.83464 1.66406C6.29487 1.66406 6.66797 2.03716 6.66797 2.4974V3.33073H13.3346V2.4974C13.3346 2.03716 13.7077 1.66406 14.168 1.66406ZM3.33464 9.9974V15.8307C3.33464 16.291 3.70773 16.6641 4.16797 16.6641H15.8346C16.2949 16.6641 16.668 16.291 16.668 15.8307V9.9974H3.33464ZM3.33464 8.33073H16.668V5.83073C16.668 5.37049 16.2949 4.9974 15.8346 4.9974H15.0013V5.83073C15.0013 6.29097 14.6282 6.66406 14.168 6.66406C13.7077 6.66406 13.3346 6.29097 13.3346 5.83073V4.9974H6.66797V5.83073C6.66797 6.29097 6.29487 6.66406 5.83464 6.66406C5.3744 6.66406 5.0013 6.29097 5.0013 5.83073V4.9974H4.16797C3.70773 4.9974 3.33464 5.37049 3.33464 5.83073V8.33073Z" fill="#4F4C4C"/>
</svg>
