<svg width="16" height="16" viewBox="0 0 16 16" fill="none" xmlns="http://www.w3.org/2000/svg">
<path fill-rule="evenodd" clip-rule="evenodd" d="M13.7799 4.22032C13.9203 4.36094 13.9992 4.55157 13.9992 4.75032C13.9992 4.94907 13.9203 5.13969 13.7799 5.28032L6.52985 12.5303C6.38922 12.6707 6.1986 12.7496 5.99985 12.7496C5.8011 12.7496 5.61047 12.6707 5.46985 12.5303L2.21985 9.28032C2.08737 9.13814 2.01525 8.9501 2.01867 8.75579C2.0221 8.56149 2.10081 8.37611 2.23823 8.23869C2.37564 8.10128 2.56103 8.02257 2.75533 8.01914C2.94963 8.01571 3.13767 8.08784 3.27985 8.22032L5.99985 10.9403L12.7199 4.22032C12.8605 4.07987 13.0511 4.00098 13.2499 4.00098C13.4486 4.00098 13.6393 4.07987 13.7799 4.22032Z" fill="#4F4C4C"/>
</svg>
