<?xml version="1.0" encoding="UTF-8"?><svg id="Layer_2" xmlns="http://www.w3.org/2000/svg" viewBox="0 0 3000 2039.82"><defs><style>.cls-1{fill:#e7b835;}.cls-2{fill:none;stroke:#e0882a;stroke-linecap:round;stroke-miterlimit:10;stroke-width:86px;}.cls-3{fill:#3a2908;}.cls-4{fill:#f9c831;}</style></defs><g id="Layer_2-2"><path class="cls-1" d="m2550.21,1106.62c-145.39-40.54-210.91-182.05-239.17-323.93-26.66-133.85-172.13-206.53-295.27-147.69-130.83,62.51-304.67,116.22-515.77,116.22v-.51c-211.1,0-384.94-53.71-515.77-116.22-123.14-58.83-268.61,13.84-295.27,147.69-19.49,97.86-56.7,195.53-125.62,260.03-61.66,57.71-81.77,147.28-51.7,226.19l204.5,536.57c30.87,80.99,108.53,134.5,195.2,134.5h592.7s588.66,0,588.66,0c86.67,0,164.33-53.52,195.2-134.5l266.36-698.86"/><path class="cls-4" d="m483.68,1010.22c256.99,91.86,626.83,86.14,894.6-495.05,47.87-103.89,195.58-103.89,243.44,0,267.76,581.19,637.61,586.92,894.6,495.05,107.34-38.37,210.42,66.65,170.38,173.38l-287.69,766.94c-19.62,52.31-69.63,86.97-125.5,86.97h-773.5s-773.5,0-773.5,0c-55.87,0-105.88-34.65-125.5-86.97l-287.69-766.94c-40.04-106.73,63.04-211.75,170.38-173.38Z"/><path class="cls-1" d="m2495.1,1696.67l-96.1,256.18c-19.62,52.31-69.63,86.97-125.5,86.97h-773.5s-773.5,0-773.5,0c-55.87,0-105.88-34.65-125.5-86.97l-96.96-258.49"/><circle class="cls-4" cx="183.53" cy="837.66" r="183.53"/><circle class="cls-4" cx="2816.47" cy="837.66" r="183.53"/><circle class="cls-4" cx="1500" cy="183.53" r="183.53"/><g><circle class="cls-4" cx="703.4" cy="443.5" r="157.97"/><circle class="cls-4" cx="2296.6" cy="443.5" r="157.97"/></g><g><rect class="cls-3" x="976.4" y="1236.92" width="90.85" height="181.7" rx="45.42" ry="45.42"/><rect class="cls-3" x="1932.75" y="1236.92" width="90.85" height="181.7" rx="45.42" ry="45.42"/></g><path class="cls-2" d="m1626.1,1356.67c-29.13,37.69-74.78,61.95-126.1,61.95s-96.97-24.27-126.1-61.95"/></g></svg>