<svg width="29" height="29" viewBox="0 0 29 29" fill="none" xmlns="http://www.w3.org/2000/svg">
<path fill-rule="evenodd" clip-rule="evenodd" d="M14.5677 0.791748C15.0443 0.791748 15.5013 0.981067 15.8383 1.31804C16.1753 1.65501 16.3646 2.11207 16.3646 2.58862V12.7709H26.5469C27.0234 12.7709 27.4805 12.9602 27.8174 13.2972C28.1545 13.6342 28.3438 14.0912 28.3438 14.5678C28.3438 15.0443 28.1545 15.5014 27.8174 15.8384C27.4805 16.1753 27.0234 16.3647 26.5469 16.3647H16.3646V26.547C16.3646 27.0235 16.1753 27.4806 15.8383 27.8175C15.5013 28.1546 15.0443 28.3438 14.5677 28.3438C14.0912 28.3438 13.6341 28.1546 13.2971 27.8175C12.9602 27.4806 12.7708 27.0235 12.7708 26.547V16.3647H2.58855C2.11199 16.3647 1.65494 16.1753 1.31796 15.8384C0.980991 15.5014 0.791672 15.0443 0.791672 14.5678C0.791672 14.0912 0.980991 13.6342 1.31796 13.2972C1.65494 12.9602 2.11199 12.7709 2.58855 12.7709H12.7708V2.58862C12.7708 2.11207 12.9602 1.65501 13.2971 1.31804C13.6341 0.981067 14.0912 0.791748 14.5677 0.791748Z" fill="#4F4C4C"/>
</svg>
