<svg width="7" height="12" viewBox="0 0 7 12" fill="none" xmlns="http://www.w3.org/2000/svg">
<path d="M7 3.69055C7 4.6698 6.63125 5.60894 5.97487 6.30137C5.3185 6.99381 4.42826 7.38281 3.5 7.38281C2.57174 7.38281 1.6815 6.99381 1.02513 6.30137C0.368749 5.60894 1.40163e-07 4.6698 0 3.69055L1.75 3.69055C1.75 4.18017 1.93437 4.64974 2.26256 4.99596C2.59075 5.34218 3.03587 5.53668 3.5 5.53668C3.96413 5.53668 4.40925 5.34218 4.73744 4.99596C5.06563 4.64974 5.25 4.18017 5.25 3.69055H7Z" fill="#4F4C4C"/>
<path d="M7 3.69226C7 2.71302 6.63125 1.77387 5.97487 1.08144C5.3185 0.389005 4.42826 7.39313e-08 3.5 0C2.57174 -7.39313e-08 1.6815 0.389005 1.02513 1.08144C0.368749 1.77387 1.40163e-07 2.71301 0 3.69226L1.75 3.69226C1.75 3.20264 1.93437 2.73307 2.26256 2.38685C2.59075 2.04063 3.03587 1.84613 3.5 1.84613C3.96413 1.84613 4.40925 2.04063 4.73744 2.38685C5.06563 2.73307 5.25 3.20264 5.25 3.69226H7Z" fill="#4F4C4C"/>
<path d="M3.5 12.0005L0.4375 5.53906H6.5625L3.5 12.0005Z" fill="#4F4C4C"/>
</svg>
