<svg width="24" height="24" viewBox="0 0 24 24" fill="none" xmlns="http://www.w3.org/2000/svg">
<path d="M11.78 2C5.8356 2 1 5.9666 1 10.8484C1 13.1474 2.1088 15.3716 4.0624 17.0172C3.6202 18.0182 3.0284 18.9708 2.3002 19.8354C2.1308 20.04 2.0934 20.3194 2.2056 20.5592C2.3178 20.799 2.5576 20.9486 2.8216 20.9486C4.7708 20.9486 6.4186 20.4734 8.2908 19.3712C9.1994 19.5142 10.9924 19.6946 11.78 19.6946C17.7244 19.6946 22.56 15.7236 22.56 10.844C22.56 5.9688 17.7244 2 11.78 2ZM11.78 18.3416C11.0012 18.3416 8.9728 18.1326 8.2864 17.9984C8.1214 17.9698 7.9476 17.9984 7.8046 18.0842C6.5396 18.8564 5.4352 19.3008 4.2538 19.4878C4.762 18.7156 5.1866 17.9016 5.5166 17.0524C5.6266 16.7686 5.5364 16.4474 5.2944 16.2648C3.4002 14.8282 2.3574 12.9032 2.3574 10.8462C2.3574 6.7146 6.5836 3.3552 11.78 3.3552C16.9764 3.3552 21.2026 6.7168 21.2026 10.8462C21.2026 14.98 16.9764 18.3416 11.78 18.3416Z" fill="#4F4C4C"/>
</svg>
