<svg width="14" height="20" viewBox="0 0 14 20" fill="none" xmlns="http://www.w3.org/2000/svg">
<path fill-rule="evenodd" clip-rule="evenodd" d="M7.68393 0.270261C7.27164 -0.117806 6.60488 -0.0879549 6.23174 0.359816L1.23174 6.35982L1.1639 6.4506C0.731864 7.099 1.19066 8 1.99996 8H12L12.1131 7.994C12.8878 7.9108 13.2863 6.98154 12.7682 6.35982L7.76818 0.359816L7.68393 0.270261ZM12.836 13.5494C13.2681 12.901 12.8093 12 12 12H1.99996L1.88679 12.006C1.11209 12.0892 0.713636 13.0185 1.23174 13.6402L6.23174 19.6402L6.31599 19.7297C6.72828 20.1178 7.39504 20.088 7.76818 19.6402L12.7682 13.6402L12.836 13.5494Z" fill="#A5A5A5"/>
</svg>
