<svg width="24" height="24" viewBox="0 0 24 24" fill="none" xmlns="http://www.w3.org/2000/svg">
<path d="M13.1001 8C13.1001 10.7614 10.8615 13 8.10009 13C5.33867 13 3.10009 10.7614 3.10009 8C3.10009 5.23858 5.33867 3 8.10009 3C10.8615 3 13.1001 5.23858 13.1001 8Z" fill="#4F4C4C"/>
<path d="M0.68103 18.1803C1.51516 15.735 4.03333 14.5 6.61694 14.5H9L10 15.5C10 15.5 10 15.5 10 15.5C10 15.5 12.7571 18.2571 14.7471 21.5686C14.8618 21.7596 14.7228 22 14.5 22V22H14H1C0.447716 22 -0.00418628 21.5509 0.0502614 21.0013C0.150135 19.9932 0.389302 19.0355 0.68103 18.1803Z" fill="#4F4C4C"/>
<path fill-rule="evenodd" clip-rule="evenodd" d="M22 14.5C22 17.5376 19.5376 20 16.5 20C13.4624 20 11 17.5376 11 14.5C11 11.4624 13.4624 9 16.5 9C18.3828 9 20.0446 9.94607 21.0361 11.3888C20.6792 11.2968 20.2849 11.4064 20.0281 11.7044L17.7204 14.383L16.0518 16.3198L13.9223 14.5621C13.4963 14.2105 12.8661 14.2708 12.5145 14.6968C12.1629 15.1227 12.2232 15.753 12.6491 16.1046L15.5338 18.4855C15.9534 18.8318 16.5728 18.7792 16.9279 18.367L19.2356 15.6884L21.5433 13.0099C21.6155 12.926 21.6714 12.8336 21.7112 12.7366C21.8985 13.2901 22 13.8832 22 14.5ZM24 14.5C24 18.6421 20.6421 22 16.5 22C12.3579 22 9 18.6421 9 14.5C9 10.3579 12.3579 7 16.5 7C20.6421 7 24 10.3579 24 14.5Z" fill="#81D051"/>
</svg>
