<svg width="24" height="24" viewBox="0 0 24 24" fill="none" xmlns="http://www.w3.org/2000/svg">
<path d="M12 0C5.38327 0 0 5.38327 0 12C0 18.6167 5.38327 24 12 24C18.6167 24 24 18.6167 24 12C24 5.38327 18.6167 0 12 0ZM9.10269 6.73962C9.83365 5.96481 10.8623 5.53846 12 5.53846C13.1377 5.53846 14.1571 5.96769 14.891 6.74654C15.6346 7.53577 15.9963 8.59615 15.911 9.73615C15.7402 12 13.9863 13.25 12 13.25C10.0137 13.25 8.25635 12 8.08904 9.73558C8.00423 8.58635 8.36538 7.5225 9.10269 6.73962ZM12 22.1538C10.6445 22.1547 9.30262 21.8834 8.05394 21.356C6.80525 20.8286 5.67519 20.0558 4.73077 19.0835C5.27167 18.3121 5.96086 17.6562 6.75808 17.1542C8.22865 16.2115 10.0898 15.6923 12 15.6923C13.9102 15.6923 15.7713 16.2115 17.2402 17.1542C18.0381 17.656 18.7279 18.3119 19.2692 19.0835C18.3249 20.0559 17.1948 20.8288 15.9461 21.3562C14.6974 21.8836 13.3555 22.1549 12 22.1538Z" fill="#4F4C4C"/>
</svg>
