<svg width="305" height="56" viewBox="0 0 305 56" fill="none" xmlns="http://www.w3.org/2000/svg">
<rect width="305" height="55.007" rx="5" fill="#FEE500"/>
<path d="M85.5 14C88.3033 14 90.8947 14.5168 93.2742 15.5451C95.6537 16.5734 97.5367 17.9709 98.9232 19.7428C100.31 21.5094 101 23.4395 101 25.533C101 27.6213 100.31 29.5566 98.9232 31.3285C97.5367 33.1004 95.6598 34.5031 93.2863 35.5314C90.9129 36.5598 88.3154 37.0766 85.5 37.0766C84.61 37.0766 83.6957 37.0186 82.7512 36.8973C78.6461 39.5867 76.4604 40.9473 76.1939 40.9789C76.0668 41.0211 75.9457 41.0158 75.8307 40.9631C75.7822 40.9314 75.752 40.8893 75.7277 40.8312C75.7035 40.7785 75.6914 40.7258 75.6914 40.6836V40.6203C75.758 40.1932 76.2848 38.4266 77.2656 35.3152C75.0375 34.2711 73.2695 32.8842 71.9617 31.1598C70.6539 29.4248 70 27.5527 70 25.5277C70 23.4395 70.6902 21.5094 72.0768 19.7375C73.4633 17.9709 75.3463 16.5682 77.7258 15.5398C80.1053 14.5168 82.6967 14 85.5 14Z" fill="black"/>
<path d="M128.188 21.5781C128.182 23.1875 128.005 24.6198 127.656 25.875C127.312 27.1302 126.674 28.2995 125.742 29.3828C124.81 30.4661 123.495 31.4323 121.797 32.2812L120.703 30.7812C121.87 30.2031 122.823 29.5807 123.562 28.9141C124.307 28.2422 124.885 27.5052 125.297 26.7031L121.094 27.0938L120.844 25.3906L125.898 25.0859C126.049 24.4714 126.148 23.8333 126.195 23.1719H121.594V21.5781H128.188ZM129.984 20.2188H131.984V25.6719H134V27.3125H131.984V34.4062H129.984V20.2188ZM142.016 21.5781C142.01 23.1875 141.833 24.6198 141.484 25.875C141.141 27.1302 140.503 28.2995 139.57 29.3828C138.638 30.4661 137.323 31.4323 135.625 32.2812L134.531 30.7812C135.698 30.2031 136.651 29.5807 137.391 28.9141C138.135 28.2422 138.714 27.5052 139.125 26.7031L134.922 27.0938L134.672 25.3906L139.727 25.0859C139.878 24.4714 139.977 23.8333 140.023 23.1719H135.422V21.5781H142.016ZM143.812 20.2188H145.812V25.6719H147.828V27.3125H145.812V34.4062H143.812V20.2188ZM154.906 20.9531C155.922 20.9531 156.836 21.1146 157.648 21.4375C158.461 21.7604 159.099 22.2188 159.562 22.8125C160.031 23.401 160.266 24.0781 160.266 24.8438C160.266 25.5469 160.078 26.1745 159.703 26.7266C159.333 27.2734 158.818 27.7188 158.156 28.0625C157.5 28.401 156.745 28.6172 155.891 28.7109V31.1406H161.438V32.7812H148.422V31.1406H153.906V28.7109C153.057 28.612 152.305 28.3932 151.648 28.0547C150.992 27.7109 150.479 27.2656 150.109 26.7188C149.745 26.1667 149.562 25.5417 149.562 24.8438C149.562 24.0781 149.794 23.401 150.258 22.8125C150.721 22.2188 151.357 21.7604 152.164 21.4375C152.977 21.1146 153.891 20.9531 154.906 20.9531ZM151.531 24.8438C151.531 25.3333 151.672 25.7552 151.953 26.1094C152.24 26.4583 152.635 26.724 153.141 26.9062C153.651 27.0885 154.24 27.1823 154.906 27.1875C155.578 27.1823 156.167 27.0885 156.672 26.9062C157.182 26.724 157.581 26.4583 157.867 26.1094C158.154 25.7552 158.297 25.3333 158.297 24.8438C158.297 24.375 158.154 23.9688 157.867 23.625C157.581 23.276 157.182 23.0104 156.672 22.8281C156.161 22.6406 155.573 22.5469 154.906 22.5469C154.245 22.5469 153.659 22.6406 153.148 22.8281C152.638 23.0104 152.24 23.276 151.953 23.625C151.672 23.9688 151.531 24.375 151.531 24.8438ZM175.266 32.8594H162.25V31.2188H167.734V29.0781H163.75V24.2969H171.797V22.7344H163.734V21.1406H173.766V25.8594H165.75V27.4531H174.094V29.0781H169.719V31.2188H175.266V32.8594ZM185.297 23.4375C185.292 24.3281 185.424 25.1875 185.695 26.0156C185.966 26.8438 186.372 27.5807 186.914 28.2266C187.456 28.8724 188.115 29.3594 188.891 29.6875L187.719 31.2812C186.927 30.9219 186.245 30.4062 185.672 29.7344C185.104 29.0625 184.654 28.2734 184.32 27.3672C183.992 28.3568 183.531 29.2188 182.938 29.9531C182.344 30.6823 181.625 31.2396 180.781 31.625L179.578 29.9688C180.38 29.6302 181.057 29.1276 181.609 28.4609C182.167 27.7891 182.583 27.0208 182.859 26.1562C183.135 25.2865 183.276 24.3802 183.281 23.4375V21.3125H185.297V23.4375ZM189.656 20.2188H191.672V34.4688H189.656V20.2188ZM201.672 22.6406H198.844C198.849 23.2188 198.969 23.776 199.203 24.3125C199.443 24.8438 199.81 25.3255 200.305 25.7578C200.799 26.1849 201.417 26.5156 202.156 26.75L201.141 28.2969C200.37 28.0469 199.708 27.6823 199.156 27.2031C198.609 26.7188 198.177 26.151 197.859 25.5C197.531 26.2135 197.078 26.8333 196.5 27.3594C195.927 27.8802 195.24 28.2708 194.438 28.5312L193.375 27C194.13 26.7552 194.766 26.4062 195.281 25.9531C195.797 25.5 196.18 24.987 196.43 24.4141C196.685 23.8411 196.818 23.25 196.828 22.6406H193.922V21.0469H201.672V22.6406ZM195.297 29.4062H204.875V34.4375H202.875V30.9844H195.297V29.4062ZM202.875 20.2188H204.875V23.6719H206.797V25.3281H204.875V28.7969H202.875V20.2188ZM218.641 25.7812H220.734V27.4219H218.641V34.4375H216.672V20.2188H218.641V25.7812ZM207.344 22.3438H210.562V20.4375H212.562V22.3438H215.703V23.9375H207.344V22.3438ZM207.922 28.125C207.922 27.474 208.078 26.8906 208.391 26.375C208.703 25.8594 209.135 25.4583 209.688 25.1719C210.245 24.8802 210.87 24.7344 211.562 24.7344C212.245 24.7344 212.862 24.8802 213.414 25.1719C213.966 25.4583 214.398 25.8594 214.711 26.375C215.029 26.8906 215.188 27.474 215.188 28.125C215.188 28.776 215.029 29.3594 214.711 29.875C214.398 30.3854 213.966 30.7865 213.414 31.0781C212.862 31.3698 212.245 31.5156 211.562 31.5156C210.87 31.5156 210.245 31.3698 209.688 31.0781C209.135 30.7865 208.703 30.3854 208.391 29.875C208.078 29.3594 207.922 28.776 207.922 28.125ZM209.828 28.125C209.828 28.4844 209.901 28.7969 210.047 29.0625C210.198 29.3281 210.404 29.5312 210.664 29.6719C210.924 29.8125 211.224 29.8802 211.562 29.875C211.896 29.8802 212.193 29.8125 212.453 29.6719C212.714 29.5312 212.917 29.3281 213.062 29.0625C213.208 28.7969 213.281 28.4844 213.281 28.125C213.281 27.7656 213.208 27.4531 213.062 27.1875C212.917 26.9219 212.714 26.7161 212.453 26.5703C212.193 26.4245 211.896 26.349 211.562 26.3438C211.224 26.349 210.924 26.4245 210.664 26.5703C210.404 26.7161 210.198 26.9219 210.047 27.1875C209.901 27.4531 209.828 27.7656 209.828 28.125ZM233.203 34.4375H231.188V20.2188H233.203V34.4375ZM221.297 30.4062C222.51 29.8333 223.51 29.1953 224.297 28.4922C225.089 27.7891 225.693 27.0104 226.109 26.1562C226.531 25.2969 226.797 24.3333 226.906 23.2656H222.062V21.7031H228.938C228.932 23.224 228.727 24.6068 228.32 25.8516C227.914 27.0964 227.224 28.2396 226.25 29.2812C225.281 30.3229 223.979 31.2292 222.344 32L221.297 30.4062Z" fill="black" fill-opacity="0.85"/>
</svg>
