<svg width="393" height="53" viewBox="0 0 393 53" fill="none" xmlns="http://www.w3.org/2000/svg">
<rect width="393" height="53" rx="5" fill="#03C75A"/>
<path d="M135.309 27.9977L125.295 14H117V40.1562H125.691V26.1586L135.705 40.1562H144V14H135.309V27.9977Z" fill="white"/>
<path d="M166.312 28.8984C167.016 28.888 167.672 28.8542 168.281 28.7969C168.896 28.7344 169.521 28.6354 170.156 28.5L170.422 30.1719C169.646 30.3438 168.883 30.4609 168.133 30.5234C167.388 30.5807 166.539 30.6094 165.586 30.6094H165.312H164.312V21.1562H166.312V28.8984ZM168.312 24.2969H171.156V20.0625H173.047V33.3906H171.156V25.9062H168.312V24.2969ZM174.219 19.7969H176.094V34.0156H174.219V19.7969ZM189.5 34.0469H187.484V19.7969H189.5V34.0469ZM178.016 25.8594C178.016 24.8438 178.174 23.9531 178.492 23.1875C178.815 22.4219 179.26 21.8333 179.828 21.4219C180.401 21.0052 181.052 20.7969 181.781 20.7969C182.495 20.7969 183.133 21.0052 183.695 21.4219C184.263 21.8333 184.708 22.4219 185.031 23.1875C185.354 23.9531 185.516 24.8438 185.516 25.8594C185.516 26.8802 185.354 27.776 185.031 28.5469C184.708 29.3125 184.263 29.9036 183.695 30.3203C183.133 30.7318 182.495 30.9375 181.781 30.9375C181.052 30.9375 180.401 30.7318 179.828 30.3203C179.26 29.9036 178.815 29.3125 178.492 28.5469C178.174 27.776 178.016 26.8802 178.016 25.8594ZM179.938 25.8594C179.938 26.5521 180.013 27.1458 180.164 27.6406C180.315 28.1302 180.529 28.5026 180.805 28.7578C181.086 29.0078 181.411 29.1302 181.781 29.125C182.141 29.1302 182.456 29.0078 182.727 28.7578C183.003 28.5026 183.216 28.1302 183.367 27.6406C183.518 27.1458 183.594 26.5521 183.594 25.8594C183.594 25.1667 183.518 24.5755 183.367 24.0859C183.216 23.5964 183.003 23.2266 182.727 22.9766C182.456 22.7214 182.141 22.5938 181.781 22.5938C181.411 22.5938 181.086 22.7214 180.805 22.9766C180.529 23.2266 180.315 23.5964 180.164 24.0859C180.013 24.5755 179.938 25.1667 179.938 25.8594ZM203.422 34.0469H201.453V26.4219H198.812V30.6719H191.953V20.8906H193.938V24.3438H196.859V20.8906H198.812V24.8125H201.453V19.7969H203.422V34.0469ZM196.859 29.0781V25.9062H193.938V29.0781H196.859ZM218.266 32.4375H205.25V30.7969H210.734V28.6562H206.75V23.875H214.797V22.3125H206.734V20.7188H216.766V25.4375H208.75V27.0312H217.094V28.6562H212.719V30.7969H218.266V32.4375ZM228.297 23.0156C228.292 23.9062 228.424 24.7656 228.695 25.5938C228.966 26.4219 229.372 27.1589 229.914 27.8047C230.456 28.4505 231.115 28.9375 231.891 29.2656L230.719 30.8594C229.927 30.5 229.245 29.9844 228.672 29.3125C228.104 28.6406 227.654 27.8516 227.32 26.9453C226.992 27.9349 226.531 28.7969 225.938 29.5312C225.344 30.2604 224.625 30.8177 223.781 31.2031L222.578 29.5469C223.38 29.2083 224.057 28.7057 224.609 28.0391C225.167 27.3672 225.583 26.599 225.859 25.7344C226.135 24.8646 226.276 23.9583 226.281 23.0156V20.8906H228.297V23.0156ZM232.656 19.7969H234.672V34.0469H232.656V19.7969ZM244.672 22.2188H241.844C241.849 22.7969 241.969 23.3542 242.203 23.8906C242.443 24.4219 242.81 24.9036 243.305 25.3359C243.799 25.763 244.417 26.0938 245.156 26.3281L244.141 27.875C243.37 27.625 242.708 27.2604 242.156 26.7812C241.609 26.2969 241.177 25.7292 240.859 25.0781C240.531 25.7917 240.078 26.4115 239.5 26.9375C238.927 27.4583 238.24 27.849 237.438 28.1094L236.375 26.5781C237.13 26.3333 237.766 25.9844 238.281 25.5312C238.797 25.0781 239.18 24.5651 239.43 23.9922C239.685 23.4193 239.818 22.8281 239.828 22.2188H236.922V20.625H244.672V22.2188ZM238.297 28.9844H247.875V34.0156H245.875V30.5625H238.297V28.9844ZM245.875 19.7969H247.875V23.25H249.797V24.9062H247.875V28.375H245.875V19.7969ZM261.641 25.3594H263.734V27H261.641V34.0156H259.672V19.7969H261.641V25.3594ZM250.344 21.9219H253.562V20.0156H255.562V21.9219H258.703V23.5156H250.344V21.9219ZM250.922 27.7031C250.922 27.0521 251.078 26.4688 251.391 25.9531C251.703 25.4375 252.135 25.0365 252.688 24.75C253.245 24.4583 253.87 24.3125 254.562 24.3125C255.245 24.3125 255.862 24.4583 256.414 24.75C256.966 25.0365 257.398 25.4375 257.711 25.9531C258.029 26.4688 258.188 27.0521 258.188 27.7031C258.188 28.3542 258.029 28.9375 257.711 29.4531C257.398 29.9635 256.966 30.3646 256.414 30.6562C255.862 30.9479 255.245 31.0938 254.562 31.0938C253.87 31.0938 253.245 30.9479 252.688 30.6562C252.135 30.3646 251.703 29.9635 251.391 29.4531C251.078 28.9375 250.922 28.3542 250.922 27.7031ZM252.828 27.7031C252.828 28.0625 252.901 28.375 253.047 28.6406C253.198 28.9062 253.404 29.1094 253.664 29.25C253.924 29.3906 254.224 29.4583 254.562 29.4531C254.896 29.4583 255.193 29.3906 255.453 29.25C255.714 29.1094 255.917 28.9062 256.062 28.6406C256.208 28.375 256.281 28.0625 256.281 27.7031C256.281 27.3438 256.208 27.0312 256.062 26.7656C255.917 26.5 255.714 26.2943 255.453 26.1484C255.193 26.0026 254.896 25.9271 254.562 25.9219C254.224 25.9271 253.924 26.0026 253.664 26.1484C253.404 26.2943 253.198 26.5 253.047 26.7656C252.901 27.0312 252.828 27.3438 252.828 27.7031ZM276.203 34.0156H274.188V19.7969H276.203V34.0156ZM264.297 29.9844C265.51 29.4115 266.51 28.7734 267.297 28.0703C268.089 27.3672 268.693 26.5885 269.109 25.7344C269.531 24.875 269.797 23.9115 269.906 22.8438H265.062V21.2812H271.938C271.932 22.8021 271.727 24.1849 271.32 25.4297C270.914 26.6745 270.224 27.8177 269.25 28.8594C268.281 29.901 266.979 30.8073 265.344 31.5781L264.297 29.9844Z" fill="white"/>
</svg>
