<svg width="393" height="56" viewBox="0 0 393 56" fill="none" xmlns="http://www.w3.org/2000/svg">
<rect width="393" height="55.007" rx="5" fill="#FEE500"/>
<path d="M129.5 14C132.303 14 134.895 14.5168 137.274 15.5451C139.654 16.5734 141.537 17.9709 142.923 19.7428C144.31 21.5094 145 23.4395 145 25.533C145 27.6213 144.31 29.5566 142.923 31.3285C141.537 33.1004 139.66 34.5031 137.286 35.5314C134.913 36.5598 132.315 37.0766 129.5 37.0766C128.61 37.0766 127.696 37.0186 126.751 36.8973C122.646 39.5867 120.46 40.9473 120.194 40.9789C120.067 41.0211 119.946 41.0158 119.831 40.9631C119.782 40.9314 119.752 40.8893 119.728 40.8312C119.704 40.7785 119.691 40.7258 119.691 40.6836V40.6203C119.758 40.1932 120.285 38.4266 121.266 35.3152C119.037 34.2711 117.27 32.8842 115.962 31.1598C114.654 29.4248 114 27.5527 114 25.5277C114 23.4395 114.69 21.5094 116.077 19.7375C117.463 17.9709 119.346 16.5682 121.726 15.5398C124.105 14.5168 126.697 14 129.5 14Z" fill="black"/>
<path d="M172.188 21.5781C172.182 23.1875 172.005 24.6198 171.656 25.875C171.312 27.1302 170.674 28.2995 169.742 29.3828C168.81 30.4661 167.495 31.4323 165.797 32.2812L164.703 30.7812C165.87 30.2031 166.823 29.5807 167.562 28.9141C168.307 28.2422 168.885 27.5052 169.297 26.7031L165.094 27.0938L164.844 25.3906L169.898 25.0859C170.049 24.4714 170.148 23.8333 170.195 23.1719H165.594V21.5781H172.188ZM173.984 20.2188H175.984V25.6719H178V27.3125H175.984V34.4062H173.984V20.2188ZM186.016 21.5781C186.01 23.1875 185.833 24.6198 185.484 25.875C185.141 27.1302 184.503 28.2995 183.57 29.3828C182.638 30.4661 181.323 31.4323 179.625 32.2812L178.531 30.7812C179.698 30.2031 180.651 29.5807 181.391 28.9141C182.135 28.2422 182.714 27.5052 183.125 26.7031L178.922 27.0938L178.672 25.3906L183.727 25.0859C183.878 24.4714 183.977 23.8333 184.023 23.1719H179.422V21.5781H186.016ZM187.812 20.2188H189.812V25.6719H191.828V27.3125H189.812V34.4062H187.812V20.2188ZM198.906 20.9531C199.922 20.9531 200.836 21.1146 201.648 21.4375C202.461 21.7604 203.099 22.2188 203.562 22.8125C204.031 23.401 204.266 24.0781 204.266 24.8438C204.266 25.5469 204.078 26.1745 203.703 26.7266C203.333 27.2734 202.818 27.7188 202.156 28.0625C201.5 28.401 200.745 28.6172 199.891 28.7109V31.1406H205.438V32.7812H192.422V31.1406H197.906V28.7109C197.057 28.612 196.305 28.3932 195.648 28.0547C194.992 27.7109 194.479 27.2656 194.109 26.7188C193.745 26.1667 193.562 25.5417 193.562 24.8438C193.562 24.0781 193.794 23.401 194.258 22.8125C194.721 22.2188 195.357 21.7604 196.164 21.4375C196.977 21.1146 197.891 20.9531 198.906 20.9531ZM195.531 24.8438C195.531 25.3333 195.672 25.7552 195.953 26.1094C196.24 26.4583 196.635 26.724 197.141 26.9062C197.651 27.0885 198.24 27.1823 198.906 27.1875C199.578 27.1823 200.167 27.0885 200.672 26.9062C201.182 26.724 201.581 26.4583 201.867 26.1094C202.154 25.7552 202.297 25.3333 202.297 24.8438C202.297 24.375 202.154 23.9688 201.867 23.625C201.581 23.276 201.182 23.0104 200.672 22.8281C200.161 22.6406 199.573 22.5469 198.906 22.5469C198.245 22.5469 197.659 22.6406 197.148 22.8281C196.638 23.0104 196.24 23.276 195.953 23.625C195.672 23.9688 195.531 24.375 195.531 24.8438ZM219.266 32.8594H206.25V31.2188H211.734V29.0781H207.75V24.2969H215.797V22.7344H207.734V21.1406H217.766V25.8594H209.75V27.4531H218.094V29.0781H213.719V31.2188H219.266V32.8594ZM229.297 23.4375C229.292 24.3281 229.424 25.1875 229.695 26.0156C229.966 26.8438 230.372 27.5807 230.914 28.2266C231.456 28.8724 232.115 29.3594 232.891 29.6875L231.719 31.2812C230.927 30.9219 230.245 30.4062 229.672 29.7344C229.104 29.0625 228.654 28.2734 228.32 27.3672C227.992 28.3568 227.531 29.2188 226.938 29.9531C226.344 30.6823 225.625 31.2396 224.781 31.625L223.578 29.9688C224.38 29.6302 225.057 29.1276 225.609 28.4609C226.167 27.7891 226.583 27.0208 226.859 26.1562C227.135 25.2865 227.276 24.3802 227.281 23.4375V21.3125H229.297V23.4375ZM233.656 20.2188H235.672V34.4688H233.656V20.2188ZM245.672 22.6406H242.844C242.849 23.2188 242.969 23.776 243.203 24.3125C243.443 24.8438 243.81 25.3255 244.305 25.7578C244.799 26.1849 245.417 26.5156 246.156 26.75L245.141 28.2969C244.37 28.0469 243.708 27.6823 243.156 27.2031C242.609 26.7188 242.177 26.151 241.859 25.5C241.531 26.2135 241.078 26.8333 240.5 27.3594C239.927 27.8802 239.24 28.2708 238.438 28.5312L237.375 27C238.13 26.7552 238.766 26.4062 239.281 25.9531C239.797 25.5 240.18 24.987 240.43 24.4141C240.685 23.8411 240.818 23.25 240.828 22.6406H237.922V21.0469H245.672V22.6406ZM239.297 29.4062H248.875V34.4375H246.875V30.9844H239.297V29.4062ZM246.875 20.2188H248.875V23.6719H250.797V25.3281H248.875V28.7969H246.875V20.2188ZM262.641 25.7812H264.734V27.4219H262.641V34.4375H260.672V20.2188H262.641V25.7812ZM251.344 22.3438H254.562V20.4375H256.562V22.3438H259.703V23.9375H251.344V22.3438ZM251.922 28.125C251.922 27.474 252.078 26.8906 252.391 26.375C252.703 25.8594 253.135 25.4583 253.688 25.1719C254.245 24.8802 254.87 24.7344 255.562 24.7344C256.245 24.7344 256.862 24.8802 257.414 25.1719C257.966 25.4583 258.398 25.8594 258.711 26.375C259.029 26.8906 259.188 27.474 259.188 28.125C259.188 28.776 259.029 29.3594 258.711 29.875C258.398 30.3854 257.966 30.7865 257.414 31.0781C256.862 31.3698 256.245 31.5156 255.562 31.5156C254.87 31.5156 254.245 31.3698 253.688 31.0781C253.135 30.7865 252.703 30.3854 252.391 29.875C252.078 29.3594 251.922 28.776 251.922 28.125ZM253.828 28.125C253.828 28.4844 253.901 28.7969 254.047 29.0625C254.198 29.3281 254.404 29.5312 254.664 29.6719C254.924 29.8125 255.224 29.8802 255.562 29.875C255.896 29.8802 256.193 29.8125 256.453 29.6719C256.714 29.5312 256.917 29.3281 257.062 29.0625C257.208 28.7969 257.281 28.4844 257.281 28.125C257.281 27.7656 257.208 27.4531 257.062 27.1875C256.917 26.9219 256.714 26.7161 256.453 26.5703C256.193 26.4245 255.896 26.349 255.562 26.3438C255.224 26.349 254.924 26.4245 254.664 26.5703C254.404 26.7161 254.198 26.9219 254.047 27.1875C253.901 27.4531 253.828 27.7656 253.828 28.125ZM277.203 34.4375H275.188V20.2188H277.203V34.4375ZM265.297 30.4062C266.51 29.8333 267.51 29.1953 268.297 28.4922C269.089 27.7891 269.693 27.0104 270.109 26.1562C270.531 25.2969 270.797 24.3333 270.906 23.2656H266.062V21.7031H272.938C272.932 23.224 272.727 24.6068 272.32 25.8516C271.914 27.0964 271.224 28.2396 270.25 29.2812C269.281 30.3229 267.979 31.2292 266.344 32L265.297 30.4062Z" fill="black" fill-opacity="0.85"/>
</svg>
