<svg width="305" height="53" viewBox="0 0 305 53" fill="none" xmlns="http://www.w3.org/2000/svg">
<rect width="305" height="53" rx="5" fill="#03C75A"/>
<path d="M89.3094 27.9977L79.2951 14H71V40.1562H79.6906V26.1586L89.7049 40.1562H98V14H89.3094V27.9977Z" fill="white"/>
<path d="M120.312 28.8984C121.016 28.888 121.672 28.8542 122.281 28.7969C122.896 28.7344 123.521 28.6354 124.156 28.5L124.422 30.1719C123.646 30.3438 122.883 30.4609 122.133 30.5234C121.388 30.5807 120.539 30.6094 119.586 30.6094H119.312H118.312V21.1562H120.312V28.8984ZM122.312 24.2969H125.156V20.0625H127.047V33.3906H125.156V25.9062H122.312V24.2969ZM128.219 19.7969H130.094V34.0156H128.219V19.7969ZM143.5 34.0469H141.484V19.7969H143.5V34.0469ZM132.016 25.8594C132.016 24.8438 132.174 23.9531 132.492 23.1875C132.815 22.4219 133.26 21.8333 133.828 21.4219C134.401 21.0052 135.052 20.7969 135.781 20.7969C136.495 20.7969 137.133 21.0052 137.695 21.4219C138.263 21.8333 138.708 22.4219 139.031 23.1875C139.354 23.9531 139.516 24.8438 139.516 25.8594C139.516 26.8802 139.354 27.776 139.031 28.5469C138.708 29.3125 138.263 29.9036 137.695 30.3203C137.133 30.7318 136.495 30.9375 135.781 30.9375C135.052 30.9375 134.401 30.7318 133.828 30.3203C133.26 29.9036 132.815 29.3125 132.492 28.5469C132.174 27.776 132.016 26.8802 132.016 25.8594ZM133.938 25.8594C133.938 26.5521 134.013 27.1458 134.164 27.6406C134.315 28.1302 134.529 28.5026 134.805 28.7578C135.086 29.0078 135.411 29.1302 135.781 29.125C136.141 29.1302 136.456 29.0078 136.727 28.7578C137.003 28.5026 137.216 28.1302 137.367 27.6406C137.518 27.1458 137.594 26.5521 137.594 25.8594C137.594 25.1667 137.518 24.5755 137.367 24.0859C137.216 23.5964 137.003 23.2266 136.727 22.9766C136.456 22.7214 136.141 22.5938 135.781 22.5938C135.411 22.5938 135.086 22.7214 134.805 22.9766C134.529 23.2266 134.315 23.5964 134.164 24.0859C134.013 24.5755 133.938 25.1667 133.938 25.8594ZM157.422 34.0469H155.453V26.4219H152.812V30.6719H145.953V20.8906H147.938V24.3438H150.859V20.8906H152.812V24.8125H155.453V19.7969H157.422V34.0469ZM150.859 29.0781V25.9062H147.938V29.0781H150.859ZM172.266 32.4375H159.25V30.7969H164.734V28.6562H160.75V23.875H168.797V22.3125H160.734V20.7188H170.766V25.4375H162.75V27.0312H171.094V28.6562H166.719V30.7969H172.266V32.4375ZM182.297 23.0156C182.292 23.9062 182.424 24.7656 182.695 25.5938C182.966 26.4219 183.372 27.1589 183.914 27.8047C184.456 28.4505 185.115 28.9375 185.891 29.2656L184.719 30.8594C183.927 30.5 183.245 29.9844 182.672 29.3125C182.104 28.6406 181.654 27.8516 181.32 26.9453C180.992 27.9349 180.531 28.7969 179.938 29.5312C179.344 30.2604 178.625 30.8177 177.781 31.2031L176.578 29.5469C177.38 29.2083 178.057 28.7057 178.609 28.0391C179.167 27.3672 179.583 26.599 179.859 25.7344C180.135 24.8646 180.276 23.9583 180.281 23.0156V20.8906H182.297V23.0156ZM186.656 19.7969H188.672V34.0469H186.656V19.7969ZM198.672 22.2188H195.844C195.849 22.7969 195.969 23.3542 196.203 23.8906C196.443 24.4219 196.81 24.9036 197.305 25.3359C197.799 25.763 198.417 26.0938 199.156 26.3281L198.141 27.875C197.37 27.625 196.708 27.2604 196.156 26.7812C195.609 26.2969 195.177 25.7292 194.859 25.0781C194.531 25.7917 194.078 26.4115 193.5 26.9375C192.927 27.4583 192.24 27.849 191.438 28.1094L190.375 26.5781C191.13 26.3333 191.766 25.9844 192.281 25.5312C192.797 25.0781 193.18 24.5651 193.43 23.9922C193.685 23.4193 193.818 22.8281 193.828 22.2188H190.922V20.625H198.672V22.2188ZM192.297 28.9844H201.875V34.0156H199.875V30.5625H192.297V28.9844ZM199.875 19.7969H201.875V23.25H203.797V24.9062H201.875V28.375H199.875V19.7969ZM215.641 25.3594H217.734V27H215.641V34.0156H213.672V19.7969H215.641V25.3594ZM204.344 21.9219H207.562V20.0156H209.562V21.9219H212.703V23.5156H204.344V21.9219ZM204.922 27.7031C204.922 27.0521 205.078 26.4688 205.391 25.9531C205.703 25.4375 206.135 25.0365 206.688 24.75C207.245 24.4583 207.87 24.3125 208.562 24.3125C209.245 24.3125 209.862 24.4583 210.414 24.75C210.966 25.0365 211.398 25.4375 211.711 25.9531C212.029 26.4688 212.188 27.0521 212.188 27.7031C212.188 28.3542 212.029 28.9375 211.711 29.4531C211.398 29.9635 210.966 30.3646 210.414 30.6562C209.862 30.9479 209.245 31.0938 208.562 31.0938C207.87 31.0938 207.245 30.9479 206.688 30.6562C206.135 30.3646 205.703 29.9635 205.391 29.4531C205.078 28.9375 204.922 28.3542 204.922 27.7031ZM206.828 27.7031C206.828 28.0625 206.901 28.375 207.047 28.6406C207.198 28.9062 207.404 29.1094 207.664 29.25C207.924 29.3906 208.224 29.4583 208.562 29.4531C208.896 29.4583 209.193 29.3906 209.453 29.25C209.714 29.1094 209.917 28.9062 210.062 28.6406C210.208 28.375 210.281 28.0625 210.281 27.7031C210.281 27.3438 210.208 27.0312 210.062 26.7656C209.917 26.5 209.714 26.2943 209.453 26.1484C209.193 26.0026 208.896 25.9271 208.562 25.9219C208.224 25.9271 207.924 26.0026 207.664 26.1484C207.404 26.2943 207.198 26.5 207.047 26.7656C206.901 27.0312 206.828 27.3438 206.828 27.7031ZM230.203 34.0156H228.188V19.7969H230.203V34.0156ZM218.297 29.9844C219.51 29.4115 220.51 28.7734 221.297 28.0703C222.089 27.3672 222.693 26.5885 223.109 25.7344C223.531 24.875 223.797 23.9115 223.906 22.8438H219.062V21.2812H225.938C225.932 22.8021 225.727 24.1849 225.32 25.4297C224.914 26.6745 224.224 27.8177 223.25 28.8594C222.281 29.901 220.979 30.8073 219.344 31.5781L218.297 29.9844Z" fill="white"/>
</svg>
