<svg width="657" height="657" viewBox="0 0 657 657" fill="none" xmlns="http://www.w3.org/2000/svg">
<g clip-path="url(#clip0_3719_15578)">
<path opacity="0.1" d="M328.305 656.61C509.623 656.61 656.61 509.623 656.61 328.305C656.61 146.987 509.623 0 328.305 0C146.987 0 0 146.987 0 328.305C0 509.623 146.987 656.61 328.305 656.61Z" fill="#76C1B1"/>
<path d="M186.264 229.828C187.451 228.497 188.889 227.413 190.495 226.638C192.1 225.863 193.843 225.411 195.624 225.309C197.404 225.208 199.187 225.458 200.87 226.045C202.554 226.632 204.106 227.545 205.437 228.732L248.772 267.384L230.695 287.652L187.359 249.001C186.028 247.814 184.944 246.376 184.169 244.77C183.394 243.164 182.942 241.422 182.841 239.641C182.739 237.861 182.989 236.078 183.576 234.394C184.164 232.71 185.077 231.159 186.264 229.828Z" fill="white"/>
<path d="M230.8 289.543L186.467 250C185.005 248.696 183.814 247.116 182.962 245.352C182.11 243.587 181.614 241.673 181.502 239.716C181.39 237.76 181.665 235.801 182.31 233.951C182.955 232.101 183.959 230.396 185.263 228.934C186.567 227.472 188.147 226.281 189.911 225.429C191.676 224.577 193.59 224.081 195.547 223.969C197.503 223.857 199.462 224.132 201.312 224.777C203.162 225.422 204.867 226.426 206.329 227.73L250.667 267.274L230.8 289.543ZM196.41 226.626C196.173 226.626 195.935 226.633 195.696 226.646C193.279 226.785 190.958 227.637 189.026 229.095C187.094 230.552 185.637 232.551 184.84 234.836C184.043 237.122 183.942 239.592 184.55 241.936C185.157 244.279 186.445 246.389 188.252 248L230.587 285.759L246.879 267.493L204.544 229.734C202.311 227.729 199.415 226.622 196.414 226.626H196.41Z" fill="#292A2E"/>
<path d="M425.909 287.651L407.832 267.383L451.168 228.732C453.855 226.334 457.385 225.103 460.981 225.309C464.576 225.514 467.943 227.139 470.34 229.827C472.737 232.515 473.969 236.045 473.763 239.64C473.558 243.236 471.932 246.602 469.245 248.999L425.909 287.651Z" fill="white"/>
<path d="M425.805 289.543L405.943 267.274L450.28 227.73C453.233 225.096 457.112 223.743 461.062 223.969C465.013 224.195 468.712 225.981 471.346 228.934C473.98 231.887 475.333 235.766 475.107 239.716C474.881 243.667 473.095 247.366 470.142 250L425.805 289.543ZM409.73 267.491L426.022 285.757L468.357 248C469.556 246.93 470.533 245.635 471.232 244.187C471.931 242.74 472.337 241.169 472.429 239.565C472.521 237.96 472.295 236.354 471.766 234.836C471.237 233.319 470.414 231.92 469.344 230.721C468.274 229.522 466.979 228.545 465.531 227.846C464.084 227.147 462.513 226.741 460.909 226.649C459.304 226.557 457.697 226.783 456.18 227.312C454.663 227.841 453.264 228.664 452.065 229.734L409.73 267.491Z" fill="#292A2E"/>
<path d="M443.958 312.792C453.624 355.599 466.858 383.139 460.268 398.956C456.804 407.27 449.694 414.241 437.925 414.241C419.579 414.241 419.579 392.605 401.232 392.605C382.885 392.605 382.888 414.241 364.543 414.241C346.198 414.241 346.2 392.605 327.857 392.605C309.514 392.605 309.513 414.241 291.169 414.241C272.825 414.241 272.826 392.605 254.483 392.605C236.14 392.605 236.142 414.241 217.801 414.241C206.911 414.241 200.755 407.828 196.851 400.416C187.469 382.61 209.335 343.428 217.801 308.876C227.155 270.696 226.367 223.14 227.622 194.458C230.043 139.146 272.5 94.211 327.869 94.211C383.238 94.211 424.083 139.24 428.116 194.458C430.29 224.226 435.109 273.606 443.958 312.792Z" fill="white"/>
<path d="M437.925 415.594C428.125 415.594 423.257 409.852 418.547 404.294C414.038 398.976 409.779 393.954 401.232 393.954C392.685 393.954 388.432 398.976 383.919 404.294C379.21 409.847 374.341 415.594 364.543 415.594C354.745 415.594 349.877 409.852 345.169 404.294C340.66 398.976 336.401 393.954 327.857 393.954C319.313 393.954 315.057 398.976 310.545 404.294C305.836 409.847 300.968 415.594 291.169 415.594C281.37 415.594 276.5 409.852 271.8 404.3C267.291 398.982 263.033 393.96 254.488 393.96C245.943 393.96 241.688 398.982 237.178 404.3C232.471 409.853 227.603 415.6 217.806 415.6C208.061 415.6 200.817 410.842 195.659 401.052C189.118 388.638 196.974 366.687 205.293 343.452C209.424 331.91 213.693 319.976 216.493 308.563C223.974 278.028 224.921 242.149 225.681 213.318C225.86 206.499 226.03 200.057 226.281 194.407C227.481 167.028 238.367 141.546 256.938 122.653C266.168 113.194 277.203 105.684 289.389 100.568C301.574 95.4517 314.663 92.8333 327.879 92.868C341.01 92.8369 354.011 95.4634 366.1 100.589C378.189 105.715 389.115 113.234 398.222 122.694C416.364 141.373 427.463 166.829 429.475 194.368C431.414 220.922 436.046 271.577 445.287 312.503C448.421 326.384 451.929 338.645 455.024 349.463C461.486 372.053 466.156 388.374 461.524 399.485C459.008 405.5 452.609 415.594 437.925 415.594ZM401.232 391.253C411.032 391.253 415.901 396.995 420.61 402.553C425.12 407.871 429.379 412.893 437.925 412.893C451.04 412.893 456.771 403.838 459.02 398.439C463.286 388.202 458.72 372.263 452.413 350.202C449.313 339.349 445.789 327.05 442.639 313.095C433.359 271.995 428.712 221.189 426.768 194.561C422.645 138.125 380.128 95.567 327.868 95.567C274.842 95.567 231.401 139.032 228.968 194.521C228.722 200.147 228.552 206.577 228.368 213.384C227.645 240.816 226.654 278.384 219.104 309.202C216.275 320.75 211.978 332.753 207.824 344.36C199.712 367.02 192.05 388.427 198.037 399.79C202.683 408.606 209.144 412.89 217.791 412.89C226.335 412.89 230.591 407.868 235.101 402.55C239.808 396.996 244.676 391.25 254.473 391.25C264.27 391.25 269.14 396.992 273.847 402.55C278.356 407.868 282.614 412.89 291.159 412.89C299.704 412.89 303.964 407.867 308.472 402.55C313.181 396.996 318.049 391.25 327.847 391.25C337.645 391.25 342.514 396.993 347.221 402.55C351.73 407.868 355.987 412.89 364.533 412.89C373.079 412.89 377.338 407.867 381.847 402.55C386.565 397 391.433 391.253 401.232 391.253Z" fill="#292A2E"/>
<path d="M290.199 200.926C296.336 200.926 301.311 195.951 301.311 189.814C301.311 183.677 296.336 178.702 290.199 178.702C284.062 178.702 279.087 183.677 279.087 189.814C279.087 195.951 284.062 200.926 290.199 200.926Z" fill="#292A2E"/>
<path d="M366.396 200.926C372.533 200.926 377.508 195.951 377.508 189.814C377.508 183.677 372.533 178.702 366.396 178.702C360.259 178.702 355.284 183.677 355.284 189.814C355.284 195.951 360.259 200.926 366.396 200.926Z" fill="#292A2E"/>
<path d="M348.2 219.805C348.841 219.803 349.475 219.945 350.055 220.219C350.635 220.493 351.146 220.893 351.552 221.39C351.958 221.886 352.248 222.467 352.401 223.09C352.554 223.713 352.566 224.362 352.437 224.99C350.055 236.131 340.154 243.134 328.301 243.134C316.448 243.134 306.547 236.134 304.165 224.99C304.036 224.362 304.048 223.713 304.201 223.09C304.354 222.467 304.644 221.886 305.05 221.389C305.456 220.893 305.968 220.493 306.548 220.219C307.128 219.945 307.761 219.803 308.403 219.805H348.2Z" fill="white"/>
<path d="M328.3 244.486C315.53 244.486 305.3 236.765 302.842 225.272C302.667 224.454 302.678 223.607 302.874 222.793C303.07 221.98 303.446 221.221 303.974 220.572C304.507 219.91 305.181 219.377 305.947 219.011C306.714 218.645 307.553 218.455 308.402 218.457H348.202C349.051 218.456 349.89 218.645 350.656 219.011C351.423 219.377 352.097 219.911 352.63 220.572C353.158 221.221 353.534 221.98 353.73 222.793C353.926 223.607 353.937 224.454 353.762 225.272C351.3 236.765 341.067 244.486 328.3 244.486ZM308.4 221.157C307.954 221.157 307.513 221.256 307.111 221.449C306.708 221.641 306.354 221.922 306.074 222.269C305.8 222.605 305.604 222.999 305.502 223.421C305.4 223.843 305.394 224.282 305.485 224.707C307.668 234.92 316.836 241.782 328.298 241.782C339.76 241.782 348.928 234.92 351.112 224.707C351.202 224.282 351.196 223.843 351.094 223.421C350.991 222.999 350.796 222.605 350.521 222.269C350.241 221.921 349.887 221.641 349.485 221.449C349.082 221.256 348.642 221.157 348.196 221.157H308.4Z" fill="#292A2E"/>
<path d="M589.5 527.234C529.52 605.874 434.84 656.614 328.31 656.614C221.78 656.614 127.1 605.874 67.12 527.234C135.59 501.474 227.39 485.724 328.31 485.724C429.23 485.724 521.025 501.474 589.5 527.234Z" fill="#76C1B1"/>
<path d="M617.054 171.945L448.563 171.225C448.563 143.085 464.413 137.545 481.263 132.975C498.113 128.405 505.693 97.475 534.973 95.715C552.264 94.675 561.333 99.125 568.843 104.855C568.853 104.865 568.853 104.875 568.863 104.875C587.679 125.12 603.87 147.654 617.054 171.945Z" fill="white"/>
<path d="M136.433 381.035L4.31301 381.605C2.05626 367.81 0.686786 353.885 0.213013 339.915C29.153 335.815 26.193 312.815 60.753 314.905C86.393 316.445 93.053 343.535 107.803 347.535C122.553 351.535 136.433 356.4 136.433 381.035Z" fill="white"/>
</g>
<defs>
<clipPath id="clip0_3719_15578">
<rect width="656.609" height="656.614" fill="white"/>
</clipPath>
</defs>
</svg>
