<svg width="24" height="24" viewBox="0 0 24 24" fill="none" xmlns="http://www.w3.org/2000/svg">
<path d="M8.0197 9.9996C7.8222 9.9996 7.62913 10.0582 7.46491 10.1681C7.3007 10.278 7.1727 10.4342 7.09712 10.6169C7.02154 10.7996 7.00177 11.0007 7.0403 11.1946C7.07883 11.3886 7.17394 11.5668 7.31359 11.7066C7.45325 11.8465 7.63118 11.9417 7.82489 11.9803C8.01859 12.0189 8.21938 11.9991 8.40185 11.9234C8.58432 11.8477 8.74027 11.7195 8.85 11.5551C8.95973 11.3907 9.01829 11.1973 9.01829 10.9996C9.01829 10.7344 8.91309 10.48 8.72581 10.2925C8.53854 10.105 8.28455 9.9996 8.0197 9.9996ZM12.0141 9.9996C11.8166 9.9996 11.6235 10.0582 11.4593 10.1681C11.2951 10.278 11.1671 10.4342 11.0915 10.6169C11.0159 10.7996 10.9961 11.0007 11.0347 11.1946C11.0732 11.3886 11.1683 11.5668 11.308 11.7066C11.4476 11.8465 11.6255 11.9417 11.8193 11.9803C12.013 12.0189 12.2138 11.9991 12.3962 11.9234C12.5787 11.8477 12.7346 11.7195 12.8444 11.5551C12.9541 11.3907 13.0127 11.1973 13.0127 10.9996C13.0127 10.7344 12.9075 10.48 12.7202 10.2925C12.5329 10.105 12.2789 9.9996 12.0141 9.9996ZM16.0084 9.9996C15.8109 9.9996 15.6179 10.0582 15.4537 10.1681C15.2894 10.278 15.1614 10.4342 15.0859 10.6169C15.0103 10.7996 14.9905 11.0007 15.029 11.1946C15.0676 11.3886 15.1627 11.5668 15.3023 11.7066C15.442 11.8465 15.6199 11.9417 15.8136 11.9803C16.0073 12.0189 16.2081 11.9991 16.3906 11.9234C16.5731 11.8477 16.729 11.7195 16.8387 11.5551C16.9485 11.3907 17.007 11.1973 17.007 10.9996C17.007 10.7344 16.9018 10.48 16.7146 10.2925C16.5273 10.105 16.2733 9.9996 16.0084 9.9996ZM12.0141 1C10.7027 1 9.40417 1.25865 8.19262 1.76117C6.98108 2.2637 5.88024 3.00026 4.95296 3.9288C3.08023 5.80408 2.02815 8.34751 2.02815 10.9996C2.02301 12.3575 2.29704 13.6913 2.82208 14.9221C3.45124 16.3969 3.42081 18.1946 2.28778 19.3292V19.3292C2.14922 19.4698 2.05535 19.6484 2.01803 19.8423C1.98071 20.0363 2.0016 20.237 2.07808 20.4191C2.16102 20.5991 2.29547 20.7502 2.46438 20.8535C2.63328 20.9568 2.82902 21.0075 3.02674 20.9991H12.0141C14.6625 20.9991 17.2025 19.9456 19.0752 18.0703C20.9479 16.195 22 13.6516 22 10.9996C22 8.34751 20.9479 5.80408 19.0752 3.9288C17.2025 2.05352 14.6625 1 12.0141 1ZM12.0141 18.9992H6.74761C6.26233 18.9992 6.01912 18.4126 6.36204 18.0692V18.0692C6.45639 17.9766 6.53146 17.8662 6.58288 17.7443C6.63431 17.6225 6.66107 17.4916 6.66162 17.3593C6.65786 17.0955 6.55019 16.8439 6.36204 16.6593C5.05447 15.3514 4.2402 13.63 4.05798 11.7883C3.87575 9.94665 4.33684 8.09869 5.36267 6.55928C6.38851 5.01986 7.91564 3.88423 9.68387 3.34587C11.4521 2.80751 13.352 2.89972 15.06 3.6068C16.7679 4.31388 18.1782 5.59207 19.0506 7.22362C19.923 8.85516 20.2034 10.7391 19.8442 12.5545C19.4849 14.3699 18.5082 16.0044 17.0805 17.1795C15.6527 18.3547 13.8622 18.9977 12.0141 18.9992Z" fill="white"/>
</svg>
