<svg width="24" height="24" viewBox="0 0 24 24" fill="none" xmlns="http://www.w3.org/2000/svg">
<path fill-rule="evenodd" clip-rule="evenodd" d="M9.17391 7.3913C8.18941 7.3913 7.3913 8.18941 7.3913 9.17391V18.8261C7.3913 19.8106 8.18941 20.6087 9.17391 20.6087H18.8261C19.8106 20.6087 20.6087 19.8106 20.6087 18.8261V9.17391C20.6087 8.18941 19.8106 7.3913 18.8261 7.3913H9.17391ZM6 9.17391C6 7.42101 7.42101 6 9.17391 6H18.8261C20.579 6 22 7.42101 22 9.17391V18.8261C22 20.579 20.579 22 18.8261 22H9.17391C7.42101 22 6 20.579 6 18.8261V9.17391Z" fill="#4F4C4C"/>
<path fill-rule="evenodd" clip-rule="evenodd" d="M5.4762 2L5.47826 2H14.8696L14.8715 2C15.7005 2.00236 16.4949 2.33272 17.0811 2.91891C17.6673 3.5051 17.9976 4.29946 18 5.12846C18 5.13395 18 5.13944 17.9998 5.14492L17.9781 6.1884C17.9701 6.57252 17.6522 6.87742 17.2681 6.86941C16.884 6.86141 16.5791 6.54354 16.5871 6.15942L16.6087 5.12488C16.6054 4.66624 16.4218 4.22717 16.0973 3.90271C15.7713 3.57669 15.3295 3.39286 14.8685 3.3913H5.47937C4.92617 3.39319 4.39616 3.61378 4.00497 4.00497C3.61378 4.39616 3.39319 4.92617 3.3913 5.47937V14.8685C3.39286 15.3295 3.57669 15.7713 3.90271 16.0973C4.22875 16.4233 4.6705 16.6072 5.13156 16.6087H6.17391C6.55811 16.6087 6.86957 16.9202 6.86957 17.3043C6.86957 17.6885 6.55811 18 6.17391 18H5.13043L5.12846 18C4.29946 17.9976 3.5051 17.6673 2.91891 17.0811C2.33272 16.4949 2.00236 15.7005 2 14.8715L2 14.8696V5.47826L2 5.4762C2.00273 4.5551 2.36984 3.67249 3.02117 3.02117C3.67249 2.36984 4.5551 2.00273 5.4762 2Z" fill="#4F4C4C"/>
</svg>
