<svg width="24" height="24" viewBox="0 0 24 24" fill="none" xmlns="http://www.w3.org/2000/svg">
<path d="M10.25 10.5C10.25 13.0376 9.76123 15.2982 9.00418 16.8965C8.22003 18.5519 7.2841 19.25 6.5 19.25C5.7159 19.25 4.77997 18.5519 3.99582 16.8965C3.23877 15.2982 2.75 13.0376 2.75 10.5C2.75 7.9624 3.23877 5.70177 3.99582 4.10355C4.77997 2.44813 5.7159 1.75 6.5 1.75C7.2841 1.75 8.22003 2.44813 9.00418 4.10355C9.76123 5.70177 10.25 7.9624 10.25 10.5Z" stroke="#4F4C4C" stroke-width="1.5"/>
<ellipse cx="4.5" cy="11.5" rx="2.5" ry="3.5" fill="#4F4C4C"/>
<path d="M20.25 10.5C20.25 13.0376 19.7612 15.2982 19.0042 16.8965C18.22 18.5519 17.2841 19.25 16.5 19.25C15.7159 19.25 14.78 18.5519 13.9958 16.8965C13.2388 15.2982 12.75 13.0376 12.75 10.5C12.75 7.9624 13.2388 5.70177 13.9958 4.10355C14.78 2.44813 15.7159 1.75 16.5 1.75C17.2841 1.75 18.22 2.44813 19.0042 4.10355C19.7612 5.70177 20.25 7.9624 20.25 10.5Z" stroke="#4F4C4C" stroke-width="1.5"/>
<ellipse cx="14.5" cy="11.5" rx="2.5" ry="3.5" fill="#4F4C4C"/>
</svg>
