<svg width="24" height="24" viewBox="0 0 24 24" fill="none" xmlns="http://www.w3.org/2000/svg">
<path d="M21.6663 9.99066L19.289 8.07423V5.00931C19.289 4.66417 19.005 4.38334 18.6561 4.38334H17.1602C16.8113 4.38334 16.5273 4.66417 16.5273 5.00931V5.84794L13.3507 3.28721C13.121 3.10203 12.8181 3 12.498 3C12.1791 3 11.8777 3.10141 11.6492 3.28561L3.3337 9.99061C2.95588 10.2951 2.97854 10.5604 3.02566 10.6914C3.07267 10.8221 3.22404 11.0414 3.70939 11.0414H4.84804V19.8589C4.84804 20.4881 5.36423 21 5.99871 21H9.59456C10.2237 21 10.7165 20.4987 10.7165 19.8589V16.243C10.7165 15.9331 11.0044 15.6509 11.3206 15.6509H13.737C14.0383 15.6509 14.2835 15.9165 14.2835 16.243V19.8589C14.2835 20.4774 14.8237 21 15.463 21H19.0013C19.6358 21 20.152 20.4881 20.152 19.8589V11.0414H21.2906C21.776 11.0414 21.9273 10.8221 21.9743 10.6914C22.0215 10.5604 22.0441 10.2951 21.6663 9.99066Z" fill="white"/>
</svg>
