<svg width="24" height="24" viewBox="0 0 24 24" fill="none" xmlns="http://www.w3.org/2000/svg">
<path d="M17 8.23023C17 9.6175 16.4732 10.948 15.5355 11.9289C14.5979 12.9098 13.3261 13.4609 12 13.4609C10.6739 13.4609 9.40215 12.9098 8.46447 11.9289C7.52678 10.948 7 9.6175 7 8.23023L9.5 8.23023C9.5 8.92387 9.76339 9.58909 10.2322 10.0796C10.7011 10.57 11.337 10.8456 12 10.8456C12.663 10.8456 13.2989 10.57 13.7678 10.0796C14.2366 9.58909 14.5 8.92386 14.5 8.23023H17Z" fill="#4F4C4C"/>
<path d="M17 8.23071C17 6.84344 16.4732 5.51299 15.5355 4.53204C14.5979 3.55109 13.3261 3 12 3C10.6739 3 9.40215 3.55109 8.46447 4.53204C7.52678 5.51299 7 6.84344 7 8.23071L9.5 8.23071C9.5 7.53707 9.76339 6.87185 10.2322 6.38137C10.7011 5.8909 11.337 5.61535 12 5.61535C12.663 5.61535 13.2989 5.8909 13.7678 6.38137C14.2366 6.87185 14.5 7.53707 14.5 8.23071H17Z" fill="#4F4C4C"/>
<path d="M12 19.9975L7.625 10.8438H16.375L12 19.9975Z" fill="#4F4C4C"/>
</svg>
