<svg width="22" height="18" viewBox="0 0 22 18" fill="none" xmlns="http://www.w3.org/2000/svg">
<path d="M20.9332 8.89225L20.9333 8.87833C20.9333 8.78522 20.8964 8.69481 20.8279 8.62636L21.2993 8.15496L20.8279 8.62636L17.6935 5.49195C17.5544 5.35288 17.3323 5.35284 17.1932 5.49182L20.9332 8.89225ZM20.9332 8.89225L20.9325 8.90136C20.9289 8.94738 20.9178 8.98804 20.9031 9.02122C20.878 9.0554 20.8347 9.10714 20.7537 9.19563L20.7484 9.2009L20.742 9.20777C20.6471 9.30814 20.521 9.43427 20.3482 9.60708L20.3382 9.61705L20.3382 9.61709L17.6935 12.2613L17.6935 12.2613L17.6901 12.2647C17.6244 12.3314 17.5364 12.3665 17.442 12.3665C17.3509 12.3665 17.2629 12.3321 17.1964 12.2647L17.1964 12.2646L17.1912 12.2595C17.0549 12.1242 17.0545 11.9016 17.1915 11.7655L17.194 11.763L16.7216 11.2926L17.194 11.763L17.194 11.7629L17.1941 11.7629L17.1945 11.7625L17.1959 11.761L17.2017 11.7553L17.2241 11.7327L17.3099 11.6467L17.6192 11.3367C17.8771 11.0785 18.2251 10.7305 18.586 10.371L19.7294 9.232L18.1155 9.23204L8.87817 9.23224C8.87817 9.23224 8.87816 9.23224 8.87816 9.23224C8.68356 9.23223 8.52421 9.07288 8.52421 8.87828C8.52421 8.68205 8.68237 8.52432 8.87817 8.52432H18.1155H19.725L18.5869 7.38625L17.1932 5.99252C17.1931 5.99248 17.1931 5.99244 17.193 5.9924C17.0541 5.8533 17.0541 5.63106 17.193 5.49194L20.9332 8.89225Z" fill="#4F4C4C" stroke="#4F4C4C" stroke-width="1.33333"/>
<mask id="path-2-inside-1_1567_11308" fill="white">
<path d="M21.4593 9.38873C21.4042 9.49104 21.3253 9.58114 21.2347 9.657C21.334 9.5492 21.4068 9.4646 21.4593 9.38873Z"/>
</mask>
<path d="M21.4593 9.38873C21.4042 9.49104 21.3253 9.58114 21.2347 9.657C21.334 9.5492 21.4068 9.4646 21.4593 9.38873Z" fill="#4F4C4C"/>
<path d="M21.4593 9.38873L22.6331 10.0212L20.3627 8.63024L21.4593 9.38873ZM21.2347 9.657L20.2539 8.75387L22.0912 10.6789L21.2347 9.657ZM20.2855 8.75631C20.3259 8.68121 20.3668 8.64474 20.3782 8.63514L22.0912 10.6789C22.2837 10.5175 22.4824 10.3009 22.6331 10.0212L20.2855 8.75631ZM22.2156 10.5601C22.3202 10.4466 22.447 10.3045 22.5559 10.1472L20.3627 8.63024C20.3677 8.623 20.3645 8.62853 20.345 8.65171C20.3255 8.67483 20.297 8.70701 20.2539 8.75387L22.2156 10.5601Z" fill="#4F4C4C" mask="url(#path-2-inside-1_1567_11308)"/>
<path d="M21.597 8.95465C21.5938 9.11533 21.5708 9.22882 21.4774 9.36285C21.5445 9.24041 21.5854 9.10048 21.597 8.95465Z" fill="#4F4C4C"/>
<path d="M14.876 14.054C15.2519 14.4738 15.2141 15.1183 14.7945 15.4944C13.1676 16.9523 11.0651 17.754 8.87856 17.754C3.98301 17.754 0 13.771 0 8.87856C0 3.98301 3.98296 0 8.87856 0C11.0654 0 13.1676 0.801736 14.7945 2.25963C15.2141 2.6357 15.2519 3.28026 14.876 3.70003C14.5 4.11982 13.8554 4.15786 13.4356 3.78158C12.182 2.65906 10.5636 2.04076 8.87832 2.04076C5.10832 2.04076 2.04081 5.10806 2.04081 8.87827C2.04081 12.6483 5.10811 15.7132 8.87832 15.7132C10.5636 15.7132 12.182 15.0951 13.4356 13.9754C13.8554 13.5994 14.4998 13.6343 14.876 14.0543V14.054Z" fill="#4F4C4C"/>
</svg>
