<svg width="24" height="24" viewBox="0 0 24 24" fill="none" xmlns="http://www.w3.org/2000/svg">
<path fill-rule="evenodd" clip-rule="evenodd" d="M2.99963 10.155L21.4946 5.00992L22.4996 5.80492V18.705L21.4946 19.5L12.3622 17.1076C12.2924 17.3778 12.1878 17.6386 12.0503 17.8834C11.8092 18.3128 11.4734 18.6815 11.0684 18.9617C10.6634 19.2418 10.1999 19.4259 9.71306 19.5001C9.22624 19.5742 8.72891 19.5364 8.25889 19.3895C7.78886 19.2426 7.3585 18.9905 7.00051 18.6524C6.64252 18.3143 6.36631 17.899 6.19288 17.4381C6.01945 16.9772 5.95336 16.4828 5.99963 15.9926C6.01648 15.8141 6.04806 15.6378 6.0938 15.4655L2.99963 14.655L2.36963 13.86V10.95L2.99963 10.155ZM7.50886 15.8362C7.47637 15.9537 7.45643 16.0752 7.44991 16.1987C7.44991 16.6642 7.63482 17.1106 7.96394 17.4397C8.29307 17.7688 8.73946 17.9537 9.20491 17.9537C9.67037 17.9537 10.1168 17.7688 10.4459 17.4397C10.649 17.2366 10.7971 16.9889 10.8808 16.7196L7.50886 15.8362ZM3.86963 13.23L20.9996 17.745V6.74992L3.86963 11.58V13.23Z" fill="#4F4C4C"/>
</svg>
