<svg width="24" height="24" viewBox="0 0 24 24" fill="none" xmlns="http://www.w3.org/2000/svg">
<g clip-path="url(#clip0_1308_2214)">
<path d="M13.3027 3.71233C13.2894 4.29718 12.8023 4.76256 12.2146 4.75195C11.6298 4.73862 11.1644 4.25153 11.175 3.66383C11.1883 3.07898 11.6754 2.6136 12.2631 2.62421C12.8507 2.64039 13.3161 3.12748 13.3027 3.71233ZM15.8616 8.68317C16.4342 10.0922 16.4749 11.8514 16.44 13.3832C16.4 15.1377 17.2026 16.5994 17.9825 17.5924L5.86212 17.3162C6.68642 16.3597 7.5548 14.9361 7.5948 13.1815C7.62971 11.6498 7.75053 9.8943 8.38668 8.51279C9.10785 6.94652 10.311 6.23833 12.177 6.28086C14.0429 6.32339 15.2126 7.08567 15.8616 8.68317ZM11.8453 20.9551C10.6533 20.9279 9.66689 20.0723 9.43891 18.9497L14.3461 19.0616C14.0588 20.1752 13.04 20.9851 11.8453 20.9551ZM12.2983 1.08132C10.8556 1.04844 9.66213 2.18876 9.63209 3.62867C9.62041 4.14111 9.75988 4.62355 10.0041 5.03316C9.59135 5.17143 9.20815 5.35775 8.85735 5.58939C8.06239 6.11462 7.43191 6.88046 6.9777 7.85929C6.22146 9.49721 6.08221 11.4501 6.04361 13.1434C5.98648 15.6499 3.52524 17.3966 3.49986 17.41C3.22249 17.5987 3.10024 17.9498 3.19599 18.2724C3.29173 18.5951 3.58756 18.8191 3.92176 18.8268L7.84861 18.9163C8.07919 20.9027 9.74598 22.4704 11.8042 22.5146C13.8595 22.5614 15.5987 21.0741 15.9195 19.1002L19.8464 19.1897C20.1806 19.1974 20.4863 18.987 20.5967 18.6691C20.707 18.3511 20.6036 17.9977 20.3324 17.7937C20.327 17.788 19.7218 17.32 19.1294 16.5402C18.3476 15.5109 17.962 14.4572 17.9857 13.4156C18.0243 11.7223 17.9742 9.76509 17.2933 8.09442C16.8871 7.09319 16.2893 6.30214 15.5191 5.74123C15.1792 5.49385 14.8049 5.29027 14.3988 5.13333C14.6671 4.73541 14.8228 4.25969 14.8345 3.74725C14.8812 2.30772 13.7409 1.1142 12.2983 1.08132Z" fill="#4F4C4C"/>
</g>
<defs>
<clipPath id="clip0_1308_2214">
<rect width="24" height="24" fill="white"/>
</clipPath>
</defs>
</svg>
