<svg width="24" height="24" viewBox="0 0 24 24" fill="none" xmlns="http://www.w3.org/2000/svg">
<path fill-rule="evenodd" clip-rule="evenodd" d="M11.6875 4.5C11.9361 4.5 12.1746 4.59878 12.3504 4.77459C12.5262 4.9504 12.625 5.18886 12.625 5.4375V10.75H17.9375C18.1861 10.75 18.4246 10.8488 18.6004 11.0246C18.7762 11.2004 18.875 11.4389 18.875 11.6875C18.875 11.9361 18.7762 12.1746 18.6004 12.3504C18.4246 12.5262 18.1861 12.625 17.9375 12.625H12.625V17.9375C12.625 18.1861 12.5262 18.4246 12.3504 18.6004C12.1746 18.7762 11.9361 18.875 11.6875 18.875C11.4389 18.875 11.2004 18.7762 11.0246 18.6004C10.8488 18.4246 10.75 18.1861 10.75 17.9375V12.625H5.4375C5.18886 12.625 4.9504 12.5262 4.77459 12.3504C4.59878 12.1746 4.5 11.9361 4.5 11.6875C4.5 11.4389 4.59878 11.2004 4.77459 11.0246C4.9504 10.8488 5.18886 10.75 5.4375 10.75H10.75V5.4375C10.75 5.18886 10.8488 4.9504 11.0246 4.77459C11.2004 4.59878 11.4389 4.5 11.6875 4.5Z" fill="#4F4C4C"/>
</svg>
