<svg width="16" height="16" viewBox="0 0 16 16" fill="none" xmlns="http://www.w3.org/2000/svg">
<path fill-rule="evenodd" clip-rule="evenodd" d="M10.8189 1.33594C11.1703 1.33594 11.4553 1.63441 11.4553 2.0026V2.66927H12.0916C13.146 2.66927 14.0007 3.5647 14.0007 4.66927V12.6693C14.0007 13.7738 13.146 14.6693 12.0916 14.6693H3.18253C2.12817 14.6693 1.27344 13.7738 1.27344 12.6693V4.66927C1.27344 3.5647 2.12817 2.66927 3.18253 2.66927H3.81889V2.0026C3.81889 1.63441 4.1038 1.33594 4.45526 1.33594C4.80671 1.33594 5.09162 1.63441 5.09162 2.0026V2.66927H10.1825V2.0026C10.1825 1.63441 10.4674 1.33594 10.8189 1.33594ZM2.54616 8.0026V12.6693C2.54616 13.0375 2.83107 13.3359 3.18253 13.3359H12.0916C12.4431 13.3359 12.728 13.0375 12.728 12.6693V8.0026H2.54616ZM2.54616 6.66927H12.728V4.66927C12.728 4.30108 12.4431 4.0026 12.0916 4.0026H11.4553V4.66927C11.4553 5.03746 11.1703 5.33594 10.8189 5.33594C10.4674 5.33594 10.1825 5.03746 10.1825 4.66927V4.0026H5.09162V4.66927C5.09162 5.03746 4.80671 5.33594 4.45526 5.33594C4.1038 5.33594 3.81889 5.03746 3.81889 4.66927V4.0026H3.18253C2.83107 4.0026 2.54616 4.30108 2.54616 4.66927V6.66927Z" fill="#4F4C4C"/>
</svg>
