<svg width="24" height="24" viewBox="0 0 24 24" fill="none" xmlns="http://www.w3.org/2000/svg">
<path d="M5.61111 2C4.65338 2 3.73488 2.38046 3.05767 3.05767C2.38046 3.73488 2 4.65338 2 5.61111V18.3889C2 19.3466 2.38046 20.2651 3.05767 20.9423C3.73488 21.6195 4.65338 22 5.61111 22H18.3889C19.3466 22 20.2651 21.6195 20.9423 20.9423C21.6195 20.2651 22 19.3466 22 18.3889V5.61111C22 4.65338 21.6195 3.73488 20.9423 3.05767C20.2651 2.38046 19.3466 2 18.3889 2H5.61111ZM3.66667 5.61111C3.66667 4.53778 4.53778 3.66667 5.61111 3.66667H18.3889C19.4622 3.66667 20.3333 4.53778 20.3333 5.61111V18.3889C20.3333 18.9046 20.1285 19.3992 19.7638 19.7638C19.3992 20.1285 18.9046 20.3333 18.3889 20.3333H5.61111C5.09541 20.3333 4.60084 20.1285 4.23618 19.7638C3.87153 19.3992 3.66667 18.9046 3.66667 18.3889V5.61111Z" fill="#4F4C4C"/>
</svg>
