<svg width="18" height="20" viewBox="0 0 18 20" fill="none" xmlns="http://www.w3.org/2000/svg">
<path fill-rule="evenodd" clip-rule="evenodd" d="M12.6 1.55556V2.66667H17.325C17.6978 2.66667 18 2.96514 18 3.33333C18 3.70152 17.6978 4 17.325 4H0.675C0.302208 4 0 3.70152 0 3.33333C0 2.96514 0.302208 2.66667 0.675 2.66667H5.4V1.55556C5.4 0.696446 6.10515 0 6.975 0H11.025C11.8948 0 12.6 0.696446 12.6 1.55556ZM6.75 1.55556C6.75 1.43283 6.85074 1.33333 6.975 1.33333H11.025C11.1493 1.33333 11.25 1.43283 11.25 1.55556V2.66667H6.75V1.55556Z" fill="#FF4F4F"/>
<path d="M2.69691 5.49133C2.661 5.12486 2.33109 4.85652 1.96003 4.89198C1.58897 4.92745 1.31728 5.25329 1.35319 5.61977L2.62448 18.5943C2.70261 19.3916 3.38107 20 4.19216 20H13.8079C14.619 20 15.2975 19.3916 15.3756 18.5943L16.6469 5.61977C16.6828 5.25329 16.4111 4.92745 16.0401 4.89198C15.669 4.85652 15.3391 5.12486 15.3032 5.49133L14.0319 18.4659C14.0207 18.5798 13.9238 18.6667 13.8079 18.6667H4.19216C4.07629 18.6667 3.97936 18.5798 3.9682 18.4658L2.69691 5.49133Z" fill="#FF4F4F"/>
<path d="M6.48538 6.66781C6.85753 6.64619 7.17696 6.92663 7.19886 7.29418L7.64886 14.8497C7.67075 15.2173 7.38681 15.5328 7.01466 15.5544C6.64251 15.576 6.32308 15.2956 6.30119 14.928L5.85119 7.37248C5.82929 7.00492 6.11323 6.68943 6.48538 6.66781Z" fill="#FF4F4F"/>
<path d="M12.1489 7.37248C12.1707 7.00492 11.8868 6.68943 11.5147 6.66781C11.1425 6.64619 10.8231 6.92663 10.8012 7.29418L10.3512 14.8497C10.3293 15.2173 10.6132 15.5328 10.9854 15.5544C11.3575 15.576 11.677 15.2956 11.6989 14.928L12.1489 7.37248Z" fill="#FF4F4F"/>
</svg>
