<svg width="24" height="24" viewBox="0 0 24 24" fill="none" xmlns="http://www.w3.org/2000/svg">
<path d="M13.1001 8C13.1001 10.7614 10.8615 13 8.10009 13C5.33867 13 3.10009 10.7614 3.10009 8C3.10009 5.23858 5.33867 3 8.10009 3C10.8615 3 13.1001 5.23858 13.1001 8Z" fill="#4F4C4C"/>
<path d="M0.68103 18.1803C1.51516 15.735 4.03333 14.5 6.61694 14.5H9L10 15.5C10 15.5 10 15.5 10 15.5C10 15.5 12.7571 18.2571 14.7471 21.5686C14.8618 21.7596 14.7228 22 14.5 22V22H14H1C0.447716 22 -0.00418628 21.5509 0.0502614 21.0013C0.150135 19.9932 0.389302 19.0355 0.68103 18.1803Z" fill="#4F4C4C"/>
<path fill-rule="evenodd" clip-rule="evenodd" d="M16.5 20C19.5376 20 22 17.5376 22 14.5C22 11.4624 19.5376 9 16.5 9C13.4624 9 11 11.4624 11 14.5C11 17.5376 13.4624 20 16.5 20ZM16.5 22C20.6421 22 24 18.6421 24 14.5C24 10.3579 20.6421 7 16.5 7C12.3579 7 9 10.3579 9 14.5C9 18.6421 12.3579 22 16.5 22Z" fill="#E45A63"/>
<path d="M13.2856 14.5H19.7142" stroke="#E45A63" stroke-width="1.5"/>
</svg>
