<svg width="24" height="24" viewBox="0 0 24 24" fill="none" xmlns="http://www.w3.org/2000/svg">
<path d="M13.1001 8C13.1001 10.7614 10.8615 13 8.10009 13C5.33867 13 3.10009 10.7614 3.10009 8C3.10009 5.23858 5.33867 3 8.10009 3C10.8615 3 13.1001 5.23858 13.1001 8Z" fill="#4F4C4C"/>
<path d="M0.68103 18.1803C1.51516 15.735 4.03333 14.5 6.61694 14.5H9L10 15.5C10 15.5 10 15.5 10 15.5C10 15.5 12.7571 18.2571 14.7471 21.5686C14.8618 21.7596 14.7228 22 14.5 22H14H1C0.447716 22 -0.00418628 21.5509 0.0502614 21.0013C0.150135 19.9932 0.389302 19.0355 0.68103 18.1803Z" fill="#4F4C4C"/>
<path fill-rule="evenodd" clip-rule="evenodd" d="M16 12H17.2V14.5L19 15.75L18.4 17L16 15.125V12Z" fill="#FFBC59" stroke="#FFBC59" stroke-width="0.5"/>
<path fill-rule="evenodd" clip-rule="evenodd" d="M16.5 19.8571C19.4587 19.8571 21.8571 17.4587 21.8571 14.5C21.8571 11.5413 19.4587 9.14286 16.5 9.14286C13.5413 9.14286 11.1429 11.5413 11.1429 14.5C11.1429 17.4587 13.5413 19.8571 16.5 19.8571ZM16.5 22C20.6421 22 24 18.6421 24 14.5C24 10.3579 20.6421 7 16.5 7C12.3579 7 9 10.3579 9 14.5C9 18.6421 12.3579 22 16.5 22Z" fill="#FFBC59"/>
</svg>
