<svg width="24" height="24" viewBox="0 0 24 24" fill="none" xmlns="http://www.w3.org/2000/svg">
<path fill-rule="evenodd" clip-rule="evenodd" d="M13.1784 4.25095C13.6885 4.48048 14.1021 4.85272 14.3571 5.31179L21.7212 18.5671C22.3721 19.7388 21.8444 21.1637 20.5425 21.7496C20.1765 21.9143 19.7729 22 19.3638 22H4.63567C3.18003 22 2 20.938 2 19.6279C2 19.2596 2.09527 18.8964 2.27826 18.5671L9.64229 5.31179C10.2933 4.14002 11.8765 3.66506 13.1784 4.25095ZM11.2372 6.22439L4.09002 19.0894C4.03082 19.1959 4 19.3134 4 19.4326C4 19.8564 4.38176 20.2 4.85269 20.2H19.1471C19.2795 20.2 19.4101 20.1723 19.5285 20.119C19.9497 19.9294 20.1204 19.4685 19.9098 19.0894L12.7626 6.22439C12.6801 6.07587 12.5463 5.95545 12.3812 5.88119C11.96 5.69164 11.4478 5.8453 11.2372 6.22439ZM12 16.6C12.5523 16.6 13 17.0029 13 17.5C13 17.9971 12.5523 18.4 12 18.4C11.4477 18.4 11 17.9971 11 17.5C11 17.0029 11.4477 16.6 12 16.6ZM12 9.4C12.5523 9.4 13 9.80294 13 10.3V13.9C13 14.3971 12.5523 14.8 12 14.8C11.4477 14.8 11 14.3971 11 13.9V10.3C11 9.80294 11.4477 9.4 12 9.4Z" fill="#FF4F4F"/>
</svg>
