<svg width="24" height="24" viewBox="0 0 24 24" fill="none" xmlns="http://www.w3.org/2000/svg">
<path fill-rule="evenodd" clip-rule="evenodd" d="M18.1454 19.6818C18.5697 20.1061 19.2575 20.1061 19.6817 19.6818C20.1061 19.2576 20.1061 18.5697 19.6817 18.1454L13.5364 12L19.6818 5.85455C20.1061 5.43029 20.1061 4.74245 19.6818 4.31819C19.2575 3.89394 18.5697 3.89394 18.1454 4.31819L12 10.4636L5.85455 4.3182C5.43029 3.89395 4.74245 3.89395 4.31819 4.3182C3.89394 4.74246 3.89394 5.43032 4.31819 5.85458L10.4636 12L4.3182 18.1454C3.89395 18.5697 3.89395 19.2575 4.3182 19.6818C4.74246 20.1061 5.43031 20.1061 5.85456 19.6818L12 13.5364L18.1454 19.6818Z" fill="white"/>
</svg>
