<svg width="348" height="297" viewBox="0 0 348 297" fill="none" xmlns="http://www.w3.org/2000/svg">
<g clip-path="url(#clip0_2846_13765)">
<path opacity="0.1" d="M346.404 204.773C336.9 156.792 281.214 118.444 270.353 68.4445C250.613 4.83142 185.55 -5.22593 143.27 22.4012C76.2776 66.1767 147.744 77.0399 16.3943 180.61C-16.039 206.184 -5.70428 319.072 96.329 293.164C151.239 279.222 167.931 277.265 192.63 274.97C254.884 269.184 362.359 285.315 346.404 204.773Z" fill="#62B3B9"/>
<path d="M272.035 216.798L175.815 267.671L79.7402 216.798V139.976H272.035V216.798Z" fill="white"/>
<path d="M175.815 268.452C175.687 268.452 175.562 268.42 175.45 268.36L79.3782 217.488C79.2533 217.422 79.1486 217.323 79.0755 217.202C79.0023 217.081 78.9634 216.942 78.9629 216.801V139.976C78.9629 139.769 79.045 139.571 79.1912 139.425C79.3374 139.278 79.5356 139.196 79.7423 139.196H272.034C272.241 139.196 272.439 139.278 272.586 139.425C272.732 139.571 272.814 139.769 272.814 139.976V216.798C272.813 216.94 272.774 217.078 272.701 217.199C272.628 217.32 272.524 217.419 272.399 217.485L176.179 268.359C176.067 268.419 175.942 268.451 175.815 268.452ZM80.5193 216.33L175.815 266.789L271.255 216.328V140.757H80.5193V216.33Z" fill="#262626"/>
<path d="M272.034 123.491L175.814 72.6186L219.052 51.7555L315.272 102.629L272.034 123.491Z" fill="white"/>
<path d="M272.034 124.272C271.907 124.272 271.783 124.241 271.67 124.182L175.45 73.3084C175.323 73.2408 175.217 73.1392 175.143 73.0149C175.07 72.8905 175.033 72.7482 175.035 72.6039C175.038 72.4595 175.081 72.3188 175.158 72.1972C175.236 72.0756 175.346 71.978 175.476 71.9151L218.713 51.052C218.823 50.9987 218.944 50.972 219.066 50.9743C219.188 50.9766 219.308 51.0077 219.416 51.0651L315.636 101.939C315.764 102.006 315.87 102.108 315.943 102.232C316.016 102.356 316.054 102.498 316.051 102.643C316.049 102.787 316.006 102.928 315.928 103.049C315.85 103.171 315.74 103.269 315.611 103.331L272.373 124.194C272.267 124.245 272.152 124.272 272.034 124.272ZM177.544 72.6492L272.051 122.616L313.543 102.596L219.036 52.63L177.544 72.6492Z" fill="#262626"/>
<path d="M79.7395 123.491L175.959 72.6186L132.722 51.7555L36.502 102.629L79.7395 123.491Z" fill="white"/>
<path d="M79.7391 124.272C79.6218 124.272 79.5061 124.245 79.4005 124.194L36.1654 103.331C36.0355 103.269 35.9256 103.171 35.8478 103.049C35.77 102.928 35.7274 102.787 35.7247 102.643C35.7221 102.498 35.7595 102.356 35.8328 102.232C35.9061 102.108 36.0124 102.006 36.1398 101.939L132.36 51.0651C132.468 51.0077 132.587 50.9766 132.71 50.9743C132.832 50.972 132.953 50.9987 133.063 51.052L176.3 71.9151C176.43 71.978 176.54 72.0756 176.618 72.1972C176.695 72.3188 176.738 72.4595 176.741 72.6039C176.743 72.7482 176.706 72.8905 176.633 73.0149C176.559 73.1392 176.453 73.2408 176.326 73.3084L80.1057 124.182C79.9927 124.241 79.8668 124.272 79.7391 124.272ZM38.2306 102.597L79.7228 122.618L174.23 72.6505L132.738 52.63L38.2306 102.597Z" fill="#262626"/>
<path d="M79.7406 123.491L175.961 174.365L126.488 201.47L30.2676 150.597L79.7406 123.491Z" fill="white"/>
<path d="M126.487 202.25C126.36 202.25 126.235 202.219 126.122 202.159L29.9025 151.286C29.7783 151.22 29.6742 151.122 29.6013 151.001C29.5284 150.881 29.4893 150.743 29.4883 150.602C29.4873 150.461 29.5243 150.323 29.5955 150.202C29.6667 150.08 29.7693 149.98 29.8926 149.913L79.3656 122.807C79.4786 122.745 79.6053 122.712 79.7341 122.711C79.863 122.711 79.9901 122.742 80.1039 122.802L176.324 173.676C176.448 173.742 176.552 173.84 176.625 173.96C176.698 174.081 176.737 174.219 176.738 174.359C176.739 174.5 176.702 174.639 176.631 174.76C176.56 174.881 176.457 174.981 176.334 175.049L126.861 202.154C126.746 202.217 126.617 202.25 126.487 202.25ZM31.9129 150.584L126.48 200.584L174.314 174.377L79.7466 124.377L31.9129 150.584Z" fill="#262626"/>
<path d="M272.034 123.491L175.814 174.365L225.288 201.47L321.507 150.597L272.034 123.491Z" fill="white"/>
<path d="M225.289 202.25C225.158 202.25 225.029 202.217 224.914 202.154L175.441 175.049C175.318 174.981 175.215 174.881 175.144 174.76C175.073 174.639 175.036 174.5 175.037 174.359C175.038 174.219 175.077 174.081 175.15 173.96C175.223 173.84 175.327 173.742 175.451 173.676L271.671 122.802C271.785 122.742 271.912 122.711 272.041 122.711C272.17 122.712 272.297 122.745 272.41 122.807L321.883 149.913C322.006 149.98 322.109 150.08 322.18 150.202C322.251 150.323 322.288 150.461 322.287 150.602C322.286 150.743 322.247 150.881 322.174 151.001C322.101 151.122 321.997 151.22 321.873 151.286L225.653 202.159C225.541 202.219 225.416 202.25 225.289 202.25ZM177.462 174.377L225.296 200.584L319.864 150.584L272.029 124.377L177.462 174.377Z" fill="#262626"/>
<path d="M175.96 72.6187L79.7402 123.492L175.815 174.365L272.035 123.492L175.96 72.6187Z" fill="#262626"/>
<path d="M176.594 174.364H175.035V267.671H176.594V174.364Z" fill="#262626"/>
<path d="M121.904 118.873C121.775 118.873 121.649 118.833 121.544 118.757C121.409 118.662 121.318 118.516 121.29 118.353C121.262 118.19 121.3 118.022 121.396 117.887C121.511 117.724 132.781 101.415 120.2 86.5462C117.973 83.9008 115.195 81.7749 112.062 80.3175C108.928 78.8601 105.513 78.1064 102.058 78.1093H101.888C103.083 82.264 102.869 85.9581 101.178 88.7921C100.457 90.0727 99.3932 91.1263 98.1065 91.8344C96.8197 92.5424 95.361 92.8767 93.8947 92.7995C92.6809 92.7 91.5225 92.2483 90.5613 91.4997C89.6 90.7511 88.8778 89.7381 88.4829 88.5848C87.0993 84.9719 88.5453 81.4688 92.3564 79.211C94.7708 77.8782 97.4535 77.1057 100.206 76.9507C99.3108 74.5739 98.1463 72.3076 96.7356 70.1961C92.193 63.2511 83.9142 58.4434 74.0209 57.0058C65.6367 55.788 57.6016 57.2224 53.5479 60.6594C53.4217 60.7663 53.2581 60.8187 53.0933 60.8049C52.9285 60.7911 52.7759 60.7124 52.669 60.586C52.5622 60.4596 52.5099 60.2959 52.5236 60.1309C52.5374 59.9659 52.616 59.8131 52.7423 59.7062C57.056 56.0489 65.4783 54.5027 74.1999 55.7736C84.4467 57.263 93.0405 62.2711 97.7794 69.5151C99.3158 71.8125 100.566 74.2895 101.501 76.8908C105.228 76.8012 108.929 77.5499 112.329 79.0817C115.729 80.6136 118.743 82.8897 121.148 85.7422C134.363 101.359 122.531 118.442 122.41 118.613C122.352 118.693 122.276 118.759 122.188 118.804C122.1 118.849 122.003 118.873 121.904 118.873ZM100.611 78.1548C97.9421 78.2688 95.3355 78.9981 92.9943 80.2859C89.7045 82.2347 88.486 85.0974 89.6502 88.1385C89.9656 89.0704 90.5456 89.89 91.319 90.497C92.0924 91.1041 93.0259 91.4724 94.0051 91.5567C95.238 91.612 96.462 91.3229 97.5402 90.7216C98.6184 90.1204 99.5082 89.2308 100.11 88.1523C101.663 85.5493 101.805 82.0893 100.609 78.1548H100.611Z" fill="#292A2E"/>
<path d="M42.7876 70.7235C41.728 71.0422 40.586 70.9342 39.6047 70.4226C38.6234 69.9109 37.8804 69.036 37.5339 67.9841C37.1874 66.9322 37.2647 65.7865 37.7495 64.7909C38.2342 63.7952 39.0881 63.0283 40.1292 62.6535C41.1703 62.2787 42.3165 62.3255 43.3236 62.784C44.3308 63.2425 45.1194 64.0765 45.5215 65.1083C45.9236 66.1402 45.9075 67.2884 45.4765 68.3085C45.0455 69.3286 44.2338 70.14 43.2142 70.57C43.0749 70.6289 42.9325 70.6802 42.7876 70.7235ZM40.7143 63.7873C40.6133 63.8177 40.514 63.8535 40.4169 63.8946C39.6995 64.1975 39.1284 64.7687 38.8255 65.4868C38.5226 66.2048 38.5117 67.0129 38.7951 67.7389C39.0785 68.4648 39.6338 69.0514 40.3428 69.3735C41.0518 69.6957 41.8585 69.728 42.5909 69.4636C43.3234 69.1992 43.9238 68.659 44.2642 67.958C44.6047 67.257 44.6583 66.4507 44.4137 65.7107C44.1691 64.9707 43.6455 64.3556 42.9545 63.9963C42.2635 63.6371 41.4597 63.562 40.7143 63.7873Z" fill="#292A2E"/>
<path d="M42.7795 60.9421C41.7771 61.2417 40.6995 61.1598 39.7538 60.7122C38.8081 60.2645 38.0611 59.4827 37.6564 58.517C37.3319 57.7429 37.2441 56.8897 37.4039 56.0656C37.5638 55.2414 37.9642 54.4832 38.5546 53.8869C39.1449 53.2906 39.8986 52.8829 40.7204 52.7154C41.5422 52.5479 42.3952 52.6281 43.1714 52.946C43.9477 53.2638 44.6123 53.8049 45.0814 54.5009C45.5504 55.1969 45.8027 56.0165 45.8064 56.856C45.8101 57.6955 45.565 58.5173 45.1022 59.2174C44.6393 59.9175 43.9794 60.4645 43.206 60.7892C43.0666 60.8475 42.9242 60.8986 42.7795 60.9421ZM40.7087 54.0052C40.6065 54.0359 40.5059 54.0719 40.4075 54.1132C39.676 54.4208 39.0964 55.0065 38.7962 55.7417C38.4959 56.4769 38.4995 57.3014 38.8062 58.0339C39.0299 58.5679 39.4034 59.0255 39.8814 59.3515C40.3595 59.6774 40.9216 59.8578 41.4999 59.8706C42.0781 59.8835 42.6477 59.7284 43.1398 59.424C43.6318 59.1196 44.0252 58.679 44.2724 58.1555C44.5196 57.632 44.6099 57.048 44.5325 56.4742C44.4551 55.9004 44.2133 55.3613 43.8363 54.9222C43.4593 54.4831 42.9633 54.1627 42.4082 53.9999C41.8531 53.837 41.2628 53.8386 40.7087 54.0046V54.0052Z" fill="#292A2E"/>
<path d="M41.57 65.3566C44.6322 65.3566 47.1146 63.6968 47.1146 61.6494C47.1146 59.6019 44.6322 57.9421 41.57 57.9421C38.5078 57.9421 36.0254 59.6019 36.0254 61.6494C36.0254 63.6968 38.5078 65.3566 41.57 65.3566Z" fill="white"/>
<path d="M44.0242 65.6293C43.2292 65.8645 42.4044 65.9831 41.5755 65.9814C38.116 65.9814 35.4023 64.0838 35.4023 61.6549C35.4023 59.2261 38.1079 57.3216 41.5661 57.3179C43.0739 57.2889 44.5572 57.7011 45.8343 58.5039C46.4079 58.803 46.8886 59.2538 47.2243 59.8072C47.56 60.3606 47.7378 60.9955 47.7384 61.6429C47.7389 62.2904 47.5623 62.9256 47.2276 63.4796C46.8929 64.0336 46.413 64.4852 45.8399 64.7854C45.2797 65.1551 44.6678 65.4395 44.0242 65.6293ZM39.4959 58.8635C37.8298 59.3628 36.6488 60.4408 36.6494 61.6518C36.6494 63.3228 38.9048 64.7329 41.5755 64.7304C42.837 64.757 44.079 64.4152 45.1497 63.7467C45.5512 63.5615 45.8913 63.265 46.1295 62.8922C46.3678 62.5194 46.4942 62.086 46.4938 61.6434C46.4934 61.2009 46.3662 60.7677 46.1273 60.3953C45.8884 60.023 45.5478 59.727 45.1459 59.5426C44.0745 58.8755 42.8319 58.5358 41.5705 58.5651C40.8682 58.5632 40.1693 58.6638 39.4959 58.8635Z" fill="#292A2E"/>
<path d="M42.9299 65.2436L42.799 58.0339L41.0081 57.9615L40.8828 65.3278L42.9299 65.2436Z" fill="#292A2E"/>
<path d="M34.213 63.218C34.5292 63.218 34.7855 62.9614 34.7855 62.6449C34.7855 62.3285 34.5292 62.0719 34.213 62.0719C33.8969 62.0719 33.6406 62.3285 33.6406 62.6449C33.6406 62.9614 33.8969 63.218 34.213 63.218Z" fill="#292A2E"/>
<path d="M34.6603 60.1519C34.9764 60.1519 35.2327 59.8953 35.2327 59.5788C35.2327 59.2624 34.9764 59.0058 34.6603 59.0058C34.3442 59.0058 34.0879 59.2624 34.0879 59.5788C34.0879 59.8953 34.3442 60.1519 34.6603 60.1519Z" fill="#292A2E"/>
<path d="M219.88 82.8745C219.746 82.8745 219.617 82.8316 219.509 82.7522C219.402 82.6727 219.323 82.5609 219.284 82.4332C217.216 74.7015 216.664 66.6418 217.659 58.6999C219.271 47.0895 225.667 31.8518 246.984 25.1796C249.984 24.2142 253.061 23.5081 256.181 23.0691C257.185 16.7889 261.006 9.97623 269.552 5.27589C289.856 -5.89255 303.571 4.12796 303.707 4.23033C303.839 4.32967 303.927 4.47754 303.95 4.64143C303.973 4.80532 303.931 4.97179 303.832 5.10424C303.732 5.23668 303.585 5.32423 303.421 5.34765C303.257 5.37106 303.091 5.32841 302.959 5.22908C302.829 5.1317 289.722 -4.39444 270.153 6.37077C262.168 10.7634 258.513 17.0679 257.473 22.9206C266.876 21.9936 271.378 25.1334 273.399 27.5048C274.65 28.9308 275.453 30.6937 275.71 32.5736C275.966 34.4536 275.665 36.3676 274.842 38.0771C274.192 39.4589 273.139 40.6108 271.821 41.3808C270.504 42.1508 268.984 42.5026 267.462 42.3898C262.211 42.0815 257.866 37.6595 256.393 31.124C255.907 28.9116 255.778 26.6357 256.01 24.3825C253.076 24.8045 250.181 25.4708 247.357 26.3743C230.743 31.5747 221.168 42.5103 218.894 58.8753C217.919 66.637 218.456 74.5142 220.476 82.0711C220.505 82.1645 220.511 82.2632 220.494 82.3594C220.478 82.4556 220.439 82.5466 220.381 82.6251C220.323 82.7036 220.248 82.7674 220.161 82.8114C220.074 82.8553 219.977 82.8782 219.88 82.8782V82.8745ZM257.282 24.2264C257.022 26.4367 257.133 28.675 257.61 30.8487C258.957 36.8274 262.853 40.868 267.535 41.1433C268.812 41.2348 270.086 40.9381 271.19 40.292C272.295 39.6459 273.179 38.6806 273.726 37.5228C274.439 36.0321 274.698 34.3643 274.471 32.7272C274.244 31.0902 273.541 29.5562 272.449 28.3163C269.533 24.8912 264.212 23.5079 257.282 24.2264Z" fill="#292A2E"/>
<path d="M318.231 10.5393C317.391 10.5375 316.569 10.298 315.859 9.8485C315.15 9.39897 314.581 8.7577 314.22 7.9987C313.859 7.23971 313.719 6.39392 313.818 5.55896C313.916 4.724 314.248 3.93391 314.776 3.27986C315.304 2.62582 316.006 2.13449 316.8 1.86258C317.595 1.59067 318.45 1.54926 319.267 1.74314C320.085 1.93702 320.83 2.35827 321.419 2.95829C322.007 3.5583 322.414 4.31262 322.592 5.13418C322.732 5.78544 322.725 6.45974 322.57 7.10772C322.416 7.75569 322.119 8.36094 321.701 8.87913C321.283 9.39732 320.754 9.81535 320.154 10.1026C319.554 10.3898 318.897 10.539 318.231 10.5393ZM318.241 2.87141C317.577 2.87139 316.93 3.0773 316.389 3.46075C315.848 3.84421 315.438 4.38633 315.218 5.0124C314.997 5.63847 314.975 6.31767 315.157 6.95639C315.338 7.59511 315.712 8.16189 316.228 8.57864C316.745 8.99538 317.377 9.24156 318.039 9.28325C318.701 9.32493 319.36 9.16008 319.924 8.8114C320.488 8.46272 320.931 7.94738 321.19 7.33642C321.45 6.72545 321.514 6.04893 321.373 5.4001C321.221 4.68223 320.827 4.03878 320.256 3.57816C319.685 3.11755 318.974 2.86794 318.241 2.87141Z" fill="#292A2E"/>
<path d="M316.354 20.7271C315.211 20.727 314.112 20.2883 313.283 19.5013C312.453 18.7143 311.956 17.6389 311.895 16.4965C311.834 15.354 312.212 14.2315 312.953 13.3601C313.693 12.4886 314.739 11.9344 315.875 11.8116C317.012 11.6889 318.152 12.0069 319.061 12.7002C319.97 13.3935 320.579 14.4093 320.762 15.5386C320.946 16.6678 320.69 17.8245 320.047 18.7705C319.405 19.7165 318.424 20.3799 317.308 20.6241C316.994 20.6925 316.675 20.7271 316.354 20.7271ZM316.37 13.0586C316.139 13.0587 315.909 13.0836 315.684 13.1329C314.887 13.308 314.188 13.7821 313.73 14.4576C313.272 15.133 313.09 15.9585 313.222 16.7642C313.353 17.5699 313.788 18.2945 314.437 18.7889C315.086 19.2833 315.9 19.5099 316.711 19.4221C317.521 19.3343 318.268 18.9387 318.796 18.3168C319.324 17.6949 319.594 16.894 319.551 16.0788C319.507 15.2636 319.153 14.4962 318.561 13.9344C317.97 13.3726 317.185 13.0592 316.37 13.0586Z" fill="#292A2E"/>
<path d="M323.05 12.3629C323.443 10.2308 321.177 8.02485 317.988 7.4358C314.799 6.84675 311.896 8.09766 311.503 10.2298C311.11 12.3619 313.376 14.5678 316.565 15.1568C319.754 15.7459 322.657 14.495 323.05 12.3629Z" fill="white"/>
<path d="M318.136 15.9275C317.571 15.9266 317.008 15.8743 316.452 15.7714C314.884 15.511 313.426 14.7981 312.256 13.7203C311.744 13.2831 311.351 12.7237 311.112 12.094C310.873 11.4642 310.797 10.7844 310.89 10.1173C311.041 9.46088 311.355 8.85313 311.802 8.35018C312.25 7.84723 312.817 7.4653 313.451 7.23966C314.934 6.67886 316.542 6.53467 318.102 6.8227C319.661 7.11074 321.112 7.82002 322.297 8.87386C322.809 9.31104 323.203 9.87037 323.442 10.5001C323.68 11.1299 323.757 11.8097 323.664 12.4768C323.513 13.1332 323.199 13.741 322.751 14.2439C322.304 14.7469 321.737 15.1288 321.103 15.3545C320.162 15.744 319.153 15.9389 318.136 15.9275ZM316.414 7.91381C315.567 7.90303 314.727 8.06377 313.944 8.38635C313.501 8.53482 313.101 8.79158 312.782 9.13338C312.463 9.47519 312.235 9.89124 312.117 10.3439C312.065 10.8088 312.131 11.2792 312.307 11.7125C312.483 12.1457 312.765 12.5281 313.126 12.8251C314.134 13.7064 315.361 14.2998 316.678 14.543C317.994 14.7863 319.352 14.6705 320.608 14.2078C321.051 14.0593 321.45 13.8025 321.769 13.4607C322.088 13.1189 322.317 12.7029 322.435 12.2502C322.487 11.7853 322.421 11.3148 322.245 10.8814C322.069 10.4481 321.788 10.0657 321.426 9.76898C320.434 8.86248 319.198 8.2653 317.872 8.05052C317.392 7.96098 316.904 7.91523 316.416 7.91381H316.414Z" fill="#292A2E"/>
<path d="M316.557 7.29211L315.303 14.8239L317.153 15.2459L318.704 7.59985L316.557 7.29211Z" fill="#292A2E"/>
<path d="M324.073 15.395C324.408 15.395 324.679 15.1233 324.679 14.7883C324.679 14.4532 324.408 14.1815 324.073 14.1815C323.738 14.1815 323.467 14.4532 323.467 14.7883C323.467 15.1233 323.738 15.395 324.073 15.395Z" fill="#292A2E"/>
<path d="M325.13 12.2889C325.464 12.2889 325.736 12.0173 325.736 11.6822C325.736 11.3471 325.464 11.0754 325.13 11.0754C324.795 11.0754 324.523 11.3471 324.523 11.6822C324.523 12.0173 324.795 12.2889 325.13 12.2889Z" fill="#292A2E"/>
</g>
<defs>
<clipPath id="clip0_2846_13765">
<rect width="348" height="297" fill="white"/>
</clipPath>
</defs>
</svg>
