<svg width="105" height="32" viewBox="0 0 105 32" fill="none" xmlns="http://www.w3.org/2000/svg">
<path d="M27.6819 12.4908C27.6819 10.9624 27.9747 9.52918 28.5603 8.18762C29.1459 6.84945 29.945 5.67431 30.9647 4.66898C31.9843 3.66366 33.1727 2.87231 34.5334 2.29832C35.894 1.72094 37.3477 1.43225 38.8978 1.43225C40.4479 1.43225 41.9016 1.72094 43.2622 2.29832C44.6194 2.87571 45.8113 3.66366 46.8309 4.66898C47.8505 5.67431 48.6532 6.84605 49.2353 8.18762C49.8209 9.52918 50.1137 10.9624 50.1137 12.4908C50.1137 14.0192 49.8209 15.4524 49.2353 16.794C48.6497 18.1356 47.8505 19.3073 46.8309 20.3126C45.8113 21.318 44.6229 22.1093 43.2622 22.6833C41.9016 23.2607 40.4479 23.5494 38.8978 23.5494C37.3477 23.5494 35.7562 23.1418 34.1269 22.3233C33.6377 22.0787 33.1899 21.8172 32.78 21.5387C31.8293 20.89 30.5375 21.5489 30.5375 22.6901V29.1398C30.5375 29.9175 29.9003 30.5459 29.1114 30.5459C28.3226 30.5459 27.6853 29.9175 27.6853 29.1398V12.4942L27.6819 12.4908ZM30.5375 12.4908C30.5375 13.615 30.7545 14.6815 31.1886 15.6868C31.6226 16.6921 32.222 17.5718 32.9833 18.319C33.7445 19.0696 34.6333 19.6605 35.6529 20.0885C36.6725 20.5164 37.7542 20.7304 38.8943 20.7304C40.0345 20.7304 41.1162 20.5164 42.1358 20.0885C43.1554 19.6605 44.0442 19.0696 44.8054 18.319C45.5667 17.5684 46.1661 16.6921 46.6001 15.6868C47.0342 14.6815 47.2512 13.615 47.2512 12.4908C47.2512 11.3666 47.0342 10.3002 46.6001 9.29483C46.1661 8.28951 45.5667 7.41325 44.8054 6.66265C44.0442 5.91205 43.1554 5.32448 42.1358 4.89314C41.1162 4.4652 40.0345 4.25123 38.8943 4.25123C37.7542 4.25123 36.6725 4.4652 35.6529 4.89314C34.6333 5.32109 33.7411 5.91205 32.9833 6.66265C32.222 7.41325 31.6226 8.28951 31.1886 9.29483C30.7545 10.3002 30.5375 11.3666 30.5375 12.4908Z" fill="#62B3B9"/>
<path fill-rule="evenodd" clip-rule="evenodd" d="M38.6591 2.7296C37.3077 2.7296 36.0589 2.9851 34.8954 3.48849L34.8927 3.48964C33.7082 3.99908 32.6825 4.6967 31.8023 5.58149C30.9243 6.46409 30.232 7.49873 29.72 8.69136C29.2529 9.78272 29.0004 10.9488 28.9687 12.2035V29.1999C28.9687 29.2275 28.9888 29.2477 29.0162 29.2477C29.0437 29.2477 29.0638 29.2275 29.0638 29.1999V22.7205C29.0638 20.6945 31.0818 19.4501 32.8148 20.1263C32.4839 19.8712 32.1697 19.5942 31.8724 19.2954C30.9946 18.4168 30.3073 17.3851 29.8137 16.2195C29.3123 15.0353 29.0638 13.7816 29.0638 12.4743C29.0638 11.1669 29.3123 9.9132 29.8137 8.72903C30.3081 7.56163 30.9955 6.53484 31.8703 5.65525C32.7443 4.77291 33.7705 4.08202 34.93 3.58587C36.108 3.08179 37.3552 2.83196 38.6557 2.83196C39.9562 2.83196 41.2034 3.08179 42.3814 3.58587L42.3849 3.58739C43.5417 4.08632 44.5631 4.77262 45.4401 5.65422C46.3153 6.53404 47.0031 7.56117 47.4977 8.72903C47.9991 9.9132 48.2476 11.1669 48.2476 12.4743C48.2476 13.7816 47.9991 15.0353 47.4977 16.2195C47.0031 17.3874 46.3153 18.4145 45.4401 19.2943C44.5649 20.1741 43.5431 20.8655 42.3814 21.3627C41.2034 21.8667 39.9562 22.1166 38.6557 22.1166C37.7203 22.1166 36.8125 21.9873 35.9382 21.7272C36.8839 22.0611 37.7898 22.2189 38.6591 22.2189C40.0104 22.2189 41.2593 21.9634 42.4228 21.4601L42.4255 21.4589C43.6099 20.9495 44.6357 20.2518 45.5158 19.367C46.3947 18.4836 47.0865 17.4522 47.5979 16.2577C48.0987 15.0881 48.3528 13.8327 48.3528 12.4743C48.3528 11.1158 48.0987 9.86042 47.5979 8.6908L47.5968 8.68812C47.09 7.49741 46.396 6.46629 45.5158 5.58149C44.6379 4.6989 43.6086 4.00291 42.4222 3.48825C41.2589 2.98502 40.0102 2.7296 38.6591 2.7296ZM33.8232 0.980692C35.3407 0.324357 36.9561 0 38.6591 0C40.3625 0 41.9783 0.324534 43.4962 0.981233L43.4974 0.98173C44.9853 1.62712 46.3047 2.51421 47.4359 3.65138C48.5647 4.78612 49.4522 6.1088 50.0926 7.61297C50.7455 9.13847 51.0682 10.7624 51.0682 12.4743C51.0682 14.1866 50.7453 15.8109 50.0921 17.3368C49.4494 18.8378 48.5664 20.1607 47.4359 21.2972C46.307 22.4319 44.9912 23.3241 43.4949 23.9679C41.9774 24.6242 40.362 24.9485 38.6591 24.9485C36.8838 24.9485 35.1062 24.4715 33.3434 23.5689C32.8116 23.2978 32.3179 23.0044 31.8607 22.6877L31.8584 22.6861C31.8455 22.6771 31.8375 22.6741 31.8348 22.6732C31.8317 22.6721 31.8297 22.6718 31.8278 22.6718C31.8233 22.6715 31.8131 22.6726 31.8008 22.679C31.7886 22.6854 31.7835 22.6922 31.7826 22.6936C31.7824 22.694 31.7821 22.6945 31.7816 22.6963C31.7811 22.6978 31.7791 22.7051 31.7791 22.7205V29.1999C31.7791 30.735 30.5433 31.9773 29.0162 31.9773C27.4892 31.9773 26.2534 30.735 26.2534 29.1999V13.0433L26.25 13.0399V12.4743C26.25 10.7619 26.5728 9.13759 27.2261 7.61173L27.2266 7.61058C27.8686 6.1148 28.7511 4.78854 29.8823 3.65138C31.0111 2.51662 32.3269 1.62446 33.8232 0.980692ZM38.6557 5.56156C37.7093 5.56156 36.8249 5.74164 35.9935 6.09739C35.1442 6.46084 34.4126 6.95694 33.7935 7.58215L33.7913 7.58434C33.1663 8.21262 32.6729 8.94608 32.3121 9.79813C31.9582 10.6339 31.7791 11.5229 31.7791 12.4743C31.7791 13.4257 31.9582 14.3147 32.3121 15.1504C32.6737 16.0042 33.1672 16.7396 33.7891 17.362L33.7913 17.3642C34.4163 17.9925 35.1459 18.4885 35.9935 18.8512C36.8249 19.2069 37.7093 19.387 38.6557 19.387C39.6021 19.387 40.4865 19.2069 41.3179 18.8512C42.1654 18.4885 42.8951 17.9925 43.5201 17.3642C44.1451 16.7359 44.6385 16.0025 44.9993 15.1504C45.3531 14.3147 45.5323 13.4257 45.5323 12.4743C45.5323 11.5229 45.3531 10.6339 44.9993 9.79813C44.6385 8.94608 44.1451 8.21262 43.5201 7.58434C42.8973 6.95827 42.1679 6.46428 41.3161 6.09664C40.4852 5.74138 39.6014 5.56156 38.6557 5.56156Z" fill="#62B3B9"/>
<path d="M54.8862 12.4095C54.8862 10.8924 55.1728 9.46966 55.7459 8.13796C56.3191 6.80626 57.1046 5.64313 58.0992 4.64519C59.0971 3.64726 60.2602 2.86172 61.5919 2.29196C62.9203 1.71882 64.3464 1.43225 65.8635 1.43225C67.3806 1.43225 68.8034 1.71882 70.1351 2.29196C71.4634 2.86509 72.6299 3.65063 73.6278 4.64519C74.6258 5.64313 75.4113 6.80626 75.9811 8.13796C76.5542 9.46966 76.8408 10.8924 76.8408 12.4095C76.8408 13.9267 76.5542 15.3494 75.9811 16.6811C75.4079 18.0128 74.6258 19.1759 73.6278 20.1738C72.6299 21.1718 71.4668 21.9573 70.1351 22.5271C68.8034 23.1002 67.3806 23.3868 65.8635 23.3868C64.3464 23.3868 62.9236 23.1002 61.5919 22.5271C60.2602 21.9539 59.0971 21.1718 58.0992 20.1738C57.1012 19.1759 56.3157 18.0128 55.7459 16.6811C55.1728 15.3528 54.8862 13.9267 54.8862 12.4095ZM57.6811 12.4095C57.6811 13.5255 57.8935 14.5841 58.3183 15.582C58.7431 16.5799 59.3297 17.4531 60.0748 18.1948C60.8199 18.9399 61.6897 19.5265 62.6876 19.9513C63.6856 20.3761 64.7442 20.5885 65.8601 20.5885C66.9761 20.5885 68.0347 20.3761 69.0326 19.9513C70.0305 19.5265 70.9004 18.9399 71.6454 18.1948C72.3905 17.4498 72.9738 16.5799 73.4019 15.582C73.8267 14.5841 74.0391 13.5255 74.0391 12.4095C74.0391 11.2936 73.8267 10.235 73.4019 9.23704C72.9771 8.2391 72.3905 7.36928 71.6454 6.6242C70.9004 5.87912 70.0305 5.29587 69.0326 4.8677C68.0347 4.44291 66.9761 4.23051 65.8601 4.23051C64.7442 4.23051 63.6856 4.44291 62.6876 4.8677C61.6897 5.2925 60.8165 5.87912 60.0748 6.6242C59.3331 7.36928 58.7431 8.2391 58.3183 9.23704C57.8935 10.235 57.6811 11.2936 57.6811 12.4095Z" fill="#62B3B9"/>
<path fill-rule="evenodd" clip-rule="evenodd" d="M65.8637 2.71534C64.5117 2.71534 63.26 2.96975 62.1011 3.46976L62.0973 3.47141L62.0973 3.4714C60.9132 3.97804 59.8877 4.67175 59.0077 5.55156C58.1302 6.43228 57.4354 7.45915 56.9248 8.64539C56.4241 9.8089 56.1699 11.0577 56.1699 12.4091C56.1699 13.7611 56.4243 15.0128 56.9243 16.1716L56.926 16.1754C57.4328 17.3599 58.1267 18.3857 59.0069 19.2658C59.8858 20.1447 60.9118 20.8365 62.1 21.3479C63.2635 21.8487 64.5123 22.1028 65.8637 22.1028C67.215 22.1028 68.4639 21.8487 69.6274 21.3479L69.63 21.3468C70.8145 20.84 71.8403 20.146 72.7204 19.2658C73.5993 18.387 74.2911 17.361 74.8025 16.1728C75.3033 15.0093 75.5574 13.7604 75.5574 12.4091C75.5574 11.0578 75.3033 9.8089 74.8025 8.64539L74.8014 8.64272C74.2948 7.45868 73.6011 6.43329 72.7215 5.55335C71.8416 4.67657 70.8113 3.98119 69.6268 3.47002C68.4635 2.96943 67.2148 2.71534 65.8637 2.71534ZM61.0273 0.975788C62.5425 0.322324 64.1616 0 65.8637 0C67.5671 0 69.1829 0.322839 70.7008 0.976105L70.702 0.9766C72.1915 1.61931 73.5097 2.50532 74.6388 3.63067L74.6405 3.63229C75.7693 4.76111 76.6568 6.07688 77.2972 7.57319C77.9501 9.09071 78.2728 10.7061 78.2728 12.4091C78.2728 14.1125 77.9499 15.7283 77.2967 17.2462C76.654 18.7394 75.771 20.0554 74.6405 21.1859C73.5116 22.3147 72.1958 23.2022 70.6994 23.8426C69.182 24.4955 67.5666 24.8182 65.8637 24.8182C64.1603 24.8182 62.5444 24.4953 61.0265 23.8421C59.5334 23.1994 58.2174 22.3164 57.0869 21.1859C55.9582 20.0572 55.0707 18.7415 54.4303 17.2454C53.7769 15.7302 53.4546 14.1111 53.4546 12.4091C53.4546 10.7057 53.7774 9.08984 54.4307 7.57196C55.074 6.07718 55.9606 4.76236 57.0853 3.63392L57.0869 3.6323C58.2156 2.50361 59.5312 1.61617 61.0273 0.975788ZM62.1346 3.56713C63.3126 3.06569 64.5598 2.81716 65.8603 2.81716C67.1608 2.81716 68.408 3.06569 69.5859 3.56713L69.5895 3.56865C70.7463 4.06497 71.7677 4.74768 72.6447 5.62467C73.5199 6.4999 74.2077 7.52167 74.7022 8.68342C75.2037 9.8614 75.4522 11.1086 75.4522 12.4091C75.4522 13.7096 75.2037 14.9568 74.7022 16.1348L74.7007 16.1383C74.2044 17.2951 73.5217 18.3165 72.6447 19.1935C71.7695 20.0687 70.7477 20.7565 69.5859 21.251C68.408 21.7525 67.1608 22.001 65.8603 22.001C64.5598 22.001 63.3126 21.7525 62.1346 21.251C60.9733 20.7567 59.9519 20.0693 59.077 19.1946C58.1992 18.3205 57.5119 17.2943 57.0183 16.1348C56.5169 14.9568 56.2683 13.7096 56.2683 12.4091C56.2683 11.1086 56.5169 9.8614 57.0183 8.68342C57.5138 7.51955 58.2052 6.49928 59.0737 5.62685C59.948 4.74857 60.9746 4.06091 62.1346 3.56713ZM65.8603 5.5325C64.9139 5.5325 64.0295 5.71164 63.1981 6.06553C62.3488 6.42708 61.6172 6.92059 60.9981 7.54253C60.3731 8.17032 59.8766 8.90144 59.5167 9.74693C59.1628 10.5783 58.9837 11.4627 58.9837 12.4091C58.9837 13.3555 59.1628 14.2399 59.5167 15.0712C59.8783 15.9206 60.3718 16.6522 60.9937 17.2713L60.9959 17.2735C61.6209 17.8985 62.3505 18.3918 63.1981 18.7526C64.0295 19.1065 64.9139 19.2857 65.8603 19.2857C66.8067 19.2857 67.6911 19.1065 68.5224 18.7526C69.37 18.3918 70.0997 17.8985 70.7247 17.2735C71.3475 16.6507 71.8389 15.9213 72.2046 15.0695C72.558 14.2386 72.7369 13.3548 72.7369 12.4091C72.7369 11.4627 72.5577 10.5783 72.2038 9.74693C71.843 8.89933 71.3497 8.1697 70.7247 7.54471C70.1019 6.92191 69.3725 6.4305 68.5207 6.06478C67.6898 5.71138 66.806 5.5325 65.8603 5.5325Z" fill="#62B3B9"/>
<path d="M81.6135 12.4908C81.6135 10.9624 81.9001 9.52918 82.4732 8.18762C83.0464 6.84945 83.8285 5.67431 84.8265 4.66898C85.8244 3.66366 86.9875 2.87231 88.3192 2.29832C89.6509 1.72094 91.0737 1.43225 92.5908 1.43225C94.1079 1.43225 95.5307 1.72094 96.8624 2.29832C98.1907 2.87571 99.3572 3.66366 100.355 4.66898C101.353 5.67431 102.139 6.84605 102.708 8.18762C103.281 9.52918 103.568 10.9624 103.568 12.4908C103.568 14.0192 103.281 15.4524 102.708 16.794C102.135 18.1356 101.353 19.3073 100.355 20.3126C99.3572 21.318 98.1941 22.1093 96.8624 22.6833C95.5307 23.2607 94.1079 23.5494 92.5908 23.5494C91.0737 23.5494 89.5161 23.1418 87.9214 22.3233C87.4427 22.0787 87.0044 21.8172 86.6032 21.5387C85.6727 20.89 84.4084 21.5489 84.4084 22.6901V29.1398C84.4084 29.9175 83.7847 30.5459 83.0127 30.5459C82.2406 30.5459 81.6169 29.9175 81.6169 29.1398V12.4942L81.6135 12.4908ZM84.4084 12.4908C84.4084 13.615 84.6208 14.6815 85.0456 15.6868C85.4704 16.6921 86.057 17.5718 86.8021 18.319C87.5472 19.0696 88.417 19.6605 89.4149 20.0885C90.4129 20.5164 91.4715 20.7304 92.5874 20.7304C93.7034 20.7304 94.762 20.5164 95.7599 20.0885C96.7578 19.6605 97.6277 19.0696 98.3727 18.319C99.1178 17.5684 99.7044 16.6921 100.129 15.6868C100.554 14.6815 100.766 13.615 100.766 12.4908C100.766 11.3666 100.554 10.3002 100.129 9.29483C99.7044 8.28951 99.1178 7.41325 98.3727 6.66265C97.6277 5.91205 96.7578 5.32448 95.7599 4.89314C94.762 4.4652 93.7034 4.25123 92.5874 4.25123C91.4715 4.25123 90.4129 4.4652 89.4149 4.89314C88.417 5.32109 87.5438 5.91205 86.8021 6.66265C86.057 7.41325 85.4704 8.28951 85.0456 9.29483C84.6208 10.3002 84.4084 11.3666 84.4084 12.4908Z" fill="#62B3B9"/>
<path fill-rule="evenodd" clip-rule="evenodd" d="M92.591 2.7296C91.2396 2.7296 89.9908 2.9851 88.8273 3.48849L88.8246 3.48964C87.6401 3.99908 86.6144 4.6967 85.7342 5.58149C84.8562 6.46408 84.1639 7.49873 83.6519 8.69136C83.1847 9.78272 82.9323 10.9488 82.9006 12.2035V29.1999C82.9006 29.2275 82.9207 29.2477 82.9481 29.2477C82.9756 29.2477 82.9957 29.2275 82.9957 29.1999V22.7205C82.9957 20.6945 85.0137 19.4501 86.7467 20.1263C86.4158 19.8712 86.1016 19.5942 85.8043 19.2954C84.9265 18.4168 84.2392 17.3851 83.7456 16.2195C83.2442 15.0353 82.9957 13.7816 82.9957 12.4743C82.9957 11.1669 83.2442 9.9132 83.7456 8.72903C84.24 7.56162 84.9274 6.53484 85.8021 5.65525C86.6762 4.77291 87.7024 4.08202 88.8619 3.58587C90.0399 3.08179 91.2871 2.83196 92.5876 2.83196C93.8881 2.83196 95.1353 3.08179 96.3132 3.58587L96.3168 3.58739C97.4736 4.08632 98.495 4.77262 99.372 5.65422C100.247 6.53404 100.935 7.56117 101.43 8.72903C101.931 9.9132 102.18 11.1669 102.18 12.4743C102.18 13.7816 101.931 15.0353 101.43 16.2195C100.935 17.3874 100.247 18.4145 99.372 19.2943C98.4968 20.1741 97.475 20.8655 96.3132 21.3627C95.1353 21.8667 93.8881 22.1166 92.5876 22.1166C91.6522 22.1166 90.7444 21.9873 89.8701 21.7272C90.8158 22.0611 91.7217 22.2189 92.591 22.2189C93.9423 22.2189 95.1912 21.9634 96.3547 21.4601L96.3573 21.4589C97.5418 20.9495 98.5676 20.2518 99.4477 19.367C100.327 18.4836 101.018 17.4522 101.53 16.2577C102.031 15.0881 102.285 13.8327 102.285 12.4743C102.285 11.1158 102.031 9.86042 101.53 8.6908L101.529 8.68812C101.022 7.49741 100.328 6.46629 99.4477 5.58149C98.5697 4.6989 97.5405 4.00291 96.3541 3.48825C95.1908 2.98502 93.9421 2.7296 92.591 2.7296ZM87.7551 0.980692C89.2726 0.324357 90.888 0 92.591 0C94.2944 0 95.9102 0.324534 97.4281 0.981233L97.4293 0.98173C98.9172 1.62712 100.237 2.51421 101.368 3.65138C102.497 4.78612 103.384 6.1088 104.024 7.61297C104.677 9.13847 105 10.7624 105 12.4743C105 14.1866 104.677 15.8109 104.024 17.3368C103.381 18.8378 102.498 20.1607 101.368 21.2972C100.239 22.4319 98.9231 23.3241 97.4268 23.9679C95.9093 24.6242 94.2939 24.9485 92.591 24.9485C90.8157 24.9485 89.0381 24.4715 87.2753 23.5689C86.7435 23.2978 86.2498 23.0044 85.7926 22.6877L85.7903 22.6861C85.7773 22.6771 85.7694 22.6741 85.7667 22.6732L85.7634 22.6722L85.7597 22.6718C85.7551 22.6715 85.745 22.6726 85.7327 22.679C85.7204 22.6854 85.7145 22.6936 85.7145 22.6936L85.7139 22.6947L85.7134 22.6963C85.7134 22.6963 85.711 22.7051 85.711 22.7205V29.1999C85.711 30.735 84.4752 31.9773 82.9481 31.9773C81.421 31.9773 80.1853 30.735 80.1853 29.1999V13.0433L80.1819 13.0399V12.4743C80.1819 10.7619 80.5047 9.13759 81.158 7.61173L81.1585 7.61058C81.8005 6.1148 82.683 4.78854 83.8142 3.65138C84.943 2.51662 86.2588 1.62446 87.7551 0.980692ZM92.5876 5.56156C91.6412 5.56156 90.7568 5.74164 89.9254 6.09739C89.0761 6.46084 88.3445 6.95694 87.7254 7.58215L87.7232 7.58434C87.0982 8.21262 86.6048 8.94608 86.244 9.79813C85.8901 10.6339 85.711 11.5229 85.711 12.4743C85.711 13.4257 85.8901 14.3147 86.244 15.1504C86.6056 16.0042 87.0991 16.7396 87.721 17.362L87.7232 17.3642C88.3482 17.9925 89.0778 18.4885 89.9254 18.8512C90.7568 19.2069 91.6412 19.387 92.5876 19.387C93.534 19.387 94.4184 19.2069 95.2497 18.8512C96.0973 18.4885 96.827 17.9925 97.452 17.3642C98.077 16.7359 98.5703 16.0025 98.9311 15.1504C99.285 14.3147 99.4642 13.4257 99.4642 12.4743C99.4642 11.5229 99.285 10.6339 98.9311 9.79813C98.5703 8.94608 98.077 8.21262 97.452 7.58434C96.8292 6.95828 96.0998 6.46428 95.248 6.09664C94.4171 5.74138 93.5333 5.56156 92.5876 5.56156Z" fill="#62B3B9"/>
<path fill-rule="evenodd" clip-rule="evenodd" d="M9.03254e-05 3.21055C9.03254e-05 1.70108 1.21398 0.477417 2.71139 0.477417H21.6295C22.735 0.477417 23.7298 1.15399 24.1436 2.18734C24.5575 3.22069 24.3076 4.40384 23.5119 5.17756L9.42701 18.8748H21.5312C23.0286 18.8748 24.2425 20.0984 24.2425 21.6079C24.2425 23.1174 23.0286 24.341 21.5312 24.341H2.71139C1.6059 24.341 0.611122 23.6645 0.197259 22.6311C-0.216604 21.5978 0.0333424 20.4146 0.828954 19.6409L14.9139 5.94367H2.71139C1.21398 5.94367 9.03254e-05 4.72001 9.03254e-05 3.21055Z" fill="#62B3B9"/>
</svg>
