<svg width="148" height="40" viewBox="0 0 148 40" fill="none" xmlns="http://www.w3.org/2000/svg">
<g clip-path="url(#clip0_2286_11893)">
<path d="M4.24103 19.9696C-0.133317 15.5953 4.24103 11.496 4.24103 11.496L10.1881 5.54892C16.5867 -0.849641 26.9619 -0.849641 33.3605 5.54892L33.516 5.525C37.3401 1.70081 43.5444 1.70081 47.3686 5.525C51.1927 9.34919 51.1927 15.5534 47.3686 19.3776L36.8677 29.8784C33.0435 33.7026 26.8393 33.7026 23.0151 29.8784C19.1909 26.0542 19.1909 19.85 23.0151 16.0258" stroke="white" stroke-width="2" stroke-linecap="round" stroke-linejoin="round"/>
<path d="M46.7457 20.0377C51.12 24.4121 46.7457 28.5114 46.7457 28.5114L40.7986 34.4584C34.4 40.857 24.0248 40.857 17.6262 34.4584L17.4707 34.4824C13.6465 38.3065 7.44233 38.3065 3.61814 34.4824C-0.206047 30.6582 -0.206047 24.454 3.61814 20.6298L14.116 10.126C17.9402 6.30177 24.1444 6.30177 27.9686 10.126C31.7928 13.9501 31.7928 20.1544 27.9686 23.9785" stroke="white" stroke-width="2" stroke-linecap="round" stroke-linejoin="round"/>
<path d="M4.24103 19.9696C-0.133317 15.5953 4.24103 11.496 4.24103 11.496L10.1881 5.54892C16.5867 -0.849641 26.9619 -0.849641 33.3605 5.54892L33.516 5.525C37.3401 1.70081 43.5444 1.70081 47.3686 5.525C51.1927 9.34919 51.1927 15.5534 47.3686 19.3776L36.8677 29.8784C33.0435 33.7026 26.8393 33.7026 23.0151 29.8784C19.1909 26.0542 19.1909 19.85 23.0151 16.0258" stroke="white" stroke-width="2" stroke-linecap="round" stroke-linejoin="round"/>
<path d="M46.7457 20.0377C51.12 24.4121 46.7457 28.5114 46.7457 28.5114L40.7986 34.4584C34.4 40.857 24.0248 40.857 17.6262 34.4584L17.4707 34.4824C13.6465 38.3065 7.44233 38.3065 3.61814 34.4824C-0.206047 30.6582 -0.206047 24.454 3.61814 20.6298L14.116 10.126C17.9402 6.30177 24.1444 6.30177 27.9686 10.126C31.7928 13.9501 31.7928 20.1544 27.9686 23.9785" stroke="white" stroke-width="2" stroke-linecap="round" stroke-linejoin="round"/>
<path d="M78.9102 20.1521C78.9102 18.8235 79.1611 17.5776 79.663 16.4114C80.1649 15.2481 80.8499 14.2266 81.7238 13.3527C82.5977 12.4788 83.6163 11.7909 84.7825 11.2919C85.9487 10.79 87.1946 10.5391 88.5232 10.5391C89.8517 10.5391 91.0977 10.79 92.2639 11.2919C93.4271 11.7938 94.4486 12.4788 95.3225 13.3527C96.1964 14.2266 96.8844 15.2452 97.3833 16.4114C97.8852 17.5776 98.1362 18.8235 98.1362 20.1521C98.1362 21.4806 97.8852 22.7266 97.3833 23.8928C96.8814 25.059 96.1964 26.0775 95.3225 26.9514C94.4486 27.8253 93.4301 28.5133 92.2639 29.0122C91.0977 29.5141 89.8517 29.7651 88.5232 29.7651C87.1946 29.7651 85.8306 29.4108 84.4341 28.6993C84.0148 28.4867 83.631 28.2594 83.2797 28.0173C82.4648 27.4533 81.3577 28.0261 81.3577 29.0181V34.6247C81.3577 35.3008 80.8115 35.847 80.1354 35.847C79.4593 35.847 78.9131 35.3008 78.9131 34.6247V20.155L78.9102 20.1521ZM81.3577 20.1521C81.3577 21.1293 81.5437 22.0564 81.9157 22.9303C82.2877 23.8042 82.8014 24.5689 83.4539 25.2184C84.1064 25.8709 84.8681 26.3846 85.742 26.7566C86.6159 27.1286 87.543 27.3146 88.5202 27.3146C89.4975 27.3146 90.4245 27.1286 91.2984 26.7566C92.1723 26.3846 92.934 25.8709 93.5865 25.2184C94.239 24.5659 94.7527 23.8042 95.1247 22.9303C95.4967 22.0564 95.6827 21.1293 95.6827 20.1521C95.6827 19.1748 95.4967 18.2478 95.1247 17.3739C94.7527 16.5 94.239 15.7382 93.5865 15.0858C92.934 14.4333 92.1723 13.9225 91.2984 13.5476C90.4245 13.1756 89.4975 12.9896 88.5202 12.9896C87.543 12.9896 86.6159 13.1756 85.742 13.5476C84.8681 13.9196 84.1034 14.4333 83.4539 15.0858C82.8014 15.7382 82.2877 16.5 81.9157 17.3739C81.5437 18.2478 81.3577 19.1748 81.3577 20.1521Z" fill="#62B3B9"/>
<path fill-rule="evenodd" clip-rule="evenodd" d="M88.5244 11.7213C87.349 11.7213 86.2627 11.9424 85.2506 12.378L85.2483 12.379C84.218 12.8198 83.3257 13.4234 82.5601 14.189C81.7964 14.9527 81.1942 15.848 80.7488 16.88C80.3425 17.8243 80.1229 18.8333 80.0953 19.9191V34.626C80.0953 34.6499 80.1128 34.6673 80.1367 34.6673C80.1606 34.6673 80.178 34.6499 80.178 34.626V29.0194C80.178 27.2663 81.9334 26.1895 83.4408 26.7746C83.153 26.5539 82.8797 26.3142 82.6211 26.0557C81.8575 25.2954 81.2597 24.4027 80.8304 23.3941C80.3942 22.3694 80.178 21.2846 80.178 20.1533C80.178 19.0221 80.3942 17.9373 80.8304 16.9126C81.2604 15.9024 81.8583 15.014 82.6192 14.2529C83.3795 13.4894 84.2722 12.8915 85.2807 12.4622C86.3054 12.026 87.3902 11.8099 88.5215 11.8099C89.6527 11.8099 90.7376 12.026 91.7622 12.4622L91.7653 12.4635C92.7715 12.8953 93.66 13.4891 94.4229 14.252C95.1842 15.0133 95.7824 15.902 96.2126 16.9126C96.6488 17.9373 96.865 19.0221 96.865 20.1533C96.865 21.2846 96.6488 22.3694 96.2126 23.3941C95.7824 24.4046 95.1842 25.2934 94.4229 26.0547C93.6616 26.816 92.7728 27.4143 91.7622 27.8445C90.7376 28.2806 89.6527 28.4968 88.5215 28.4968C87.7078 28.4968 86.9182 28.385 86.1577 28.1599C86.9803 28.4488 87.7683 28.5854 88.5244 28.5854C89.6999 28.5854 90.7862 28.3643 91.7983 27.9287L91.8006 27.9277C92.8309 27.4869 93.7231 26.8833 94.4887 26.1176C95.2532 25.3532 95.855 24.4607 96.2998 23.4272C96.7354 22.4151 96.9565 21.3288 96.9565 20.1533C96.9565 18.9779 96.7354 17.8916 96.2998 16.8795L96.2988 16.8772C95.858 15.8469 95.2544 14.9546 94.4887 14.189C93.725 13.4253 92.8298 12.8231 91.7978 12.3777C90.7859 11.9423 89.6997 11.7213 88.5244 11.7213ZM84.318 10.208C85.638 9.64004 87.0431 9.35938 88.5244 9.35938C90.0061 9.35938 91.4117 9.64019 92.732 10.2084L92.733 10.2089C94.0273 10.7673 95.1749 11.5349 96.1589 12.5189C97.1408 13.5008 97.9128 14.6453 98.4698 15.9469C99.0377 17.2669 99.3184 18.672 99.3184 20.1533C99.3184 21.635 99.0376 23.0406 98.4693 24.3609C97.9104 25.6597 97.1422 26.8044 96.1589 27.7878C95.177 28.7697 94.0324 29.5417 92.7308 30.0988C91.4108 30.6667 90.0057 30.9473 88.5244 30.9473C86.9802 30.9473 85.434 30.5345 83.9007 29.7535C83.438 29.5189 83.0086 29.265 82.6109 28.991L82.6089 28.9896C82.5976 28.9818 82.5907 28.9792 82.5884 28.9784C82.5857 28.9775 82.5839 28.9773 82.5823 28.9772C82.5783 28.977 82.5695 28.9779 82.5588 28.9835C82.5482 28.989 82.5437 28.9949 82.543 28.9961C82.5428 28.9964 82.5425 28.9969 82.5421 28.9984C82.5417 28.9997 82.5399 29.006 82.5399 29.0194V34.626C82.5399 35.9543 81.465 37.0292 80.1367 37.0292C78.8083 37.0292 77.7334 35.9543 77.7334 34.626V20.6457L77.7305 20.6428V20.1533C77.7305 18.6716 78.0113 17.2661 78.5795 15.9458L78.58 15.9448C79.1384 14.6505 79.906 13.5029 80.89 12.5189C81.8719 11.537 83.0164 10.765 84.318 10.208ZM88.5215 14.1718C87.6982 14.1718 86.929 14.3276 86.2058 14.6354C85.467 14.9499 84.8307 15.3792 84.2921 15.9202L84.2902 15.9221C83.7466 16.4657 83.3174 17.1004 83.0036 17.8377C82.6957 18.5608 82.5399 19.3301 82.5399 20.1533C82.5399 20.9766 82.6957 21.7458 83.0036 22.469C83.3181 23.2078 83.7473 23.8442 84.2883 24.3827L84.2902 24.3846C84.8339 24.9282 85.4685 25.3574 86.2058 25.6712C86.929 25.9791 87.6982 26.1349 88.5215 26.1349C89.3447 26.1349 90.114 25.9791 90.8371 25.6712C91.5744 25.3574 92.2091 24.9282 92.7527 24.3846C93.2964 23.8409 93.7256 23.2063 94.0394 22.469C94.3472 21.7458 94.503 20.9766 94.503 20.1533C94.503 19.3301 94.3472 18.5608 94.0394 17.8377C93.7256 17.1004 93.2964 16.4657 92.7527 15.9221C92.211 15.3804 91.5766 14.9529 90.8356 14.6348C90.1129 14.3274 89.3441 14.1718 88.5215 14.1718Z" fill="#62B3B9"/>
<path d="M102.301 20.113C102.301 18.7844 102.552 17.5385 103.054 16.3723C103.556 15.2061 104.243 14.1875 105.114 13.3136C105.988 12.4397 107.007 11.7518 108.173 11.2529C109.336 10.751 110.585 10.5 111.914 10.5C113.242 10.5 114.488 10.751 115.654 11.2529C116.818 11.7548 117.839 12.4427 118.713 13.3136C119.587 14.1875 120.275 15.2061 120.774 16.3723C121.276 17.5385 121.527 18.7844 121.527 20.113C121.527 21.4416 121.276 22.6875 120.774 23.8537C120.272 25.0199 119.587 26.0385 118.713 26.9124C117.839 27.7863 116.821 28.4742 115.654 28.9732C114.488 29.4751 113.242 29.726 111.914 29.726C110.585 29.726 109.339 29.4751 108.173 28.9732C107.007 28.4712 105.988 27.7863 105.114 26.9124C104.241 26.0385 103.553 25.0199 103.054 23.8537C102.552 22.6905 102.301 21.4416 102.301 20.113ZM104.748 20.113C104.748 21.0903 104.934 22.0173 105.306 22.8912C105.678 23.7651 106.192 24.5298 106.845 25.1793C107.497 25.8318 108.259 26.3455 109.133 26.7175C110.007 27.0895 110.934 27.2755 111.911 27.2755C112.888 27.2755 113.815 27.0895 114.689 26.7175C115.563 26.3455 116.325 25.8318 116.977 25.1793C117.63 24.5268 118.14 23.7651 118.515 22.8912C118.887 22.0173 119.073 21.0903 119.073 20.113C119.073 19.1358 118.887 18.2087 118.515 17.3348C118.143 16.4609 117.63 15.6992 116.977 15.0467C116.325 14.3942 115.563 13.8834 114.689 13.5085C113.815 13.1365 112.888 12.9505 111.911 12.9505C110.934 12.9505 110.007 13.1365 109.133 13.5085C108.259 13.8805 107.494 14.3942 106.845 15.0467C106.195 15.6992 105.678 16.4609 105.306 17.3348C104.934 18.2087 104.748 19.1358 104.748 20.113Z" fill="#62B3B9"/>
<path fill-rule="evenodd" clip-rule="evenodd" d="M111.915 11.6822C110.739 11.6822 109.65 11.9035 108.642 12.3385L108.639 12.3399L108.639 12.3399C107.609 12.7806 106.717 13.384 105.951 14.1493C105.188 14.9154 104.584 15.8086 104.14 16.8405C103.704 17.8525 103.483 18.9388 103.483 20.1143C103.483 21.2903 103.704 22.3791 104.139 23.3871L104.141 23.3904C104.581 24.4208 105.185 25.313 105.951 26.0786C106.715 26.843 107.608 27.4448 108.641 27.8897C109.653 28.3252 110.74 28.5463 111.915 28.5463C113.091 28.5463 114.177 28.3252 115.189 27.8897L115.191 27.8887C116.222 27.4478 117.114 26.8442 117.879 26.0786C118.644 25.3141 119.246 24.4217 119.69 23.3881C120.126 22.376 120.347 21.2897 120.347 20.1143C120.347 18.9388 120.126 17.8525 119.69 16.8405L119.689 16.8381C119.249 15.8082 118.645 14.9163 117.88 14.1509C117.115 13.3882 116.219 12.7833 115.188 12.3387C114.176 11.9032 113.09 11.6822 111.915 11.6822ZM107.708 10.1691C109.026 9.60068 110.435 9.32031 111.915 9.32031C113.397 9.32031 114.802 9.60113 116.123 10.1694L116.124 10.1698C117.419 10.7289 118.566 11.4996 119.548 12.4784L119.549 12.4798C120.531 13.4617 121.303 14.6063 121.86 15.9078C122.428 17.2278 122.709 18.633 122.709 20.1143C122.709 21.596 122.428 23.0015 121.86 24.3218C121.301 25.6207 120.533 26.7654 119.549 27.7487C118.568 28.7306 117.423 29.5026 116.121 30.0597C114.801 30.6276 113.396 30.9082 111.915 30.9082C110.433 30.9082 109.028 30.6274 107.708 30.0592C106.409 29.5002 105.264 28.7321 104.281 27.7487C103.299 26.7669 102.527 25.6225 101.97 24.3211C101.401 23.0031 101.121 21.5948 101.121 20.1143C101.121 18.6326 101.402 17.2271 101.97 15.9067C102.53 14.6065 103.301 13.4628 104.279 12.4813L104.281 12.4798C105.262 11.4981 106.407 10.7261 107.708 10.1691ZM108.671 12.4232C109.696 11.987 110.781 11.7708 111.912 11.7708C113.043 11.7708 114.128 11.987 115.153 12.4232L115.156 12.4245C116.162 12.8562 117.051 13.4501 117.813 14.2129C118.575 14.9742 119.173 15.863 119.603 16.8735C120.039 17.8982 120.256 18.983 120.256 20.1143C120.256 21.2455 120.039 22.3304 119.603 23.355L119.602 23.3581C119.17 24.3643 118.576 25.2528 117.813 26.0157C117.052 26.777 116.163 27.3752 115.153 27.8054C114.128 28.2416 113.043 28.4578 111.912 28.4578C110.781 28.4578 109.696 28.2416 108.671 27.8054C107.661 27.3754 106.773 26.7775 106.012 26.0166C105.248 25.2563 104.65 24.3636 104.221 23.355C103.785 22.3304 103.569 21.2455 103.569 20.1143C103.569 18.983 103.785 17.8982 104.221 16.8735C104.652 15.8611 105.253 14.9737 106.009 14.2148C106.769 13.4508 107.662 12.8527 108.671 12.4232ZM111.912 14.1327C111.089 14.1327 110.32 14.2885 109.596 14.5964C108.858 14.9109 108.221 15.3401 107.683 15.8811C107.139 16.4272 106.707 17.0632 106.394 17.7986C106.086 18.5218 105.931 19.291 105.931 20.1143C105.931 20.9375 106.086 21.7068 106.394 22.4299C106.709 23.1688 107.138 23.8051 107.679 24.3436L107.681 24.3455C108.225 24.8892 108.859 25.3183 109.596 25.6322C110.32 25.94 111.089 26.0958 111.912 26.0958C112.735 26.0958 113.505 25.94 114.228 25.6322C114.965 25.3183 115.6 24.8892 116.143 24.3455C116.685 23.8038 117.113 23.1694 117.431 22.4284C117.738 21.7057 117.894 20.9369 117.894 20.1143C117.894 19.291 117.738 18.5218 117.43 17.7986C117.116 17.0613 116.687 16.4267 116.143 15.883C115.602 15.3413 114.967 14.9138 114.226 14.5957C113.504 14.2883 112.735 14.1327 111.912 14.1327Z" fill="#62B3B9"/>
<path d="M125.594 20.1521C125.594 18.8235 125.845 17.5776 126.347 16.4114C126.849 15.2481 127.533 14.2266 128.407 13.3527C129.281 12.4788 130.3 11.7909 131.466 11.2919C132.632 10.79 133.878 10.5391 135.207 10.5391C136.535 10.5391 137.781 10.79 138.947 11.2919C140.111 11.7938 141.132 12.4788 142.006 13.3527C142.88 14.2266 143.568 15.2452 144.067 16.4114C144.569 17.5776 144.82 18.8235 144.82 20.1521C144.82 21.4806 144.569 22.7266 144.067 23.8928C143.565 25.059 142.88 26.0775 142.006 26.9514C141.132 27.8253 140.114 28.5133 138.947 29.0122C137.781 29.5141 136.535 29.7651 135.207 29.7651C133.878 29.7651 132.514 29.4108 131.118 28.6993C130.698 28.4867 130.315 28.2594 129.963 28.0173C129.148 27.4533 128.041 28.0261 128.041 29.0181V34.6247C128.041 35.3008 127.495 35.847 126.819 35.847C126.143 35.847 125.597 35.3008 125.597 34.6247V20.155L125.594 20.1521ZM128.041 20.1521C128.041 21.1293 128.227 22.0564 128.599 22.9303C128.971 23.8042 129.485 24.5689 130.137 25.2184C130.79 25.8709 131.552 26.3846 132.426 26.7566C133.3 27.1286 134.227 27.3146 135.204 27.3146C136.181 27.3146 137.108 27.1286 137.982 26.7566C138.856 26.3846 139.618 25.8709 140.27 25.2184C140.923 24.5659 141.436 23.8042 141.808 22.9303C142.18 22.0564 142.366 21.1293 142.366 20.1521C142.366 19.1748 142.18 18.2478 141.808 17.3739C141.436 16.5 140.923 15.7382 140.27 15.0858C139.618 14.4333 138.856 13.9225 137.982 13.5476C137.108 13.1756 136.181 12.9896 135.204 12.9896C134.227 12.9896 133.3 13.1756 132.426 13.5476C131.552 13.9196 130.787 14.4333 130.137 15.0858C129.485 15.7382 128.971 16.5 128.599 17.3739C128.227 18.2478 128.041 19.1748 128.041 20.1521Z" fill="#62B3B9"/>
<path fill-rule="evenodd" clip-rule="evenodd" d="M135.204 11.7213C134.029 11.7213 132.942 11.9424 131.93 12.378L131.928 12.379C130.898 12.8198 130.005 13.4234 129.24 14.189C128.476 14.9527 127.874 15.848 127.429 16.88C127.022 17.8244 126.803 18.8333 126.775 19.9191V34.626C126.775 34.6499 126.792 34.6673 126.816 34.6673C126.84 34.6673 126.858 34.6499 126.858 34.626V29.0194C126.858 27.2663 128.613 26.1895 130.12 26.7746C129.833 26.5539 129.559 26.3142 129.301 26.0557C128.537 25.2954 127.939 24.4027 127.51 23.3941C127.074 22.3694 126.858 21.2846 126.858 20.1533C126.858 19.0221 127.074 17.9373 127.51 16.9126C127.94 15.9024 128.538 15.014 129.299 14.2529C130.059 13.4894 130.952 12.8915 131.96 12.4622C132.985 12.026 134.07 11.8099 135.201 11.8099C136.332 11.8099 137.417 12.026 138.442 12.4622L138.445 12.4635C139.451 12.8953 140.34 13.4891 141.103 14.252C141.864 15.0133 142.462 15.902 142.892 16.9126C143.328 17.9373 143.545 19.0221 143.545 20.1533C143.545 21.2846 143.328 22.3694 142.892 23.3941C142.462 24.4046 141.864 25.2934 141.103 26.0547C140.341 26.816 139.452 27.4143 138.442 27.8445C137.417 28.2806 136.332 28.4968 135.201 28.4968C134.388 28.4968 133.598 28.385 132.837 28.1599C133.66 28.4488 134.448 28.5854 135.204 28.5854C136.38 28.5854 137.466 28.3643 138.478 27.9287L138.48 27.9277C139.511 27.4869 140.403 26.8833 141.168 26.1176C141.933 25.3532 142.535 24.4607 142.98 23.4272C143.415 22.4151 143.636 21.3288 143.636 20.1533C143.636 18.9779 143.415 17.8916 142.98 16.8795L142.979 16.8772C142.538 15.8469 141.934 14.9546 141.168 14.189C140.405 13.4253 139.509 12.8231 138.477 12.3777C137.466 11.9423 136.379 11.7213 135.204 11.7213ZM130.998 10.208C132.318 9.64004 133.723 9.35938 135.204 9.35938C136.686 9.35938 138.091 9.64019 139.412 10.2084L139.413 10.2089C140.707 10.7673 141.855 11.5349 142.839 12.5189C143.82 13.5008 144.592 14.6453 145.149 15.9469C145.717 17.2669 145.998 18.672 145.998 20.1533C145.998 21.635 145.717 23.0406 145.149 24.3609C144.59 25.6597 143.822 26.8044 142.839 27.7878C141.857 28.7697 140.712 29.5417 139.41 30.0988C138.091 30.6667 136.685 30.9473 135.204 30.9473C133.66 30.9473 132.114 30.5345 130.58 29.7535C130.118 29.5189 129.688 29.265 129.291 28.991L129.289 28.9896C129.277 28.9818 129.27 28.9792 129.268 28.9784C129.267 28.9781 129.266 28.9778 129.265 28.9776C129.264 28.9774 129.263 28.9773 129.262 28.9772C129.258 28.977 129.249 28.9779 129.239 28.9835C129.228 28.989 129.223 28.9949 129.223 28.9961C129.223 28.9963 129.222 28.9966 129.222 28.9971C129.222 28.9974 129.222 28.9978 129.222 28.9984C129.221 28.9997 129.22 29.006 129.22 29.0194V34.626C129.22 35.9543 128.145 37.0292 126.816 37.0292C125.488 37.0292 124.413 35.9543 124.413 34.626V20.6457L124.41 20.6428V20.1533C124.41 18.6716 124.691 17.2661 125.259 15.9458L125.26 15.9448C125.818 14.6505 126.586 13.5029 127.57 12.5189C128.552 11.537 129.696 10.765 130.998 10.208ZM135.201 14.1718C134.378 14.1718 133.609 14.3276 132.886 14.6354C132.147 14.9499 131.51 15.3792 130.972 15.9202L130.97 15.9221C130.426 16.4657 129.997 17.1004 129.683 17.8377C129.375 18.5608 129.22 19.3301 129.22 20.1533C129.22 20.9766 129.375 21.7458 129.683 22.469C129.998 23.2078 130.427 23.8442 130.968 24.3827L130.97 24.3846C131.514 24.9282 132.148 25.3574 132.886 25.6712C133.609 25.9791 134.378 26.1349 135.201 26.1349C136.024 26.1349 136.794 25.9791 137.517 25.6712C138.254 25.3574 138.889 24.9282 139.432 24.3846C139.976 23.8409 140.405 23.2063 140.719 22.469C141.027 21.7458 141.183 20.9766 141.183 20.1533C141.183 19.3301 141.027 18.5608 140.719 17.8377C140.405 17.1004 139.976 16.4657 139.432 15.9221C138.891 15.3804 138.256 14.9529 137.515 14.6348C136.793 14.3274 136.024 14.1718 135.201 14.1718Z" fill="#62B3B9"/>
<path fill-rule="evenodd" clip-rule="evenodd" d="M54.711 12.0494C54.711 10.745 55.7685 9.6875 57.0729 9.6875H73.5532C74.5162 9.6875 75.3828 10.2722 75.7434 11.1652C76.1039 12.0582 75.8862 13.0806 75.1931 13.7493L62.9232 25.5862H73.4676C74.7721 25.5862 75.8295 26.6436 75.8295 27.9481C75.8295 29.2525 74.7721 30.31 73.4676 30.31H57.0729C56.1099 30.31 55.2433 29.7253 54.8828 28.8323C54.5222 27.9393 54.74 26.9169 55.4331 26.2482L67.703 14.4113H57.0729C55.7685 14.4113 54.711 13.3539 54.711 12.0494Z" fill="#62B3B9"/>
<path d="M46.2426 20.4003L46.8744 19.7684C50.6505 15.9923 50.6505 9.8661 46.8744 6.08998C43.0983 2.31386 36.972 2.31386 33.1959 6.08998L33.0424 6.1136C26.7243 -0.204533 16.4794 -0.204533 10.1613 6.1136L4.28603 11.9859C4.28603 11.9859 -0.0333281 16.0337 4.28603 20.353L4.30374 20.3707L3.67193 21.0025C-0.104186 24.7787 -0.104186 30.9049 3.67193 34.681C7.44805 38.4571 13.5743 38.4571 17.3504 34.681L17.5039 34.6574C23.822 40.9755 34.0669 40.9755 40.385 34.6574L46.2573 28.7851C46.2573 28.7851 50.5767 24.7373 46.2573 20.418" fill="url(#paint0_linear_2286_11893)"/>
<path fill-rule="evenodd" clip-rule="evenodd" d="M32.4167 6.53768C26.3868 0.50779 16.6093 0.50779 10.5794 6.53768L4.70711 12.41C4.70191 12.4152 4.69664 12.4203 4.69128 12.4254C4.69105 12.4256 4.69082 12.4258 4.69058 12.426C4.69052 12.4261 4.69046 12.4261 4.69039 12.4262L4.68653 12.4299C4.68153 12.4348 4.67278 12.4433 4.66067 12.4555C4.63644 12.4798 4.59888 12.5184 4.55103 12.5704C4.45516 12.6745 4.3191 12.8311 4.16685 13.0328C3.86011 13.4391 3.49994 14.0121 3.26255 14.6944C3.02655 15.3727 2.91564 16.1468 3.086 16.9772C3.2556 17.8039 3.71502 18.7412 4.70711 19.7333C4.99535 20.0215 4.99535 20.4888 4.70711 20.7771C4.41886 21.0653 3.95152 21.0653 3.66328 20.7771C2.49569 19.6095 1.87527 18.4211 1.63992 17.2739C1.40535 16.1306 1.5644 15.0829 1.86832 14.2093C2.17085 13.3398 2.62056 12.6309 2.98871 12.1433C3.17391 11.898 3.34156 11.7046 3.46503 11.5705C3.52686 11.5033 3.57787 11.4508 3.6148 11.4137C3.63328 11.3951 3.64826 11.3805 3.65933 11.3697C3.66333 11.3658 3.66683 11.3625 3.66979 11.3596L9.5356 5.49384C15.993 -0.963589 26.3732 -1.10917 33.0075 5.05709C37.0945 1.41088 43.3709 1.54859 47.2925 5.47023C51.3569 9.53459 51.3569 16.1282 47.2925 20.1925L36.9237 30.5613C32.8593 34.6257 26.2657 34.6257 22.2014 30.5613C18.137 26.497 18.137 19.9034 22.2014 15.839C22.4896 15.5508 22.957 15.5508 23.2452 15.839C23.5335 16.1273 23.5335 16.5946 23.2452 16.8829C19.7573 20.3707 19.7573 26.0296 23.2452 29.5175C26.7331 33.0054 32.392 33.0054 35.8798 29.5175L46.2487 19.1487C49.7365 15.6608 49.7365 10.0019 46.2487 6.51406C42.7608 3.02619 37.1019 3.02619 33.614 6.51406C33.503 6.62506 33.3595 6.69779 33.2044 6.72166L33.0508 6.74528C32.8184 6.78103 32.5829 6.70393 32.4167 6.53768Z" fill="white"/>
<path fill-rule="evenodd" clip-rule="evenodd" d="M27.0926 11.053C23.6047 7.56509 17.9458 7.56509 14.458 11.053L4.09225 21.4246C0.60438 24.9125 0.604231 30.5715 4.0921 34.0594C7.57997 37.5472 13.2389 37.5472 16.7267 34.0594C16.8377 33.9484 16.9813 33.8756 17.1364 33.8518L17.2899 33.8281C17.5223 33.7924 17.7578 33.8695 17.9241 34.0357C23.954 40.0656 33.7315 40.0656 39.7613 34.0357L45.6337 28.1634C45.6389 28.1582 45.6442 28.153 45.6496 28.148C45.6498 28.1478 45.65 28.1476 45.6502 28.1473C45.6503 28.1473 45.6502 28.1474 45.6502 28.1473L45.6509 28.1468L46.1556 28.6853L46.6775 29.2073L46.6732 29.2117L46.6711 29.2137L40.8052 35.0796C34.3477 41.537 23.9676 41.6826 17.3333 35.5163C13.2462 39.1625 6.96991 39.0248 3.04827 35.1032C-1.01604 31.0389 -1.01609 24.4454 3.04812 20.3811C3.04817 20.381 3.04807 20.3811 3.04812 20.3811L13.414 10.0093C17.4784 5.94492 24.0721 5.94477 28.1364 10.0091C32.2008 14.0735 32.2008 20.6671 28.1364 24.7314C27.8482 25.0197 27.3808 25.0197 27.0926 24.7314C26.8044 24.4432 26.8044 23.9758 27.0926 23.6876C30.5805 20.1997 30.5805 14.5408 27.0926 11.053ZM46.6732 29.2117C46.6756 29.2093 46.6784 29.2067 46.6814 29.2037C46.6925 29.193 46.7075 29.1783 46.726 29.1597C46.7629 29.1226 46.8139 29.0701 46.8757 29.0029C46.9992 28.8688 47.1669 28.6754 47.3521 28.4301C47.7202 27.9425 48.1699 27.2336 48.4724 26.3641C48.7764 25.4906 48.9354 24.4429 48.7008 23.2995C48.4655 22.1524 47.8451 20.9639 46.6775 19.7963C46.3892 19.5081 45.9219 19.5081 45.6337 19.7963C45.3454 20.0846 45.3454 20.5519 45.6337 20.8402C46.6258 21.8323 47.0852 22.7695 47.2548 23.5962C47.4251 24.4266 47.3142 25.2007 47.0782 25.879C46.8408 26.5613 46.4807 27.1344 46.1739 27.5407C46.0217 27.7423 45.8856 27.8989 45.7897 28.003C45.7419 28.055 45.7043 28.0936 45.6801 28.1179C45.6749 28.1232 45.6702 28.1278 45.6663 28.1317C45.6611 28.1368 45.6571 28.1407 45.6542 28.1435L45.6509 28.1468" fill="white"/>
<path fill-rule="evenodd" clip-rule="evenodd" d="M32.4167 6.53768C26.3868 0.50779 16.6093 0.50779 10.5794 6.53768L4.70711 12.41C4.70191 12.4152 4.69664 12.4203 4.69128 12.4254C4.69105 12.4256 4.69082 12.4258 4.69058 12.426C4.69052 12.4261 4.69046 12.4261 4.69039 12.4262L4.68653 12.4299C4.68153 12.4348 4.67278 12.4433 4.66067 12.4555C4.63644 12.4798 4.59888 12.5184 4.55103 12.5704C4.45516 12.6745 4.3191 12.8311 4.16685 13.0328C3.86011 13.4391 3.49994 14.0121 3.26255 14.6944C3.02655 15.3727 2.91564 16.1468 3.086 16.9772C3.2556 17.8039 3.71502 18.7412 4.70711 19.7333C4.99535 20.0215 4.99535 20.4888 4.70711 20.7771C4.41886 21.0653 3.95152 21.0653 3.66328 20.7771C2.49569 19.6095 1.87527 18.4211 1.63992 17.2739C1.40535 16.1306 1.5644 15.0829 1.86832 14.2093C2.17085 13.3398 2.62056 12.6309 2.98871 12.1433C3.17391 11.898 3.34156 11.7046 3.46503 11.5705C3.52686 11.5033 3.57787 11.4508 3.6148 11.4137C3.63328 11.3951 3.64826 11.3805 3.65933 11.3697C3.66333 11.3658 3.66683 11.3625 3.66979 11.3596L9.5356 5.49384C15.993 -0.963589 26.3732 -1.10917 33.0075 5.05709C37.0945 1.41088 43.3709 1.54859 47.2925 5.47023C51.3569 9.53459 51.3569 16.1282 47.2925 20.1925L36.9237 30.5613C32.8593 34.6257 26.2657 34.6257 22.2014 30.5613C18.137 26.497 18.137 19.9034 22.2014 15.839C22.4896 15.5508 22.957 15.5508 23.2452 15.839C23.5335 16.1273 23.5335 16.5946 23.2452 16.8829C19.7573 20.3707 19.7573 26.0296 23.2452 29.5175C26.7331 33.0054 32.392 33.0054 35.8798 29.5175L46.2487 19.1487C49.7365 15.6608 49.7365 10.0019 46.2487 6.51406C42.7608 3.02619 37.1019 3.02619 33.614 6.51406C33.503 6.62506 33.3595 6.69779 33.2044 6.72166L33.0508 6.74528C32.8184 6.78103 32.5829 6.70393 32.4167 6.53768Z" fill="white"/>
<path fill-rule="evenodd" clip-rule="evenodd" d="M27.0926 11.053C23.6047 7.56509 17.9458 7.56509 14.458 11.053L4.09225 21.4246C0.60438 24.9125 0.604231 30.5715 4.0921 34.0594C7.57997 37.5472 13.2389 37.5472 16.7267 34.0594C16.8377 33.9484 16.9813 33.8756 17.1364 33.8518L17.2899 33.8281C17.5223 33.7924 17.7578 33.8695 17.9241 34.0357C23.954 40.0656 33.7315 40.0656 39.7613 34.0357L45.6337 28.1634C45.6389 28.1582 45.6442 28.153 45.6496 28.148C45.6498 28.1478 45.65 28.1476 45.6502 28.1473C45.6503 28.1473 45.6502 28.1474 45.6502 28.1473L45.6509 28.1468L46.1556 28.6853L46.6775 29.2073L46.6732 29.2117L46.6711 29.2137L40.8052 35.0796C34.3477 41.537 23.9676 41.6826 17.3333 35.5163C13.2462 39.1625 6.96991 39.0248 3.04827 35.1032C-1.01604 31.0389 -1.01609 24.4454 3.04812 20.3811C3.04817 20.381 3.04807 20.3811 3.04812 20.3811L13.414 10.0093C17.4784 5.94492 24.0721 5.94477 28.1364 10.0091C32.2008 14.0735 32.2008 20.6671 28.1364 24.7314C27.8482 25.0197 27.3808 25.0197 27.0926 24.7314C26.8044 24.4432 26.8044 23.9758 27.0926 23.6876C30.5805 20.1997 30.5805 14.5408 27.0926 11.053ZM46.6732 29.2117C46.6756 29.2093 46.6784 29.2067 46.6814 29.2037C46.6925 29.193 46.7075 29.1783 46.726 29.1597C46.7629 29.1226 46.8139 29.0701 46.8757 29.0029C46.9992 28.8688 47.1669 28.6754 47.3521 28.4301C47.7202 27.9425 48.1699 27.2336 48.4724 26.3641C48.7764 25.4906 48.9354 24.4429 48.7008 23.2995C48.4655 22.1524 47.8451 20.9639 46.6775 19.7963C46.3892 19.5081 45.9219 19.5081 45.6337 19.7963C45.3454 20.0846 45.3454 20.5519 45.6337 20.8402C46.6258 21.8323 47.0852 22.7695 47.2548 23.5962C47.4251 24.4266 47.3142 25.2007 47.0782 25.879C46.8408 26.5613 46.4807 27.1344 46.1739 27.5407C46.0217 27.7423 45.8856 27.8989 45.7897 28.003C45.7419 28.055 45.7043 28.0936 45.6801 28.1179C45.6749 28.1232 45.6702 28.1278 45.6663 28.1317C45.6611 28.1368 45.6571 28.1407 45.6542 28.1435L45.6509 28.1468" fill="white"/>
</g>
<defs>
<linearGradient id="paint0_linear_2286_11893" x1="7.327" y1="38.3331" x2="43.2223" y2="2.43786" gradientUnits="userSpaceOnUse">
<stop stop-color="#177DD7"/>
<stop offset="0.18" stop-color="#2D8CCE"/>
<stop offset="0.54" stop-color="#54A9BE"/>
<stop offset="0.82" stop-color="#6DBAB4"/>
<stop offset="1" stop-color="#76C1B1"/>
</linearGradient>
<clipPath id="clip0_2286_11893">
<rect width="147.858" height="40" fill="white"/>
</clipPath>
</defs>
</svg>
